<?xml version="1.0" encoding="UTF-8"?>
<svg id="arrows" xmlns="http://www.w3.org/2000/svg" viewBox="0 0 710.12 526.55">
  <defs>
    <style>
      .cls-1 {
        fill: #e9e242;
      }

      .cls-2 {
        fill: #373232;
      }
    </style>
  </defs>
  <g>
    <path class="cls-2" d="M126.96,387.45c10.42-18.76,18.34-4.66,34.46-6.61,5.51-5.25,7.92-23.62,14.74-25.61,8.29-2.42,23.27,8.17,32.77,7.11,3.4-5.49,17.92-30.02,22.35-30.5l4.8,1.04,11.12,20.83-32.26,30.87c-8.43,3.91-21.07-6.36-29.42-8.44l-18.42,25.75-21.85-6.85c-2.19-.1-.57,3.05-1.06,3.9-2.29,3.96-11.95,20.01-14.75,20.79l-19.67-5.48c6.2,20.31-21.03,6.52-30.68,2.92-5.35-3.86,7.31-29.31,9.57-30.7,8.89-5.5,8.64,5.55,12.64,8.5,1.5,1.1,15.52,5.9,17.19,5.86,5.95-.16,6.41-9.62,8.49-13.35l-.02-.03ZM234.08,337.72c-2.88-.7-3.06.42-4.64,2.01-5.02,5.05-15.4,26.86-21.55,28.3l-31.13-9.29c-2.62,5.52-9.15,25.75-13.46,27.83-6.7,3.23-22.93-6.44-26.78-4.03l-14.71,23.79c-1.67.42-21.62-5.22-23.48-6.5-5.32-3.64-1.64-9.78-7.69-8.54l-7.63,22.87,22.91,5.8c-9.47-23.11,21.36-2.56,22.93-3.8l12-24.42c5.49-5.64,21.07,7.9,25.99,5.03l17.31-25.66c6.25-.78,19.13,9.57,24.61,10.34,6.83.96,25.19-23.59,32.11-28.39l-6.78-15.33h0Z"/>
    <path class="cls-1" d="M234.08,337.72l6.78,15.33c-6.92,4.8-25.28,29.35-32.11,28.39-5.48-.77-18.35-11.12-24.61-10.34l-17.31,25.66c-4.91,2.87-20.5-10.67-25.99-5.03l-12,24.42c-1.57,1.23-32.39-19.31-22.93,3.8l-22.91-5.8,7.63-22.87c6.04-1.24,2.37,4.9,7.69,8.54,1.86,1.27,21.81,6.91,23.48,6.5l14.71-23.79c3.85-2.4,20.08,7.26,26.78,4.03,4.31-2.08,10.84-22.3,13.46-27.83l31.13,9.29c6.15-1.44,16.53-23.25,21.55-28.3,1.58-1.59,1.76-2.7,4.64-2.01h0Z"/>
  </g>
  <g>
    <path class="cls-1" d="M595.74,117.7c-8.58-3.97-19.73,18.61-19.24,23.9.61,6.6,16.29,8.47,20.23,14.29-.59,9.47-9.52,16.57-6.42,26.57l22.51,10.02c3.8,5.31-17.71,24.15-10.37,36.19,2.31,3.8,18.26,11.66,20.05,16.29,1.58,4.08-9.05,3.89-10.87,6.37l-24.9-29.35,14.54-22.68-22.66-16.69,9.3-21.54-20.98-13.79,9.49-18.78c-2.93-6.29-6.16-3.59-11.29-4.08l9.53-17.34c4.36-2.79,17.73,6.64,21.07,10.61h.01Z"/>
    <path class="cls-2" d="M595.74,199.97c-4.56-5.62-24.03-13.51-22.21-21.05,1.05-4.34,9.44-12.87,8.68-16.06l-20.71-15.9,7.46-15.84c-3.61.29-9.71-1.91-9.27-6.37,12.28-30.25,15.16-27.15,41.53-12.56,3,11.24-6.3,7.42-11.34,12.09-1.93,1.79-8.1,14.63-7.68,17.15l20.89,13.86-9.26,23.61,28.7,15.33c-1.16.36-5.11,2.39-5.81,3.25l-11.15,26c6.17,9.03,16.82,13.35,25.19,18.59,8.56,5.35-20.23,16.47-25.06,12.96l-23.08-29.65c-2.16-7.67,10-18.59,13.12-25.41h0ZM595.74,117.7c-3.34-3.97-16.71-13.4-21.07-10.61l-9.53,17.34c5.13.48,8.37-2.22,11.29,4.08l-9.49,18.78,20.98,13.79-9.3,21.54,22.66,16.69-14.54,22.68,24.9,29.35c1.83-2.48,12.46-2.29,10.87-6.37-1.8-4.63-17.74-12.5-20.05-16.29-7.34-12.04,14.18-30.88,10.37-36.19l-22.51-10.02c-3.1-10.01,5.83-17.1,6.42-26.57-3.94-5.82-19.62-7.68-20.23-14.29-.49-5.29,10.66-27.87,19.24-23.9h-.01Z"/>
  </g>
</svg>