<?xml version="1.0" encoding="UTF-8"?>
<svg id="cloud" xmlns="http://www.w3.org/2000/svg" viewBox="0 0 400.32 349.48">
  <defs>
    <style>
      .cls-1 {
        fill: #eaecec;
      }

      .cls-2 {
        fill: #aac6e1;
      }

      .cls-3 {
        fill: #373232;
      }

      .cls-4 {
        fill: #3c3533;
      }

      .cls-5 {
        fill: #463c3d;
      }

      .cls-6 {
        fill: #f1f1f2;
      }

      .cls-7 {
        fill: #90a78e;
      }

      .cls-8 {
        fill: #5c4f4e;
      }

      .cls-9 {
        fill: #ae9f99;
      }

      .cls-10 {
        fill: #cea6bb;
      }
    </style>
  </defs>
  <path class="cls-5" d="M151.14,247.13c6.78,10,5.05,26.43-8.61,17.23-4.17-6.87,4.77-19.89,8.61-17.23ZM147.38,262.42l3.8-2.9-2.87-4.74-.93,7.64h0Z"/>
  <polygon class="cls-9" points="147.38 262.42 148.3 254.78 151.17 259.52 147.38 262.42"/>
  <g>
    <path class="cls-3" d="M259.6,106.2c5.91,5.93,7.78,16.49,4.46,24.19,30.8,5.29,55.21,32.59,46.94,65.13-5.6,22.04-37.11,34.7-56.4,21.85-3.87-.77-7.49-11.85-10.6-10.41-2.65,1.22-5.59,9.61-8.76,12.31-7.73,6.58-27.54-5.03-31.63-14.08-18.85,8.27-36.74,13.88-54.32-.15,4.22,7.81,7.01,24.81-6.27,22.6-14.95-2.49-2.22-21.18-3.33-22.6-35.73,7.43-45.79-11.91-41.86-44.74,1.59-13.3,9.69-16.78,11-21.68,1.75-6.52-5.45-17.48.48-28.05,6.26-11.16,25.35-5.7,36.15-6.9-2.69-20.92,18.59-22.81,34.08-17.83,4.16,1.34,9.05,6.29,12.49,5.96,5.56-.53,12.12-9.8,25.19-9.36,18.03.6,16.43,13.01,22,16.42,4.61,2.82,13.97.92,20.39,7.35h0ZM185.04,94.67c-7.99-6.15-25.79-9.86-32.9-.55-3.92,5.12-.54,8.53-1.85,11.39-4.29,9.33-29.06-1.67-35.65,6.54s1.96,22.37,1.48,27.01c-.25,2.44-8.96,7.95-10.99,13.21-4.16,10.74-5.11,33.91,3.88,42.32,13.94,13.04,29.24,1.99,42.75,5.1,4.01.92,6.96,4.73,10.93,6.26,16.66,6.43,30.33-3.91,45.89-8.58.87,7.37,3.74,12.15,10.56,15.26l8.63-17.16c5.71-2.66,5.97,11.78,10.46,9.53,4.77-2.39,1.97-13.01,8.61-11.46,5.02,32,47.05,28.85,57.8,3.24,7.62-18.14-2-40.88-17.71-51.91-9.34-6.56-20.07-7.22-29.67-12.52,8.88-18.55-5-31.71-23.77-24.91.79-28.47-29.97-21.18-43.06-5.77-2.7-1.3-3.69-5.73-5.37-7.02l-.02.02ZM231.52,205.04c-4.08-3.81-8.38,10.28-2.81,11.46,5.96,1.26,4.84-9.57,2.81-11.46ZM147.35,222.24l-2.86-11.43c-5.79,5.34-7.13,12.22,2.86,11.43Z"/>
    <path class="cls-5" d="M163.62,220.37c7.73,6.22,14.87,26.94,0,26.93s-6.51-20.33,0-26.93ZM162.69,229.9c-.94,4.96-4.38,9.77.93,13.35,5.98-2.43,1.67-15.31-.93-13.35Z"/>
    <path class="cls-4" d="M226.79,237.56c4.54-1.09,14.12,17.94,8.78,22.17-20.72,10.23-20.2-10.44-8.78-22.17ZM225.83,247.12c-1.18,4.74-4.47,10.37,2.82,11.46,5.08-3.28,3.82-12.08-2.82-11.46Z"/>
    <path class="cls-5" d="M244.97,216.51c2.46-1.72,17.24,19.76,2.74,21.13-13.28,1.25-7.07-14.85-2.74-21.13ZM249.26,229.86c0-1.3-1.06-2.36-2.36-2.36s-2.36,1.06-2.36,2.36,1.06,2.36,2.36,2.36,2.36-1.06,2.36-2.36Z"/>
    <path class="cls-6" d="M185.04,94.67c1.68,1.29,2.67,5.72,5.37,7.02,13.09-15.42,43.85-22.7,43.06,5.77,18.77-6.8,32.65,6.36,23.77,24.91,9.6,5.3,20.33,5.96,29.67,12.52,15.72,11.03,25.33,33.77,17.71,51.91-10.75,25.61-52.78,28.76-57.8-3.24-6.64-1.56-3.83,9.07-8.61,11.46-4.49,2.25-4.75-12.19-10.46-9.53l-8.63,17.16c-6.83-3.11-9.69-7.89-10.56-15.26-15.56,4.67-29.23,15.01-45.89,8.58-3.97-1.53-6.92-5.34-10.93-6.26-13.51-3.11-28.8,7.95-42.75-5.1-8.99-8.41-8.04-31.58-3.88-42.32,2.03-5.25,10.74-10.77,10.99-13.21.47-4.64-7.83-19.11-1.48-27.01s31.37,2.79,35.65-6.54c1.32-2.87-2.06-6.27,1.85-11.39,7.11-9.31,24.91-5.6,32.9.55l.02-.02ZM176.06,138.07c-1.24-3.1-.79-5.66-5.52-6.71l-6.53,1.26c-7.18,4.32-7.62,31.4-.06,33.89,14.68,4.82,16.14-18.35,12.11-28.43h0ZM225.81,132.33c-10.04,3.73-11.94,13.79-11.61,23.95.26,8.27,1.27,12.62,10.57,10.44s8.89-13.2,8.7-21c4.48-2.99.88-13.76-3.25-15.18-2.82-.96-3.62,1.5-4.4,1.79h-.01ZM220.04,170.6c-4.49-3.45-18.13,18.6-2.65,19.07,11.75.36,4.73-12.77,2.65-19.07ZM204.75,185.89c2.3-15.45-21.54-15.22-19.11,0,6.63.9,2.56-6.63,10.53-5.87,5.75.55,2.6,7.34,8.59,5.87h0ZM170.03,199c3.06-4.82-2.27-15.25-6.41-18.8-5.2,4.48-10.81,18.56-1.52,20.73,1.71.4,7.3-.94,7.93-1.93h0Z"/>
    <path class="cls-10" d="M147.35,222.24c-9.99.79-8.65-6.09-2.86-11.43l2.86,11.43Z"/>
    <path class="cls-2" d="M231.52,205.04c2.02,1.89,3.15,12.72-2.81,11.46-5.57-1.18-1.27-15.27,2.81-11.46Z"/>
    <path class="cls-2" d="M162.69,229.9c2.6-1.96,6.91,10.92.93,13.35-5.32-3.58-1.87-8.39-.93-13.35Z"/>
    <path class="cls-10" d="M225.83,247.12c6.64-.62,7.9,8.18,2.82,11.46-7.29-1.09-4-6.72-2.82-11.46Z"/>
    <circle class="cls-10" cx="246.89" cy="229.86" r="2.36"/>
    <path class="cls-4" d="M176.06,138.07c-1.52-4.18-11.85-5.35-9.55,2.85,1.49,5.3,11.55,2.68,9.55-2.85,4.03,10.08,2.56,33.26-12.11,28.43-7.57-2.49-7.13-29.57.06-33.89l6.53-1.26c4.73,1.06,4.28,3.62,5.52,6.71h0ZM162.67,155.3c-1.18,1.27.89,7.58,2.86,7.6,5.71.06.53-11.25-2.86-7.6Z"/>
    <path class="cls-3" d="M225.81,132.33c.73.42,1.36,1.7,1.91,1.91-3,1.24-2.54,7.25-1.02,9.64l2.08,1.81,4.68-1.89c.05.63-.02,1.28,0,1.91.2,7.8.89,18.75-8.7,21s-10.31-2.17-10.57-10.44c-.32-10.16,1.57-20.22,11.61-23.95h.01ZM221.97,155.3c-3.49-.63-6.33,2.11-5.72,5.72h5.72v-5.72Z"/>
    <path class="cls-5" d="M170.03,199c-.63.99-6.21,2.33-7.93,1.93-9.29-2.17-3.68-16.25,1.52-20.73,4.14,3.55,9.47,13.99,6.41,18.8h0ZM166.48,195.45v-2.83l-3.8-2.9v5.73h3.8Z"/>
    <path class="cls-4" d="M220.04,170.6c2.09,6.29,9.1,19.43-2.65,19.07-15.48-.47-1.84-22.52,2.65-19.07ZM217.2,178.23l-3.85,3.85,3.85,3.85,3.85-3.85-3.85-3.85Z"/>
    <path class="cls-8" d="M204.75,185.89c-5.99,1.47-2.83-5.32-8.59-5.87-7.96-.76-3.9,6.77-10.53,5.87-2.43-15.22,21.42-15.45,19.11,0h0Z"/>
    <path class="cls-10" d="M233.46,145.73c-.02-.63.05-1.28,0-1.91-.22-2.54.69-5.34-.9-7.73-1.28-1.92-3.44-1.28-4.84-1.83-.56-.22-1.18-1.49-1.91-1.91.78-.29,1.57-2.75,4.4-1.79,4.14,1.41,7.73,12.19,3.25,15.18h0Z"/>
    <path class="cls-1" d="M176.06,138.07c2.01,5.53-8.06,8.15-9.55,2.85-2.3-8.2,8.03-7.03,9.55-2.85Z"/>
    <path class="cls-2" d="M162.67,155.3c3.39-3.64,8.57,7.66,2.86,7.6-1.97-.02-4.04-6.33-2.86-7.6Z"/>
    <path class="cls-1" d="M233.46,143.81l-4.68,1.89-2.08-1.81c-1.52-2.39-1.98-8.4,1.02-9.64,1.4.55,3.55-.09,4.84,1.83,1.6,2.39.68,5.2.9,7.73h0Z"/>
    <path class="cls-6" d="M221.97,155.3v5.72h-5.72c-.61-3.61,2.23-6.34,5.72-5.72Z"/>
    <polygon class="cls-2" points="166.48 195.45 162.67 195.45 162.68 189.73 166.47 192.62 166.48 195.45"/>
    <rect class="cls-7" x="214.55" y="179.24" width="5.44" height="5.44" transform="translate(-65.03 206.98) rotate(-45.01)"/>
  </g>
</svg>