<?xml version="1.0" encoding="UTF-8"?>
<svg id="Layer_1" data-name="Layer 1" xmlns="http://www.w3.org/2000/svg" viewBox="0 0 810.59 520.48">
  <defs>
    <style>
      .cls-1 {
        fill: #9bc86a;
      }

      .cls-2 {
        fill: #363232;
      }

      .cls-3 {
        fill: #eef0f0;
      }

      .cls-4 {
        fill: #e6c1b5;
      }

      .cls-5 {
        fill: #e9c9c3;
      }

      .cls-6 {
        fill: #f1f2f2;
      }

      .cls-7 {
        fill: #463c3b;
      }

      .cls-8 {
        fill: #444446;
      }

      .cls-9 {
        fill: #78a7b6;
      }

      .cls-10 {
        fill: #90a78e;
      }

      .cls-11 {
        fill: #aec9e3;
      }

      .cls-12 {
        fill: #706b6c;
      }

      .cls-13 {
        fill: #3b3432;
      }

      .cls-14 {
        fill: #514b4c;
      }

      .cls-15 {
        fill: #655856;
      }

      .cls-16 {
        fill: #dfe3e4;
      }

      .cls-17 {
        fill: #fdfefe;
      }
    </style>
  </defs>
  <g>
    <g>
      <path class="cls-13" d="M580.51,155.45c13.64,11.07-4.16,34.13-18.54,23.29-12.7-9.57,4.2-34.93,18.54-23.29ZM564.07,173.77c5.01,2.77,10.03,2.63,14.13-1.62,6.46-20.34-18.98-17.38-14.13,1.62Z"/>
      <path class="cls-7" d="M556.62,187.88c0,5.93-4.81,10.75-10.75,10.75s-10.75-4.81-10.75-10.75,4.81-10.75,10.75-10.75,10.75,4.81,10.75,10.75ZM551.19,187.72c0-2.96-2.4-5.36-5.36-5.36s-5.36,2.4-5.36,5.36,2.4,5.36,5.36,5.36,5.36-2.4,5.36-5.36Z"/>
      <path class="cls-7" d="M527.69,199.24c0,4.07-3.3,7.37-7.37,7.37s-7.37-3.3-7.37-7.37,3.3-7.37,7.37-7.37,7.37,3.3,7.37,7.37ZM522.04,198.97c0-1.31-1.06-2.37-2.37-2.37s-2.37,1.06-2.37,2.37,1.06,2.37,2.37,2.37,2.37-1.06,2.37-2.37Z"/>
      <path class="cls-6" d="M564.07,173.77c-4.85-19,20.59-21.96,14.13-1.62-4.1,4.25-9.12,4.39-14.13,1.62Z"/>
      <circle class="cls-3" cx="545.83" cy="187.72" r="5.36"/>
      <circle class="cls-11" cx="519.67" cy="198.97" r="2.37"/>
      <path class="cls-13" d="M611.25,36.31c11.17-2.27,26.05-.54,35.73,5.64,3.44,2.19,7.66,8.37,10.29,8.99,3.36.79,14.42-2.36,22.2-1.15,50.77,7.87,60.62,90.54,3.79,98.83-14.69,2.14-25.69-3.57-34.11-3.21-3.54.15-8.07,5.35-11.98,7.03-12.04,5.21-32.13,7.12-44.02.89-4.33-2.26-7.57-7.8-10.1-8.86-3.35-1.39-15.41-1-23.09-4.02-41.53-16.34-37.02-83.38,5.64-90.28,8.66-1.4,19.79,1.38,23.87.6,2.45-.47,12.8-12.65,21.77-14.47ZM644.77,137.93c13.26,4.13,23.61,7.49,38.54,4.96,48.82-8.27,39.72-81.68-5.46-87.65-7.5-.99-18.63,2.49-22.45,1.47-2.92-.78-10.18-10.07-16.28-12.68-10.88-4.64-22.5-4.91-33.22.35-5.41,2.65-11.71,11.61-14.66,12.3-3.42.8-16.03-2.3-24.08-1.11-41.12,6.05-38.71,74.76-.05,81.57,5.86,1.03,13.97-.78,18.44.75,2.73.94,4.15,5.87,7.09,8.26,11.42,9.31,44.97,6.91,52.12-8.23Z"/>
      <path class="cls-17" d="M644.77,137.93c-7.15,15.14-40.7,17.54-52.12,8.23-2.94-2.39-4.36-7.33-7.09-8.26-4.47-1.53-12.58.28-18.44-.75-38.65-6.81-41.06-75.52.05-81.57,8.04-1.18,20.66,1.91,24.08,1.11,2.95-.69,9.25-9.64,14.66-12.3,10.72-5.26,22.35-4.99,33.22-.35,6.1,2.6,13.36,11.9,16.28,12.68,3.82,1.01,14.95-2.46,22.45-1.47,45.18,5.97,54.28,79.38,5.46,87.65-14.93,2.53-25.28-.83-38.54-4.96ZM610.17,112.94c1.55-2.54,26.98-9.7,29.6-19.42,4.02-14.96-33.75-33.98-45.81-30.48-5.77,1.68-4.59,8.48-6.75,12.56-7.41,14.04-16.03,27.55-19.22,43.52,8.6,15.27,19.55-1.85,29.08,1.44,3.5,1.21,3.13,7.3,7.64,7.16,9.23-.28,3.09-10.88,5.47-14.77ZM668.95,67.11c-5.24.11-17.77,1.86-20.87,6.09l-1.59,3.79c3.69,13.34,1.84,41.29,8.56,52.85,3.67,6.31,21.62,6.57,27.69,2.87,7.66-4.68,12.2-50.11,10.7-60.45-1.97-3-20.08-5.25-24.48-5.15Z"/>
      <path class="cls-2" d="M610.17,112.94c-2.38,3.9,3.77,14.49-5.47,14.77-4.51.14-4.14-5.95-7.64-7.16-9.53-3.29-20.48,13.83-29.08-1.44,3.19-15.96,11.81-29.48,19.22-43.52,2.16-4.08.98-10.88,6.75-12.56,12.06-3.5,49.83,15.52,45.81,30.48-2.61,9.72-28.04,16.88-29.6,19.42ZM594.52,70.4c9.25,2.29,18.52,5.29,25.9,11.54,1.17.99,8.69,13.85,10.55,4.77,1.48-7.23-23.82-17.02-29.92-18.05-1.93-.32-7.06-1.54-6.53,1.74ZM588.74,83.85c-3.58,6.34-11.77,23.3-13.4,29.79-.26,1.05-.56,3.12.91,2.82,3.03-3.87,6.28-4.47,10.57-5.75,1.94-.58,5.45.47,7.68,0,1.51-.32,3.47-2.73,4.8-3.8l4.78,5.71c-1.83-4.93,3.27-9.01,3.86-11.51l13.32-6.95c1.47-5.05-3.24-6.13-5.64-8.4-5-4.74-4.55-3.26-9.6-5.76-3.03-1.5-6.13-5.17-10.62-5.14-3.07.35-5.24,6.46-6.66,8.98ZM634.82,91.55c-3.63-.63-6.39,2.24-5.74,5.74l5.74-5.74Z"/>
      <path class="cls-13" d="M668.95,67.11c4.41-.09,22.52,2.16,24.48,5.15,1.5,10.33-3.03,55.77-10.7,60.45-6.06,3.7-24.01,3.44-27.69-2.87-6.72-11.56-4.87-39.51-8.56-52.85l1.59-3.79c3.1-4.23,15.63-5.98,20.87-6.09ZM686.64,74.28c-7.38-1.59-14.45-2.51-22.08-1.94-2.21.17-8.6.59-8.61,3.82,7.1,2.27,14.7,2.55,22.08,1.95,2.24-.18,8.59-.58,8.61-3.82ZM685.69,81.94c-8.08,1.11-20.1,0-28.8,0-.6,0-2.72-2.64-4.79-1.91l1.92,19.18,32.44-.2,2.09-18.99c-.69-.97-2.32,1.84-2.86,1.92ZM682.81,103.07c-6.05.12-12.19-.24-18.26-.02-2.32.09-7.14-1.44-6.68,1.89,7.05,1.63,20.22,5.39,24.94-1.88ZM684.72,110.73c-9.69,2.85-19.12,2.73-28.78,0l4.03,17.06,21.06-.63,3.7-16.44Z"/>
      <path class="cls-5" d="M606.02,80.02c5.05,2.5,4.6,1.02,9.6,5.76-.31.83-1.07,1.74-1.92,1.92-12.35,2.68-6.21,2.88-5.76,9.6.08,1.13.22,2.91,0,3.84-.59,2.5-5.69,6.57-3.86,11.51l-4.78-5.71c-1.33,1.07-3.3,3.49-4.8,3.8,1.91-16.08-13.96-15.48-7.68,0-4.29,1.28-7.54,1.88-10.57,5.75-1.47.3-1.18-1.77-.91-2.82,1.63-6.49,9.82-23.46,13.4-29.79,1.11-.26,3.23.37,3.84,0l.14,5.5,9.25.06.2-9.4c1.08.26,2.62-.18,3.84,0Z"/>
      <path class="cls-1" d="M594.52,70.4c-.52-3.28,4.6-2.06,6.53-1.74,6.1,1.02,31.4,10.82,29.92,18.05-1.86,9.08-9.38-3.77-10.55-4.77-7.38-6.25-16.65-9.26-25.9-11.54Z"/>
      <path class="cls-4" d="M607.94,101.13c.22-.92.08-2.71,0-3.84l6.86-1.81-1.1-7.79c.85-.18,1.61-1.09,1.92-1.92,2.4,2.28,7.12,3.35,5.64,8.4l-13.32,6.95Z"/>
      <path class="cls-15" d="M634.82,91.55l-5.74,5.74c-.65-3.5,2.11-6.37,5.74-5.74Z"/>
      <path class="cls-3" d="M685.69,81.94c.54-.07,2.17-2.89,2.86-1.92l-2.09,18.99-32.44.2-1.92-19.18c2.07-.73,4.19,1.91,4.79,1.91,8.69,0,20.72,1.11,28.8,0Z"/>
      <path class="cls-9" d="M684.72,110.73l-3.7,16.44-21.06.63-4.03-17.06c9.66,2.72,19.1,2.84,28.78,0Z"/>
      <path class="cls-16" d="M686.64,74.28c-.02,3.24-6.37,3.64-8.61,3.82-7.38.6-14.98.32-22.08-1.95,0-3.23,6.39-3.65,8.61-3.82,7.63-.57,14.71.35,22.08,1.94Z"/>
      <path class="cls-9" d="M682.81,103.07c-4.72,7.27-17.89,3.5-24.94,1.88-.46-3.34,4.37-1.81,6.68-1.89,6.07-.23,12.2.14,18.26.02Z"/>
      <path class="cls-15" d="M613.7,87.69l1.1,7.79-6.86,1.81c-.45-6.72-6.59-6.91,5.76-9.6Z"/>
    </g>
    <path class="cls-10" d="M606.02,80.05c-1.22-.19-2.76.29-3.84,0-2.25-.59-4.65-3.09-7.63-2-.45,1.19.29,3.63-.05,4.07-.45.59-1.44,1.76-1.92,2.07-.61.4-2.73-.28-3.84,0,1.42-2.71,3.59-9.31,6.66-9.69,4.49-.04,7.58,3.92,10.62,5.54Z"/>
    <path class="cls-12" d="M594.54,110.72c-2.31.48-5.95-.59-7.95,0-6.5-15.75,9.93-16.36,7.95,0Z"/>
    <path class="cls-15" d="M602.5,79.54l-.21,9.85-9.58-.06-.15-5.77c.5-.3,1.52-1.43,1.99-2.01h0c.35-.42-.42-2.8.05-3.95,3.09-1.06,5.57,1.36,7.9,1.94Z"/>
  </g>
  <path class="cls-9" d="M336.42,75.48c13.71,3.24,48.05,12.69,59.51,13.43-2.52,6.45-8.41,12.75-7.68,19.97.96,9.5,16.9,19.24,18.78,27.45,2.94,12.78-3.89,24.7-3.51,36,.27,8.25,6.6,13.79,5.97,23.07-.9,13.18-12.91,16.72-16.47,25.91-2.32,6-2.23,14.76-3.69,21.26-1.78,7.92-8.65,11.49-3.5,22.47,4.89,10.41,17.64.3,24.94-1.02,11-1.99,24.79-2.45,35.93-4.39,6.99-1.21,9.43-5.56,18.9-3.35,4.51,1.05,7.47,6.34,12.88,5.37,7.77,10.47,5.02,17.68,3.52,29.43-6.45,50.52-59.89,138.61-104.26,164.46-43.61,25.41-101.18,32.53-150.75,26.82-1.58-.18-6.05-1.45-9.6-1.92-3.19-.43-6.95.69-10.26-.29-3.59-1.16-2.38-3.55-3.18-5.47-1.97-4.74-2.37-9.78-5.36-14.8-2.18-3.65-8.39-8.48-8.96-10.05-.93-2.57,1.15-13.17-1.54-19.76-1.9-4.64-7.32-6.5-8.68-12.41-3.2-13.84,6.29-18.99,5.47-30.28-.6-8.24-9.04-14.63-10.46-24.4-2.35-16.05,8.68-29.37-16.01-33.69-7.34-1.29-8.23,0-13.96,1.45-4.83,1.23-8.19,3.65-13.44,3.84-.17-1.16.42-2.51-.09-3.71-5.91-.45-11.48-2.54-17.18-3.97-1.5-.38-2.74-1.38-5.76-1.92-.61-.11-1.29.06-1.92,0-.39-2.87-3.88-1.7-5.76-1.92s-3.9-.02-5.76,0c-1.27.01-2.57-.08-3.84,0-1.91.12-3.85-.11-5.76.02l1.92,3.82c-.67.36-1.22,1.55-1.92,1.92v-3.83c-2.18-.81-3.63,1.88-3.84,1.91-1.11.12-2.76.16-3.84,0-.21-.03-1.9-2.67-3.84-1.92-2.34-2.26-5.41-21.5-5.73-25.94-1.66-23.33,7.21-62.1,15.3-84.45,9.58-26.49,30.94-54.08,50.91-73.85,1.6.78,1.27,6.29.95,7.67-1.95,8.33-17.57,18.22-17.43,29.79.07,5.67,5.75,8.51,6.04,15.34.27,6.22-3.48,10.49-3.92,15.55-.78,9.04,7.48,19.62,17.19,15.11,1.89-.88,18.86-18.5,19.76-20.69,3.11-7.55-3.99-12.41,5.2-23.46,8.04-9.66,25.05-11.92,30.47-19.44,8.45-11.72,4.99-31.65,15.57-47.26,3.49-5.16,15.34-9.38,9.66-20.6,2.87-.13,17.94-4.46,21.12-5.76,4.73,11.49,9.12,24.19,21.65,29.22,4.48,1.8,9.11,1.27,13.63,3.64,8.27,4.34,11.02,23.33,22.94,22.38,4.65-.37,19.3-8.43,21.41-13.06,4.35-9.53-3.53-15.69-4.19-22.29-.65-6.42,4.75-14.42,8.94-19.04l13.53-12.37ZM264.07,213.07c5.28,7.09,13.27,2.78,19.25,3.2,8.46.59,16.25,6.93,21.96-3.97,7.73-14.76-14.78-42.86-30.83-38.65-9.84,2.58-15.13,33.05-10.39,39.42ZM190.52,277c1.99,1.03,2.55,3.56,6.74,3.78,3.53.18,13.71-2.3,17.01-4.02,18.79-9.79,28.89-73.86,14.68-89.05-11.21-11.98-28.56-7.31-37.35,4.96-10.09,14.08-13.02,56.73-10.78,73.86,1.06,8.11,4.06,7.55,9.7,10.46ZM359.46,196.39c-1.2-1.02-.8-3.54-4.78-3.86-7.4-.58-19.02,5.18-22.91,11.68-8.17,13.65-20.97,64.5-7.35,74.74,13.43,10.09,38.13,1.29,40.62-16.53,1.52-10.92.97-25.38,2.1-37.25.04-.39,1.83-2.13,1.99-4.65.34-5.13-.21-10.39-.06-15.53-1.05-5.81-4.71-3.83-5.77-4.77-.68-.61-1.3-1.43-1.92-1.92-.69-.54-1.24-1.34-1.92-1.92ZM435.05,367.9c1-1.27,3.99-1.54,4.72-3.83,2.09-6.59.43-20.21,3.21-29.48,3.88-12.95,24.14-31.89-1.74-38.32l-31.29,11.07c-2.57.41-7.94-6.3-13.59-3.01-.61.36-9.58,9.37-10.07,10.03-1.64,2.22-9.41,34.32-9.6,38.53-1.03,22.21,10.2,15.57,23.56,18.64,15.7,3.61,18.74,16.78,34.82-3.64ZM303.78,348c6.16-6.1-19.21-28.96-26.37-30.39-7.66-1.53-24.89,3.65-31.84,7.7-1.88,1.1-17.19,12.47-9.92,13.11,6.47-.24,9.14-6.37,15.56-9.4,15.96-7.54,32.87-1.36,43.87,11.41,1.48,1.71,4.1,12.12,8.7,7.56ZM347.38,394.6c-8.87-11.18-27.21,3.72-40.63,1.29-2.99-.54-5.17-3.44-7.88-3.76-10.56-1.22-34.39,29.5-31.38,39.03,2.31,7.32,18.13,3.86,24.33,6.4,6.12,2.51,7.22,17.89,23.33,9.12,4.81-2.61,6.25-8.15,10.23-11.08,5.07-3.72,23.36-8.25,24.12-9.3.47-.65,3.77-14.74,3.7-15.63-.08-.97-5.18-15.29-5.82-16.09Z"/>
  <path class="cls-10" d="M484.24,236.69c-.08,1.12-1.6,3.98-1.93,6.61-.62,4.94,1.06,12.36.01,16.42-18.34-15.7-36.06-5.88-56.79-2.07-3.97.73-8.43-.18-12.79.65-7.83,1.48-14.49,6.41-22.33,5.04-4.86-7.69,3.45-13.34,5.09-20.36,1.28-5.49.21-10.49,2.24-16.96,3.91-12.47,17.64-15.01,17.56-32.53-.04-8.09-5.43-11.99-6.03-19.19-1.33-15.86,9.63-29.07-.18-45.77-3.6-6.13-15.15-13.87-15.24-21.34-.03-2.97,3.66-12.15,5.91-13.56,9.84-6.15,38.91,22.42,45.16,29.8,22.48,26.57,41.71,78.96,39.33,113.26Z"/>
  <path class="cls-10" d="M144.45,131.13c15.49-9.23,30.12-19.76,46.69-27.21,4.42-1.99,13.66-6.52,17.73-7.25,2.79-.5,5.5-1.19,4.67,2.76-7.35,6.44-14.57,17.22-17.66,26.49-3.27,9.8-2.15,24.9-8.28,32.02-4.13,4.8-21.54,10.08-28.56,17.5-2.81,2.96-7.47,11.2-8.09,15.13-.7,4.44,1.81,8.02.31,11.49s-15.95,18.28-20.82,17.09c-10.85-2.67-.93-18.82-1.22-25.62-.4-9.22-8.98-9.6-4.38-21.56,2.06-5.36,12.19-15.17,13.76-19.26.59-1.55-.21-3.42.1-4.31,2.22-6.53,3.01-10.66,5.76-17.27Z"/>
  <path class="cls-10" d="M324.89,73.57c-1.65,11.13-15.67,17.53-16.87,30.2-.99,10.52,17.17,28.67-9.96,32.41-11.03,1.52-12.05-16.03-21.31-21.2-9.64-5.38-17.12-.58-25.63-12.76-13.31-19.06.53-20.06,16.5-23.54,18.8-4.09,38.04-5.89,57.27-5.11Z"/>
  <path class="cls-10" d="M94.53,323.06c-1.01,5.4,1.94,3.11,3.84,3.84,1.05.4,1.82,1.67,3.84,1.92,3.98.5,4.35.23,3.84-3.84.63.06,1.31-.11,1.92,0,1.16,2.33,5.18,1.48,5.76,1.92.16.12-.66,2.67,1.44,3.75,4.05,2.07,11.17,4.09,15.84,3.93.17,1.22-.16,2.59,0,3.83,5.53.7,10.26-2.32,15.35-3.83,31.16-3.98,19.68,14.48,23.47,33.15,1.35,6.62,8.75,13.01,9.33,19.62.89,10.09-8.17,15.44-5.47,30.27,1.5,8.24,9.5,13.09,10.72,20.14.9,5.18-2.03,9.46-1.29,12.56s7.88,7.57,10.19,11.01c.52.78,11.15,19.32,2.96,17.19-1.21-.41-2.42-1.65-3.84-1.92-.61.17-1.45-.24-1.92,0-29.38-27.97-79.4-52.77-97.63-89.52-6.52-13.14-15.72-38.24-17.55-52.5-.08-.61,0-1.29,0-1.92,2.18.58,3.02-1.44,3.84-1.92,1.2-.7,2.57-1.33,3.84-1.92.54-.25,1.43.26,1.92,0,.7-.37,1.25-1.56,1.92-1.92,1.29-.7,4.56,1.08,3.84-3.84,1.27-.08,2.57.01,3.84,0Z"/>
  <path class="cls-10" d="M433.6,362.68c-11.79,18.54-19.32,6.34-31.77,3.42-10.05-2.36-20,3.06-19.22-12.99.2-4.18,4.79-28.48,6.05-32.51.84-2.69,10.11-10.36,12.41-10.67,2.63-.37,5.55,4.52,9.09,3.61,8.16-2.23,22.1-9.76,29.42-11.27,6.59-1.36,10.74,3.66,9.79,9.81-.78,5.03-6.22,7.53-8.18,11.13-2.99,5.5-6.04,17.82-6.75,24.14-.7,6.29,3.73,8.16-.84,15.34Z"/>
  <path class="cls-10" d="M343.71,398.32c.41.6,4.1,13.24,4.1,13.97.08,13.22-14.66,12.39-22.74,17.46-5.02,3.15-8.72,10.29-14.1,12.76-11.76,5.39-8.45-2.83-13.54-7.54-5.95-5.51-16.8-4.51-24.35-4.44.94-8.41,14.84-30.39,22.46-32.34,3.36-.86,11.2,3.54,16.89,3.71,8.5.25,26.93-9.9,31.29-3.58Z"/>
  <path class="cls-10" d="M267.54,209.59c-1.56-2.44,2.84-24.76,5.42-27.69,11.71-13.29,42.25,29.28,22.07,31.82-5.29.67-7.81-2.67-11.33-3.01-4.45-.43-10.81,2.81-16.16-1.12Z"/>
  <path class="cls-8" d="M190.52,277l7.66-.95c6.03-3.17,5.46-16.09-1.34-17.98l-6.32.64c-6.27,4.8-4.75,12.83,0,18.28-5.63-2.91-8.64-2.35-9.7-10.46-2.24-17.13.69-59.78,10.78-73.86,8.79-12.27,26.14-16.94,37.35-4.96,14.22,15.19,4.11,79.25-14.68,89.05-3.31,1.72-13.48,4.21-17.01,4.02-4.2-.22-4.75-2.75-6.74-3.78ZM224.59,189.21c-5.5-5.22-21.8-2.2-22.61,6.29-1.44,15.01,27.24,30.72,28.3,9.23.13-2.66-4-13.92-5.68-15.51Z"/>
  <path class="cls-3" d="M224.59,189.21c1.68,1.59,5.81,12.85,5.68,15.51-1.06,21.49-29.74,5.78-28.3-9.23.81-8.48,17.11-11.51,22.61-6.29Z"/>
  <path class="cls-6" d="M190.52,277c-4.76-5.45-6.28-13.49,0-18.28l6.32-.64c6.8,1.88,7.37,14.81,1.34,17.98l-7.66.95Z"/>
  <path class="cls-8" d="M359.39,196.39c-2.91-.73-3.88.78-5.76,1.92-13.06,7.87-3.89,40.68,11.52,26.87h1.92c-1.12,11.87-.57,26.33-2.1,37.25-2.49,17.82-27.19,26.62-40.62,16.53-13.63-10.24-.83-61.09,7.35-74.74,3.89-6.5,15.52-12.27,22.91-11.68,3.98.31,3.57,2.83,4.78,3.86ZM336.19,252.21c-16.24-2.34-19.55,18.54-3.05,19.14,5.58-5.69,6.47-11.92,3.05-19.14Z"/>
  <path class="cls-6" d="M361.31,198.31c.62.49,1.24,1.31,1.92,1.92,2.61,8.7,5.92,15.89,1.92,24.95-15.41,13.81-24.58-19-11.52-26.87h7.68Z"/>
  <path class="cls-3" d="M336.19,252.21c3.42,7.21,2.54,13.44-3.05,19.14-16.5-.59-13.19-21.47,3.05-19.14Z"/>
  <path class="cls-14" d="M303.78,348c-4.6,4.56-7.22-5.85-8.7-7.56-11-12.77-27.91-18.94-43.87-11.41-6.42,3.03-9.08,9.16-15.56,9.4-7.27-.64,8.04-12.02,9.92-13.11,6.95-4.05,24.18-9.23,31.84-7.7,7.16,1.43,32.53,24.28,26.37,30.39Z"/>
  <g>
    <path class="cls-14" d="M211.64,90.65c1.67.89,3.88,2,5.76,1.92,5.67,11.22-6.17,15.44-9.66,20.6-10.57,15.61-7.12,35.54-15.57,47.26-5.42,7.52-22.43,9.78-30.47,19.44-9.19,11.05-2.09,15.91-5.2,23.46-.9,2.19-17.87,19.81-19.76,20.69-9.72,4.51-17.97-6.06-17.19-15.11.43-5.06,4.18-9.33,3.92-15.55-.29-6.83-5.97-9.67-6.04-15.34-.14-11.57,15.48-21.46,17.43-29.79h3.84c-.3.89.49,2.76-.1,4.31-1.56,4.09-11.7,13.9-13.76,19.26-4.59,11.96,3.98,12.35,4.38,21.56.29,6.81-9.63,22.95,1.22,25.62,4.86,1.2,19.35-13.7,20.82-17.09s-1.02-7.04-.31-11.49c.62-3.93,5.28-12.16,8.09-15.13,7.03-7.43,24.44-12.71,28.56-17.5,6.13-7.13,5.01-22.22,8.28-32.02,3.09-9.27,10.32-20.05,17.66-26.49.82-3.95-1.89-3.26-4.67-2.76-4.07.73-13.3,5.26-17.73,7.25-16.57,7.45-31.21,17.98-46.69,27.21.35-.84-.24-2.67,0-3.84,24.43-18.25,38.29-25.54,67.19-36.47Z"/>
    <path class="cls-2" d="M144.45,127.12c-.24,1.16.35,2.99,0,3.84-2.75,6.61-3.54,10.74-5.76,17.27h-3.84c.32-1.38.65-6.89-.95-7.67-19.97,19.77-41.33,47.36-50.91,73.85-8.08,22.35-16.95,61.11-15.3,84.45.32,4.44,3.39,23.68,5.73,25.94l3.84,1.92c1.08.16,2.73.12,3.84,0l1.92,1.92c-1.27.58-2.64,1.22-3.84,1.92l-3.82-1.91c-.05,1.27-.03,2.56-.02,3.83,0,.63-.08,1.31,0,1.92h-3.84c-.8-3.23-4.16-8.06-5.2-13.04-15.27-73.2,19.69-150.56,78.15-194.24Z"/>
    <path class="cls-14" d="M322.98,69.54c3.14.85,9.78,4.9,13.44,5.76l-13.53,12.37c-4.19,4.62-9.59,12.62-8.94,19.04.67,6.6,8.54,12.76,4.19,22.29-2.11,4.62-16.76,12.68-21.41,13.06-11.92.95-14.67-18.04-22.94-22.38-4.52-2.37-9.15-1.84-13.63-3.64-12.52-5.03-16.92-17.73-21.65-29.22,3.17-1.29,11.09-7.78,15.36-9.6,20.41-4.94,48.74-13.19,69.11-7.68ZM324.89,73.39c-19.23-.79-38.47,1.02-57.27,5.11-15.97,3.48-29.81,4.47-16.5,23.54,8.5,12.18,15.99,7.38,25.63,12.76,9.26,5.17,10.28,22.72,21.31,21.2,27.13-3.74,8.97-21.89,9.96-32.41,1.2-12.67,15.22-19.07,16.87-30.2Z"/>
    <path class="cls-2" d="M403.61,86.81c-2.32,1.4-4.96,2.1-7.68,1.92-11.46-.75-45.8-10.2-59.51-13.43-3.66-.86-10.29-4.91-13.44-5.76,26.68.11,55.74,7.6,80.63,17.27Z"/>
    <path class="cls-13" d="M253.87,77.22c-4.27,1.81-12.19,8.3-15.36,9.6s-18.24,5.63-21.12,5.76c-1.88.08-4.09-1.03-5.76-1.92,15.25-5.76,26.11-9.53,42.23-13.43Z"/>
    <path class="cls-2" d="M488.08,238.43c-1.66,55.41.44,73.87-25.88,124.79-57.47,111.2-144.61,141.35-266.38,120.68l-3.38-7.48c1.42.27,2.63,1.51,3.84,1.92.16.05.64,2.61,2.7,1.89l4.98-5.73c.79,1.92-.42,4.31,3.18,5.47,3.31.98,7.07-.14,10.26.29,1.64,3.11,6.52,1.81,9.6,1.92,49.57,5.71,107.14-1.4,150.75-26.82,44.37-25.86,97.81-113.95,104.26-164.46,1.5-11.75,4.25-18.96-3.52-29.43,1.97.17,3.24.42,3.84-1.92,1.05-4.07-.63-11.48-.01-16.42.33-2.63,1.85-5.49,1.93-6.61l3.84,1.92Z"/>
    <path class="cls-14" d="M488.08,238.43l-3.84-1.92c2.38-34.3-16.85-86.69-39.33-113.26-6.24-7.38-35.32-35.95-45.16-29.8-2.25,1.41-5.94,10.59-5.91,13.56.09,7.47,11.64,15.22,15.24,21.34,9.81,16.7-1.15,29.91.18,45.77.6,7.2,5.99,11.1,6.03,19.19.08,17.52-13.64,20.06-17.56,32.53-2.03,6.47-.96,11.47-2.24,16.96-1.64,7.02-9.96,12.67-5.09,20.36,7.85,1.37,14.5-3.56,22.33-5.04,4.36-.82,8.83.08,12.79-.65,20.72-3.81,38.45-13.63,56.79,2.07-.6,2.34-1.87,2.09-3.84,1.92-5.41.97-8.36-4.32-12.88-5.37-9.47-2.21-11.91,2.14-18.9,3.35-11.14,1.94-24.93,2.39-35.93,4.39-7.3,1.32-20.06,11.44-24.94,1.02-5.15-10.98,1.72-14.54,3.5-22.47,1.46-6.51,1.36-15.26,3.69-21.26,3.56-9.19,15.58-12.72,16.47-25.91.63-9.28-5.69-14.81-5.97-23.07-.37-11.31,6.45-23.22,3.51-36-1.89-8.21-17.82-17.95-18.78-27.45-.73-7.23,5.16-13.52,7.68-19.97,2.72.18,5.36-.52,7.68-1.92,44.73,17.39,68.18,60.43,80.08,105.14,5.72,21.5,5.02,25.17,4.39,46.48Z"/>
    <path class="cls-14" d="M347.38,394.42c.64.8,5.74,15.12,5.82,16.09.07.88-3.23,14.98-3.7,15.63-.76,1.05-19.05,5.57-24.12,9.3-3.98,2.93-5.42,8.46-10.23,11.08-16.12,8.76-17.22-6.62-23.33-9.12-6.2-2.54-22.02.92-24.33-6.4-3.01-9.52,20.82-40.25,31.38-39.03,2.71.31,4.9,3.22,7.88,3.76,13.42,2.42,31.76-12.47,40.63-1.29ZM343.71,398.14c-4.36-6.32-22.78,3.83-31.29,3.58-5.68-.17-13.53-4.57-16.89-3.71-7.62,1.94-21.52,23.92-22.46,32.34,7.55-.07,18.4-1.07,24.35,4.44,5.09,4.71,1.78,12.93,13.54,7.54,5.38-2.47,9.08-9.61,14.1-12.76,8.08-5.07,22.82-4.24,22.74-17.46,0-.73-3.69-13.37-4.1-13.97Z"/>
    <path class="cls-14" d="M75.34,334.39c1.83,14.26,11.03,39.36,17.55,52.5,18.24,36.75,68.25,61.55,97.63,89.52-.52.26-1.38,3.57-2.81,3.5-1.96-.1-22.23-15.36-25.79-18.09-58.25-44.84-72.44-54.79-90.43-127.43h3.84Z"/>
    <path class="cls-14" d="M144.45,330.55c5.73-1.46,6.62-2.74,13.96-1.45,24.69,4.33,13.67,17.64,16.01,33.69,1.43,9.77,9.86,16.16,10.46,24.4.82,11.29-8.67,16.44-5.47,30.28,1.37,5.91,6.79,7.77,8.68,12.41,2.69,6.59.6,17.2,1.54,19.76.57,1.56,6.78,6.4,8.96,10.05,2.99,5.02,3.4,10.05,5.36,14.8l-4.98,5.73c-2.07.72-2.55-1.84-2.7-1.89,8.19,2.13-2.44-16.41-2.96-17.19-2.3-3.44-9.45-7.93-10.19-11.01s2.19-7.38,1.29-12.56c-1.23-7.05-9.23-11.9-10.72-20.14-2.7-14.83,6.36-20.18,5.47-30.27-.58-6.6-7.99-12.99-9.33-19.62-3.79-18.67,7.69-37.13-23.47-33.15,3.51-1.04,6.48-3.35,11.51-1.94v-1.88s-13.43-.02-13.43-.02Z"/>
    <path class="cls-2" d="M113.73,326.72c5.7,1.43,11.27,3.52,17.18,3.97.52,1.2-.07,2.55.09,3.71,5.25-.19,8.61-2.61,13.44-3.84l13.43.02v1.88c-5.03-1.41-8,.9-11.51,1.94-5.09,1.51-9.82,4.53-15.35,3.83-.17-1.25.17-2.61,0-3.83-4.67.17-11.79-1.85-15.84-3.93-2.1-1.08-1.28-3.63-1.44-3.75Z"/>
    <path class="cls-2" d="M100.29,322.88c.99,2.59,3.68,1.72,5.76,1.92.51,4.07.14,4.34-3.84,3.84l-3.84-1.92c-1.9-.73-4.85,1.56-3.84-3.84,1.86-.02,3.96-.21,5.76,0Z"/>
    <path class="cls-2" d="M90.7,322.88c.72,4.92-2.55,3.14-3.84,3.84l-1.92-3.82c1.9-.13,3.85.1,5.76-.02Z"/>
    <path class="cls-14" d="M79.18,330.55c-.82.48-1.66,2.5-3.84,1.92,0-1.28-.03-2.56.02-3.83l3.82,1.91Z"/>
    <path class="cls-14" d="M81.1,326.72c.21-.02,1.65-2.72,3.83-1.91v3.83c-.48.26-1.37-.25-1.91,0l-1.92-1.92Z"/>
    <path class="cls-14" d="M106.05,324.8c-2.08-.2-4.77.67-5.76-1.92,1.88.22,5.37-.95,5.76,1.92Z"/>
    <path class="cls-14" d="M435.05,367.72c-16.08,20.42-19.12,7.25-34.82,3.64-13.36-3.07-24.58,3.56-23.56-18.64.19-4.21,7.96-36.31,9.6-38.53.49-.66,9.46-9.68,10.07-10.03,5.65-3.29,11.02,3.42,13.59,3.01l31.29-11.07c25.89,6.43,5.63,25.37,1.74,38.32-2.78,9.28-1.12,22.9-3.21,29.48-.73,2.3-3.72,2.57-4.72,3.83ZM433.6,362.5c4.57-7.18.14-9.05.84-15.34.7-6.32,3.75-18.63,6.75-24.14,1.96-3.61,7.41-6.1,8.18-11.13.95-6.16-3.2-11.17-9.79-9.81-7.33,1.51-21.26,9.04-29.42,11.27-3.55.91-6.46-3.98-9.09-3.61-2.29.32-11.57,7.98-12.41,10.67-1.25,4.04-5.85,28.34-6.05,32.51-.78,16.05,9.17,10.62,19.22,12.99,12.45,2.93,19.98,15.13,31.77-3.42Z"/>
  </g>
  <path class="cls-14" d="M263.98,213.07c-4.74-6.37.55-36.84,10.39-39.42,16.04-4.21,38.56,23.89,30.83,38.65-5.71,10.91-13.51,4.57-21.96,3.97-5.98-.42-13.97,3.9-19.25-3.2ZM267.45,209.59c5.35,3.93,11.71.69,16.16,1.12,3.52.34,6.04,3.68,11.33,3.01,20.18-2.54-10.36-45.11-22.07-31.82-2.58,2.93-6.98,25.25-5.42,27.69Z"/>
  <ellipse class="cls-9" cx="206.98" cy="234.65" rx="38.81" ry="61.43"/>
  <ellipse class="cls-9" cx="342.6" cy="239.22" rx="34.01" ry="56.86"/>
</svg>