<?xml version="1.0" encoding="UTF-8"?>
<svg id="earth" xmlns="http://www.w3.org/2000/svg" viewBox="0 0 770.11 610.78">
  <defs>
    <style>
      .cls-1 {
        fill: #9bc86a;
      }

      .cls-2 {
        fill: #e6c1b5;
      }

      .cls-3 {
        fill: #eaecec;
      }

      .cls-4 {
        fill: #cbdaec;
      }

      .cls-5 {
        fill: #aac6e1;
      }

      .cls-6 {
        fill: #373232;
      }

      .cls-7 {
        fill: #444446;
      }

      .cls-8 {
        fill: #3c3533;
      }

      .cls-9 {
        fill: #463c3d;
      }

      .cls-10 {
        fill: #78a7b6;
      }

      .cls-11 {
        fill: #4e4e4f;
      }

      .cls-12 {
        fill: #747377;
      }

      .cls-13 {
        fill: #f1f1f2;
      }

      .cls-14 {
        fill: #90a78e;
      }

      .cls-15 {
        fill: #685a59;
      }

      .cls-16 {
        fill: #ae9f99;
      }

      .cls-17 {
        fill: #fdfefe;
      }
    </style>
  </defs>
  <g>
    <path class="cls-9" d="M560.39,186.21c20.96-4.27,20.92,27.64,1.51,28.14-16.93.44-16.22-25.14-1.51-28.14ZM555.63,206.43c5.64,5.52,15.49,1.23,15.01-8.12-.83-16.24-24.27-.93-15.01,8.12Z"/>
    <path class="cls-8" d="M548.02,220.7c0,5.92-4.8,10.71-10.71,10.71s-10.71-4.8-10.71-10.71,4.8-10.71,10.71-10.71,10.71,4.8,10.71,10.71ZM542.6,220.54c0-2.95-2.39-5.34-5.34-5.34s-5.34,2.39-5.34,5.34,2.39,5.34,5.34,5.34,5.34-2.39,5.34-5.34Z"/>
    <path class="cls-9" d="M519.18,232.02c0,4.06-3.29,7.35-7.35,7.35s-7.35-3.29-7.35-7.35,3.29-7.35,7.35-7.35,7.35,3.29,7.35,7.35ZM513.55,231.75c0-1.3-1.06-2.36-2.36-2.36s-2.36,1.06-2.36,2.36,1.06,2.36,2.36,2.36,2.36-1.06,2.36-2.36Z"/>
    <g>
      <path class="cls-13" d="M555.63,206.43c-9.27-9.05,14.18-24.36,15.01-8.12.48,9.35-9.36,13.64-15.01,8.12Z"/>
      <circle class="cls-3" cx="537.26" cy="220.54" r="5.34"/>
      <circle class="cls-5" cx="511.19" cy="231.75" r="2.36"/>
      <g>
        <path class="cls-8" d="M612.1,67.77c9.07-.38,19.6,3.32,27.13,8.23,3.06,2,6.26,7.53,9.1,8.19,6.73,1.57,17.5-3.53,31.15,1.3,43.39,15.35,47.1,88.43-5.24,96.06-14.64,2.14-25.61-3.56-33.99-3.2-3.52.15-8.05,5.33-11.94,7.01-12,5.19-32.03,7.1-43.88.89-4.31-2.26-7.55-7.78-10.07-8.83-3.34-1.39-15.36-.99-23.01-4-41.84-16.46-35.98-83.78,5.23-90.39,8.24-1.32,20.07,1.79,24.19,1,4.85-.93,13.33-15.52,31.33-16.27h0ZM632.94,175.62c1.49-1.06,1.75-5.45,5.34-5.09,24.13,13.2,64.11,4.92,67.83-25.99,3.01-25.02-8.8-51.15-35.64-55.76-8.42-1.45-19.91,2.27-24,1.18-2.67-.71-9.73-9.4-14.96-11.98-10.97-5.41-21.84-5.88-33.11-.96-6.21,2.71-12.87,12.21-15.87,12.91-3.49.81-16.72-2.51-24.33-1.44-33.32,4.69-40.04,54.58-13.56,74.43,14.7,11.02,21.39,4.25,32.22,7.96,2.89.99,4.05,5.97,7.03,8.27,12.34,9.55,36.99,5.05,49.05-3.54h0Z"/>
        <path class="cls-17" d="M632.94,175.62c-12.06,8.59-36.71,13.09-49.05,3.54-2.98-2.31-4.14-7.28-7.03-8.27-10.83-3.72-17.52,3.06-32.22-7.96-26.48-19.85-19.76-69.74,13.56-74.43,7.61-1.07,20.84,2.25,24.33,1.44,3-.7,9.66-10.2,15.87-12.91,11.28-4.92,22.14-4.45,33.11.96,5.23,2.58,12.3,11.27,14.96,11.98,4.09,1.09,15.58-2.63,24-1.18,26.83,4.61,38.64,30.74,35.64,55.76-3.72,30.91-43.7,39.19-67.83,25.99-3.59-.36-3.85,4.02-5.34,5.09h0ZM601.39,146c.76-1.23,21.63-10.06,25.56-13.64,17.05-15.53-27.05-40.47-41.73-36.06-5.81,1.75-4.54,8.37-6.72,12.48-7.42,14.03-16.32,27.29-19.16,43.38,8.58,15.22,19.49-1.85,28.99,1.43,3.48,1.2,3.12,7.27,7.62,7.14,9.21-.28,3.08-10.86,5.44-14.73ZM658.16,100.26c-5.21.26-19,2.5-20.45,8.5,2.81,10.93,2.94,47.8,9.14,55.26,3.78,4.55,25.74,4.63,29.72-1.19,3.42-5.01,10.26-50.76,8.43-56.09-5.55-5.47-19.23-6.86-26.84-6.49h0Z"/>
        <path class="cls-6" d="M601.39,146c-2.37,3.86,3.76,14.45-5.44,14.73-4.5.14-4.13-5.93-7.62-7.14-9.5-3.28-20.41,13.79-28.99-1.43,2.84-16.08,11.73-29.35,19.16-43.38,2.17-4.11.91-10.73,6.72-12.48,14.68-4.41,58.78,20.53,41.73,36.06-3.93,3.58-24.8,12.4-25.56,13.64ZM585.79,103.6c9.22,2.28,18.46,5.28,25.81,11.51,3.6,3.05,4.72,12.06,10.52,4.75-4.37-10.32-19.44-16.66-29.87-17.94-2.06-.25-6.94-1.66-6.46,1.68h0ZM580.03,117.01c-2.84,5.01-12.65,25.13-13.41,29.64-.19,1.11-.5,3.15.97,2.87,3.02-3.86,6.26-4.45,10.53-5.73,1.93-.58,5.43.47,7.65,0,1.5-.32,3.46-2.72,4.79-3.79l4.76,5.69c-.63-8.95,2.36-11.56,9.33-15.71,1.82-.39,7.61-1.1,7.9-1.52.08-10.3-10.88-14.25-19.13-17.19-2.03-.72-4.84-4.3-7.74-2.92-2.97,2.2-3.95,5.65-5.65,8.66ZM625.95,124.68c-3.62-.63-6.37,2.23-5.72,5.72l5.72-5.72Z"/>
        <path class="cls-6" d="M658.16,100.26c7.61-.38,21.29,1.01,26.84,6.49,1.83,5.32-5.01,51.08-8.43,56.09-3.98,5.82-25.94,5.74-29.72,1.19-6.2-7.47-6.33-44.33-9.14-55.26,1.45-6.01,15.24-8.24,20.45-8.5h0ZM677.6,107.47c-8.46-1.72-24.51-5.5-30.6,1.87,7.12,2.19,14.61,2.54,22.02,1.94,2.23-.18,8.57-.58,8.58-3.81h0ZM679.52,113.19c-11.76,2.95-24.59,2.95-36.33,0l1.91,19.12,32.33-.2,2.09-18.92ZM673.78,136.16c-6.03.12-12.14-.24-18.19-.02-2.31.09-7.12-1.44-6.66,1.89,5.46,1.88,10.46,2.27,16.24,1.96,2.12-.11,8.63-.67,8.61-3.83ZM675.7,143.81c-10.05,2.45-18.64,2.47-28.69,0l4.02,17,20.99-.63,3.69-16.38h-.01Z"/>
        <path class="cls-2" d="M593.43,111.27c8.25,2.94,19.2,6.89,19.13,17.19-.29.42-6.08,1.13-7.9,1.52,2.35-1.42,3.1-4.48,1.68-6.84s-4.49-3.1-6.84-1.68c-2.35,1.42-3.1,4.48-1.68,6.84s4.49,3.1,6.84,1.68c-6.97,4.16-9.96,6.76-9.33,15.71l-4.76-5.69c-1.33,1.07-3.29,3.48-4.79,3.79,1.9-16.03-13.91-15.43-7.65,0-4.28,1.27-7.51,1.87-10.53,5.73-1.47.28-1.15-1.76-.97-2.87.76-4.51,10.57-24.63,13.41-29.64h3.83v5.74c5.63.67,6.54.05,9.57-3.83.25-.32,1.45-.18,1.88-.94l-1.88-.97v-5.74h0Z"/>
        <path class="cls-1" d="M585.79,103.6c-.48-3.34,4.4-1.94,6.46-1.68,10.43,1.28,25.5,7.61,29.87,17.94-5.8,7.31-6.92-1.7-10.52-4.75-7.36-6.23-16.6-9.23-25.81-11.51h0Z"/>
        <path class="cls-15" d="M585.77,143.79c-2.22.47-5.72-.58-7.65,0-6.26-15.43,9.56-16.03,7.65,0Z"/>
        <path class="cls-16" d="M593.43,111.27v1.91l-7.57-1.8c-.53,1.19.18,2.77-.09,3.71-.08.29-1.77.91-1.91,1.91h-3.83c1.71-3.01,2.68-6.46,5.65-8.66,2.9-1.38,5.71,2.2,7.74,2.92h0Z"/>
        <path class="cls-15" d="M625.95,124.68l-5.72,5.72c-.65-3.49,2.1-6.35,5.72-5.72Z"/>
        <path class="cls-3" d="M679.52,113.19l-2.09,18.92-32.33.2-1.91-19.12c11.73,2.95,24.57,2.95,36.33,0Z"/>
        <path class="cls-10" d="M675.7,143.81l-3.69,16.38-20.99.63-4.02-17c10.05,2.46,18.64,2.45,28.69,0h.01Z"/>
        <path class="cls-4" d="M677.6,107.47c-.01,3.23-6.35,3.62-8.58,3.81-7.4.6-14.9.25-22.02-1.94,6.08-7.37,22.13-3.59,30.6-1.87h0Z"/>
        <path class="cls-10" d="M673.78,136.16c.03,3.17-6.48,3.72-8.61,3.83-5.79.31-10.78-.09-16.24-1.96-.46-3.33,4.35-1.8,6.66-1.89,6.05-.22,12.16.14,18.19.02Z"/>
        <circle class="cls-15" cx="602.07" cy="125.72" r="4.98"/>
        <path class="cls-15" d="M593.43,113.19v5.74c-3.02,3.88-3.93,4.5-9.56,3.83v-5.74c.13-1,1.82-1.62,1.9-1.91h0c.26-.94-.44-2.52.09-3.71l7.57,1.8h0Z"/>
        <path class="cls-16" d="M593.43,118.92v-1.91l1.88.97c-.43.77-1.63.62-1.88.94h0Z"/>
      </g>
    </g>
  </g>
  <g>
    <path class="cls-6" d="M183.96,532.13l1.91-3.83c2.2,1.28,3.99,2.79,5.74,3.83.42.25.41,2.52,2.83,1.92,1.31-.29.85-1.78,1-1.92,1.31-1.21,2.07-1.73,1.91-3.83h1.91c.77,1.89-.37,4.34,3.13,5.45,31,2.24,58.1,6.17,89.4,1.93,83.47-11.31,130.88-59.34,165.51-132.95,11.81-25.1,26.37-59.65,15.58-86.77.62-.61,1.48-1.18,1.91-1.91,1.99-3.42,3.37-17.37,3.83-22.96h1.91c12.99,70.09-25.06,143.26-70.85,194.12-52.2,57.97-135.98,63.7-208.93,54.03-10.65-1.41-10.49-4.01-16.8-7.11h.01Z"/>
    <path class="cls-6" d="M197.35,149.53l3.83,1.91c-12.79,4.77-49.01,23.44-59.11,31.77-6.32,5.22-5.57,12.72-7.86,19.88h-1.91l-2.84-7.64c-20.13,19.81-41.09,46.92-50.76,73.6-8.18,22.58-16.92,60.55-15.25,84.17.32,4.45,3.3,23.47,5.71,25.86,4.61,4.57,6.22,1.1,9.57,0,1.95-.64,3.72-1.35,5.74-1.91h5.74c1.87.05,3.98-.25,5.74,0,1.21,2.65,3.95,1.44,5.74,1.91-.55.73-1.23,1.31-1.91,1.91h-5.74c-11.27-1.95-9.89,1.21-19.13,3.83-.46.13-8.46.67-9.57,0-4.73-20.29-9.67-31.94-7.42-54.29,8.43-83.69,60.32-153.19,139.45-181.01h-.02Z"/>
    <path class="cls-8" d="M407.83,145.71l-3.83,1.91c-.79-.25-2.7-.04-3.83,0-2.21-4.05-6.24-3-9.57-3.83-19.47-4.82-37.44-9.91-57.4-13.39-7.33-1.28-7.66-1.74-15.31-1.91-1.27-.03-2.55,0-3.83,0-2.42-3.16-10.98-3.16-13.39,0-2.55.08-5.11-.12-7.65,0-2.09-3.89-7.81.3-11.48,0-1.45-.11-4.78-.33-5.74,0l-5.74,3.83c-1.62.35-3.9-.19-5.74,0-1.25.13-2.59-.16-3.83,0s-2.58-.15-3.83,0c-12.45,1.55-14.99,5.64-24.87,9.56-4.12,1.64-15.36,5.62-19.13,5.74-.3,0-2.49-1.97-5.74-1.91,39.55-17.02,83.86-26.47,127.22-21.02,21.11,2.65,55.05,11.52,73.69,21.02h0Z"/>
    <path class="cls-6" d="M212.66,147.62v1.91c-2.65.39-5.1,1.22-7.65,1.91-.61.17-1.35-.18-1.91,0v-3.83l1.91-1.91c.61-.09,1.29.01,1.91,0,3.25-.06,5.44,1.92,5.74,1.91h0Z"/>
    <path class="cls-11" d="M201.18,147.62h1.91v3.83c-.58.19-1.36-.21-1.91,0l-3.83-1.91c1-.35,2.03-1.45,3.83-1.91h0Z"/>
    <path class="cls-8" d="M205,145.71l-1.91,1.91h-1.91c.59-.15,1.65-1.6,3.83-1.91h-.01Z"/>
    <path class="cls-10" d="M333.2,130.4c19.97,3.48,37.93,8.57,57.4,13.39-2.49,6.45-8.38,12.61-7.65,19.91.87,8.78,16.77,18.91,18.72,27.36,2.94,12.71-3.87,24.63-3.5,35.88.27,8.23,6.58,13.75,5.95,22.99-.89,13.14-12.87,16.66-16.42,25.82-2.32,5.98-2.22,14.71-3.68,21.19-1.77,7.9-8.62,11.45-3.48,22.39,4.87,10.38,17.58.3,24.86-1.02,10.96-1.98,24.71-2.44,35.81-4.37,6.97-1.21,9.39-5.53,18.83-3.34,4.31,1,7.48,6.15,12.83,5.35,10.8,27.12-3.77,61.67-15.58,86.77-34.64,73.61-82.04,121.64-165.51,132.95-31.3,4.24-58.4.31-89.4-1.93-3.5-1.11-2.36-3.57-3.13-5.45-1.95-4.76-2.36-9.75-5.34-14.75-2.17-3.64-8.36-8.45-8.93-10.01-.93-2.56,1.15-13.13-1.53-19.7-1.89-4.63-7.29-6.48-8.66-12.37-3.19-13.8,6.27-18.93,5.45-30.19-.61-8.43-9.74-15.49-10.84-25.82-.83-7.78,3.61-17.41-.75-25.39-1.44-2.63-11.9-6.95-15.32-7.16-1.24-.07-2.59-.09-3.83,0-4.18-1.35-6.56.94-9.57,1.91-1.68.54-4.61,1.63-5.74,1.91-2.7.67-3.94,1.76-7.65,1.91-.14-1.02.58-2.78-.21-3.56l-11.27-2.18c-.28-2.02-.55-1.49-1.91-1.91-1-.31-2.66.25-3.83,0l-.99-1.87c-4.05-1.37-8.26-1.37-12.41-1.95-1.76-.25-3.87.05-5.74,0s.21-1.66-5.74,0c-2.02.57-3.79,1.27-5.74,1.91h-9.57c-2.41-2.39-5.39-21.41-5.71-25.86-1.68-23.62,7.06-61.59,15.25-84.17,9.67-26.68,30.63-53.8,50.76-73.6l2.84,7.64c-6.28,5.7-19.78,21.51-19.33,29.63.32,5.87,5.78,8.59,6.07,15.35.27,6.19-3.47,10.46-3.91,15.5-.77,9.02,7.45,19.55,17.14,15.06,1.89-.87,18.8-18.44,19.7-20.62,3.1-7.52-3.98-12.37,5.18-23.38,12.02-14.46,30.17-8.38,35.55-31.42,3.41-14.64,1.12-20.92,10.66-35.25,3.22-4.84,14.63-9.62,9.31-18.43v-1.91c3.78-.12,15.01-4.1,19.13-5.74l15.22,24c9.01,8.58,19.76,3.89,27.72,14.37,2.47,3.25,3.28,8.38,5.48,10.8,10.58,11.64,35.03-.16,33.8-15.45-.79-9.86-8.36-11.29-2.79-24.15,3.92-9.06,13.21-10.44,14.41-18.03l7.58-3.01h.01ZM259.18,267.55c5.39,7.23,12.73,2.47,17.57,2.89,8.81.76,18.12,6.74,23.51-3.66,9.73-18.8-24.63-49.73-36.05-35.54-4.45,5.53-9.12,30.82-5.03,36.32h0ZM185.87,331.27c1.98,1.02,2.54,3.55,6.72,3.77,3.52.18,13.66-2.29,16.96-4.01,18.58-9.69,27.52-70.36,16.51-86.81-9.6-14.34-29.91-9.85-39.11,3-10.27,14.35-13.01,56.27-10.75,73.62,1.06,8.09,4.05,7.52,9.66,10.42h.01ZM361.9,279.62c.03-.35,1.8-2.15,1.99-4.63.42-5.56-.2-11.36-.16-16.94-2.66-3.34-5.89-4.99-9.49-7.13-.47-.28-.88-2.85-3.2-3.52-28.92-8.3-43.37,59.88-36.51,78.63,6.87,18.78,41.95,12.73,45.33-9.23,1.58-10.26,1.05-25.72,2.04-37.18ZM429.59,421.87c.99-1.26,3.97-1.53,4.7-3.82,2.08-6.56.42-20.14,3.2-29.39,3.84-12.8,24.07-31.79-1.74-38.19l-31.21,11.1c-4.04.67-4.53-7.24-11.49-4.19-.69.3-10.59,9.37-11.19,10.1-2.61,3.19-9.7,32.09-10.22,37.67-.61,6.61,1.5,17.67,8.88,19.57,3.32.86,6.65-1.44,10.22-.86,16.73,2.72,21.5,20.04,38.86-2h-.01ZM298.75,402.04c2.53-10.14-18.15-28.49-26.26-30.24-5.87-1.27-18.13,1.7-24.01,3.9s-21.53,10.29-17.64,16.8c5.4.47,9.63-6.59,15.51-9.37,11.44-5.4,21.39-4.2,32.38,1.64,9.3,4.95,11.04,13.86,20.02,17.27h0ZM342.21,448.49c-8.94-11.29-22.88.58-30.97,1.5-8.84,1-12.04-3.51-17.4-3.93-11.43-.9-32.04,26.83-31.57,38.87,6.26,8.1,17.06,3.18,23.74,5.42,3.59,1.2,4.98,9.18,10.26,10.76,16.19,4.86,15.97-5.86,24-11.75,5.05-3.71,23.28-8.22,24.04-9.26.47-.65,3.76-14.69,3.69-15.57-.08-.97-5.16-15.23-5.8-16.03h.01Z"/>
    <path class="cls-10" d="M113.16,384.83c-.24-.4.16-1.27,0-1.91h1.91c.19,1.41-.5,2.09-1.91,1.91Z"/>
    <g>
      <path class="cls-11" d="M407.83,145.71c41.79,21.3,70.93,80.27,76.34,125.5.59,4.9,2.6,21.32-3.63,19.88h-1.91c2.69-32.74-16.86-86.31-38.22-111.95-5.14-6.17-30.18-29.53-36.4-31.52l3.83-1.91h0Z"/>
      <path class="cls-14" d="M400.17,147.62c1.13-.04,3.04-.25,3.83,0,6.22,1.99,31.26,25.35,36.4,31.52,21.36,25.65,40.91,79.22,38.22,111.95-.46,5.58-1.84,19.54-3.83,22.96-4.67-4.72-13.37-9.64-20.1-9.61-4.79.02-8.9,2.97-13.53,3.72-10.91,1.79-25.26,2.29-35.76,4.42-4.62.94-17.27,8.75-20.72,4.15-4.29-5.73,4.17-13.69,5.49-19.37,1.43-6.13,0-11.15,2.75-18.3,4.32-11.27,16.01-13.46,16.9-29.16.55-9.68-5.51-13.61-5.97-22.85-.79-15.68,9.46-27.42-.13-43.75-4.76-8.1-16.81-13.55-14.65-24.67,1.25-6.44,4.4-10.77,11.11-11h-.01Z"/>
      <path class="cls-11" d="M400.17,147.62c-6.71.23-9.86,4.56-11.11,11-2.15,11.12,9.9,16.57,14.65,24.67,9.59,16.34-.66,28.07.13,43.75.47,9.25,6.52,13.17,5.97,22.85-.89,15.7-12.58,17.9-16.9,29.16-2.74,7.15-1.31,12.16-2.75,18.3-1.33,5.68-9.78,13.64-5.49,19.37,3.45,4.61,16.1-3.21,20.72-4.15,10.5-2.13,24.85-2.63,35.76-4.42,4.64-.76,8.74-3.7,13.53-3.72,6.73-.03,15.43,4.89,20.1,9.61-.43.74-1.3,1.31-1.91,1.91-5.36.8-8.52-4.35-12.83-5.35-9.44-2.19-11.86,2.13-18.83,3.34-11.1,1.93-24.85,2.39-35.81,4.37-7.28,1.32-19.99,11.4-24.86,1.02-5.14-10.94,1.71-14.5,3.48-22.39,1.46-6.49,1.36-15.21,3.68-21.19,3.54-9.16,15.52-12.68,16.42-25.82.63-9.25-5.68-14.76-5.95-22.99-.37-11.26,6.44-23.17,3.5-35.88-1.95-8.45-17.85-18.58-18.72-27.36-.73-7.29,5.16-13.46,7.65-19.91,3.33.82,7.36-.22,9.57,3.83h0Z"/>
    </g>
    <path class="cls-14" d="M205,151.45c9.95-.39-3.45,9.68-4.67,11.59-10.6,16.65-9.06,22.81-13.4,40.16-4.3,17.21-22.8,15.06-33.62,27.61-9.51,11.03-4.2,20.26-6.58,25.78-1.28,2.97-17.19,17.98-20.77,17.09-10.77-2.68-.9-18.87-1.2-25.6-.3-6.61-6.25-11.26-5.86-17.11.47-7.05,11.29-15.8,14.25-22.3,1-2.19.58-4.1,1.05-5.57,2.29-7.16,1.54-14.66,7.86-19.88,10.1-8.33,46.31-27,59.11-31.77.55-.21,1.33.19,1.91,0s1.31.17,1.91,0h.01Z"/>
    <path class="cls-11" d="M212.66,149.53c5.33,8.82-6.09,13.6-9.31,18.43-9.54,14.33-7.25,20.61-10.66,35.25-5.37,23.04-23.53,16.96-35.55,31.42-9.16,11.02-2.09,15.86-5.18,23.38-.9,2.18-17.81,19.74-19.7,20.62-9.68,4.49-17.91-6.04-17.14-15.06.43-5.04,4.17-9.31,3.91-15.5-.29-6.76-5.75-9.48-6.07-15.35-.45-8.13,13.05-23.94,19.33-29.63h1.91c-.47,1.47-.05,3.37-1.05,5.57-2.96,6.5-13.78,15.25-14.25,22.3-.39,5.86,5.57,10.5,5.86,17.11.3,6.73-9.57,22.92,1.2,25.6,3.57.89,19.48-14.13,20.77-17.09,2.38-5.52-2.93-14.75,6.58-25.78,10.82-12.54,29.31-10.39,33.62-27.61,4.34-17.36,2.81-23.51,13.4-40.16,1.22-1.91,14.62-11.99,4.67-11.59,2.55-.7,5-1.52,7.65-1.91h0Z"/>
    <path class="cls-11" d="M90.2,377.18h-5.74c5.95-1.66,3.8-.05,5.74,0Z"/>
    <path class="cls-14" d="M281.54,128.49c5.54.41,5.85.27,11.48,0,2.54-.12,5.11.08,7.65,0,4.44-.14,8.94,0,13.39,0,1.27,0,2.55-.03,3.83,0,4.46,2.01.83,5.51-.88,7.74-5.12,6.69-13.15,13.01-14.03,22.37-.93,9.83,12.28,18.34.59,27.31-20.58,15.79-19.8-8.26-30.63-15.35-6.36-4.16-12.95-2.78-18.91-5.96s-16.11-18.28-11.8-24.72c3.14-4.69,15.1-.37,14.44-7.57,1.24-.15,2.59.16,3.83,0l2.85,1.9.98-1.9c1.84-.19,4.12.35,5.74,0,4.82-1.03,5.41-3.72,5.74-3.83.96-.33,4.29-.11,5.74,0h-.01Z"/>
    <path class="cls-11" d="M333.2,130.4l-7.58,3.01c-1.2,7.59-10.49,8.97-14.41,18.03-5.57,12.86,2,14.29,2.79,24.15,1.23,15.3-23.21,27.1-33.8,15.45-2.2-2.42-3.01-7.55-5.48-10.8-7.96-10.47-18.7-5.78-27.72-14.37l-15.22-24c9.88-3.92,12.43-8.01,24.87-9.56.66,7.2-11.3,2.88-14.44,7.57-4.3,6.43,6.11,21.68,11.8,24.72s12.55,1.8,18.91,5.96c10.83,7.09,10.05,31.14,30.63,15.35,11.69-8.97-1.51-17.48-.59-27.31s8.91-15.68,14.03-22.37c1.71-2.24,5.34-5.73.88-7.74,7.64.17,7.97.64,15.31,1.91h.02Z"/>
    <path class="cls-11" d="M293.02,128.49c-5.63.27-5.94.41-11.48,0,3.67.3,9.39-3.89,11.48,0Z"/>
    <path class="cls-11" d="M314.07,128.49c-4.45,0-8.95-.14-13.39,0,2.42-3.16,10.98-3.16,13.39,0Z"/>
    <path class="cls-11" d="M270.06,132.32l5.74-3.83c-.33.11-.92,2.8-5.74,3.83Z"/>
    <path class="cls-11" d="M264.32,132.32l-.98,1.9-2.85-1.9c1.24-.16,2.58.13,3.83,0h0Z"/>
    <path class="cls-7" d="M354.25,250.92h-1.91c-18.34.43-9.29,44.96,7.65,28.69h1.91c-.99,11.45-.46,26.92-2.04,37.18-3.39,21.96-38.46,28.01-45.33,9.23-6.86-18.75,7.59-86.93,36.51-78.63,2.33.67,2.73,3.24,3.2,3.52h0ZM331.11,306.58c-6.16-4.22-19.9,9.85-10.19,16.88,12.06,8.72,14.13-14.18,10.19-16.88Z"/>
    <path class="cls-11" d="M342.21,448.49c.63.8,5.72,15.07,5.8,16.03.07.88-3.22,14.93-3.69,15.57-.76,1.04-18.99,5.56-24.04,9.26-8.03,5.9-7.81,16.61-24,11.75-5.29-1.59-6.68-9.56-10.26-10.76-6.68-2.24-17.49,2.68-23.74-5.42-.47-12.04,20.14-39.77,31.57-38.87,5.36.42,8.56,4.93,17.4,3.93,8.09-.91,22.03-12.79,30.97-1.5h-.01ZM338.56,452.2c-11.18-6.35-19.01,3.91-31.19,3.57-5.67-.16-13.47-4.55-16.83-3.7-1.12.29-15.94,14.42-16.76,15.87-2.36,4.18-2.89,11.49-5.62,16.36,6.68-.14,19.44-.83,24.35,4.34,1.85,1.94,1.84,6.63,4.29,8.19,8.47,5.39,17.41-9.6,23.17-13.32,15.33-9.88,28.95-3.52,18.58-31.32h.01Z"/>
    <path class="cls-11" d="M259.18,267.55c-4.09-5.49.58-30.78,5.03-36.32,11.42-14.19,45.78,16.74,36.05,35.54-5.39,10.41-14.7,4.42-23.51,3.66-4.84-.42-12.18,4.35-17.57-2.89h0ZM262.64,264.08l29.02,3.75c16.18-4.64-8.18-37.28-20.24-33.86-7.4,2.09-8.63,23.33-8.77,30.12h-.01Z"/>
    <path class="cls-11" d="M298.75,402.04c-8.98-3.41-10.71-12.32-20.02-17.27-10.99-5.84-20.94-7.04-32.38-1.64-5.88,2.77-10.11,9.84-15.51,9.37-3.89-6.51,11.93-14.66,17.64-16.8s18.13-5.17,24.01-3.9c8.11,1.76,28.79,20.1,26.26,30.24h0Z"/>
    <path class="cls-12" d="M354.25,250.92c3.59,2.13,6.83,3.79,9.49,7.13-.05,5.58.58,11.38.16,16.94-.19,2.48-1.96,4.28-1.99,4.63h-1.91c3.81-10.95,2.71-22.31-7.65-28.69h1.91,0Z"/>
    <path class="cls-11" d="M149.51,382.92c-.91.07-4.75,3.47-7.65,1.91h-1.91c3.01-.97,5.39-3.26,9.57-1.91h-.01Z"/>
    <g>
      <path class="cls-11" d="M74.89,384.83c-6.7,2.68-.22,18.95,1.42,24.41,11.04,36.71,20.99,48.8,49.33,73.11,17.19,14.75,41.04,34.75,60.23,45.96l-1.91,3.83c-24.78-12.19-82.86-58.71-96.66-82.22-12.16-20.72-16.61-42.11-21.97-65.08,1.1.67,9.11.13,9.57,0h-.01Z"/>
      <path class="cls-14" d="M94.03,381c.26.05,1.1,1.94,2.93,1.99,1.88.44,2.14-1.41,2.81-1.99s1.36-1.18,1.91-1.91c1.81.48,3.51,1.44,5.74,1.91v1.91c-.43-.43-1.96.29-1.91.96.14,2.09,2.81-.06,1.91-.96l1.91-1.91c1.17.25,2.83-.31,3.83,0v1.91c.16.64-.24,1.51,0,1.91,2.63,4.37,8.97,4.01,13.39,3.83.17,1.21-.18,2.58,0,3.82l4.78.04,2.87-5.78c1.13-.28,4.06-1.37,5.74-1.91h1.91v1.91c1.19,3.47,6.54,1.42,9.57,1.91,1.21.2,2.61-.18,3.83,0,14.41,2.18,7.96,23,10,33.04,1.23,6.06,8.15,12.62,9.08,17.76,2.22,12.38-11.41,19.73-3.32,37.7,2.02,4.49,7.76,8.47,8.78,14.34.9,5.17-2.02,9.43-1.29,12.52.97,4.08,16.64,14.55,15.35,24.02l3.5.27c.16,2.1-.61,2.61-1.91,3.83h-3.83c-1.75-1.04-3.54-2.54-5.74-3.83-19.19-11.21-43.03-31.21-60.23-45.96-28.35-24.31-38.29-36.4-49.33-73.11-1.64-5.46-8.12-21.73-1.42-24.41,9.25-2.61,7.86-5.78,19.13-3.83v.02Z"/>
      <path class="cls-11" d="M153.34,382.92c3.42.2,13.88,4.53,15.32,7.16,4.36,7.98-.09,17.61.75,25.39,1.11,10.33,10.23,17.39,10.84,25.82.82,11.26-8.64,16.39-5.45,30.19,1.36,5.89,6.77,7.74,8.66,12.37,2.68,6.57.6,17.14,1.53,19.7.57,1.56,6.76,6.38,8.93,10.01,2.98,5,3.4,9.99,5.34,14.75h-1.91l-3.5-.27c1.29-9.47-14.38-19.94-15.35-24.02-.74-3.09,2.19-7.36,1.29-12.52-1.02-5.87-6.76-9.84-8.78-14.34-8.09-17.97,5.54-25.32,3.32-37.7-.92-5.14-7.85-11.7-9.08-17.76-2.04-10.05,4.41-30.86-10-33.04l1.41-3.46-3.33-2.28h.01Z"/>
      <path class="cls-11" d="M195.44,532.13c-.15.14.31,1.62-1,1.92-2.42.6-2.4-1.67-2.83-1.92h3.83Z"/>
      <path class="cls-11" d="M78.72,379.09c-3.34,1.1-4.96,4.57-9.57,0h9.57Z"/>
      <path class="cls-11" d="M109.33,381c-.61-.13-1.3.13-1.91,0-2.23-.47-3.93-1.43-5.74-1.91s-4.53.74-5.74-1.91c4.14.59,8.36.58,12.41,1.95l.99,1.87h-.01Z"/>
      <path class="cls-11" d="M99.77,381c-.66.58-.93,2.43-2.81,1.99-1.83-.05-2.67-1.95-2.93-1.99h5.74Z"/>
      <path class="cls-6" d="M115.07,382.92l11.27,2.18c.79.78.07,2.54.21,3.56,3.71-.15,4.95-1.24,7.65-1.91l-2.87,5.78-4.78-.04c-.18-1.24.16-2.61,0-3.82-4.42.18-10.77.54-13.39-3.83,1.41.18,2.11-.5,1.91-1.91h0Z"/>
      <path class="cls-6" d="M115.07,382.92h-1.91v-1.91c1.36.42,1.64-.11,1.91,1.91Z"/>
      <path class="cls-6" d="M153.34,382.92l3.33,2.28-1.41,3.46c-1.22-.18-2.62.2-3.83,0-1.63-3.1-6.5-1.8-9.57-1.91v-1.91c2.9,1.56,6.74-1.84,7.65-1.91,1.23-.09,2.59-.07,3.83,0h0Z"/>
      <path class="cls-11" d="M151.43,388.66c-3.02-.49-8.37,1.56-9.57-1.91,3.07.11,7.93-1.19,9.57,1.91Z"/>
      <path class="cls-6" d="M107.42,382.92v-1.91c.61.13,1.3-.13,1.91,0l-1.91,1.91Z"/>
      <path class="cls-11" d="M107.42,382.92c.9.9-1.77,3.05-1.91.96-.04-.66,1.48-1.39,1.91-.96Z"/>
    </g>
    <g>
      <path class="cls-7" d="M185.87,331.27l7.63-.94c6.01-3.16,5.44-16.04-1.34-17.92l-6.3.64c-6.25,4.78-4.74,12.79,0,18.23-5.61-2.9-8.61-2.34-9.66-10.42-2.26-17.36.48-59.28,10.75-73.62,9.2-12.85,29.51-17.34,39.11-3,11.01,16.45,2.07,77.12-16.51,86.81-3.29,1.72-13.44,4.19-16.96,4.01-4.18-.22-4.74-2.75-6.72-3.77v-.02ZM206.39,241.74c-20.28,4.5-.98,32.64,13.92,27.41,8.4-4.19,5.09-31.63-13.92-27.41Z"/>
      <path class="cls-13" d="M206.39,241.74c19.01-4.22,22.32,23.23,13.92,27.41-14.9,5.22-34.2-22.91-13.92-27.41Z"/>
      <path class="cls-13" d="M185.87,331.27c-4.75-5.43-6.26-13.45,0-18.23l6.3-.64c6.78,1.88,7.34,14.76,1.34,17.92l-7.63.94h-.01Z"/>
    </g>
    <path class="cls-3" d="M352.34,250.92c10.36,6.38,11.46,17.75,7.65,28.69-16.94,16.26-25.99-28.26-7.65-28.69Z"/>
    <path class="cls-3" d="M331.11,306.58c3.94,2.7,1.87,25.6-10.19,16.88-9.71-7.03,4.03-21.1,10.19-16.88Z"/>
    <g>
      <path class="cls-11" d="M429.59,421.87c-17.35,22.04-22.13,4.71-38.86,2-3.57-.58-6.9,1.71-10.22.86-7.38-1.9-9.49-12.96-8.88-19.57.52-5.58,7.61-34.48,10.22-37.67.6-.73,10.5-9.79,11.19-10.1,6.96-3.05,7.45,4.86,11.49,4.19l31.21-11.1c25.81,6.4,5.58,25.39,1.74,38.19-2.77,9.25-1.11,22.82-3.2,29.39-.73,2.29-3.71,2.56-4.7,3.82h.01ZM394.47,361.88c-.46,6.52-9,6.86-11.07,12.89-1.7,4.98-6.63,34.94-5.38,38.83,2.84,8.83,10.26,4.42,16.93,6.1,12.28,3.09,16.45,13.34,29.2,1.56,10.36-9.58,3.78-10.98,4.83-19.87.76-6.39,3.7-18.5,6.72-24.06,2.42-4.45,15.05-13.85,4.65-20.3-5.43-3.37-30.08,10.67-37.38,10.56-3.84-.06-7.31-6.62-8.52-5.71h.02Z"/>
      <path class="cls-14" d="M394.47,361.88c1.2-.91,4.68,5.65,8.52,5.71,7.3.11,31.95-13.93,37.38-10.56,10.4,6.45-2.23,15.85-4.65,20.3-3.02,5.56-5.97,17.66-6.72,24.06-1.05,8.89,5.53,10.29-4.83,19.87-12.75,11.79-16.93,1.53-29.2-1.56-6.67-1.68-14.09,2.73-16.93-6.1-1.25-3.89,3.68-33.85,5.38-38.83,2.07-6.03,10.6-6.37,11.07-12.89h-.02Z"/>
    </g>
    <path class="cls-14" d="M338.56,452.2c10.36,27.8-3.25,21.43-18.58,31.32-5.76,3.72-14.7,18.71-23.17,13.32-2.46-1.56-2.45-6.25-4.29-8.19-4.92-5.17-17.67-4.48-24.35-4.34,2.73-4.87,3.26-12.17,5.62-16.36.82-1.45,15.64-15.59,16.76-15.87,3.36-.86,11.16,3.54,16.83,3.7,12.17.35,20-9.92,31.19-3.57h-.01Z"/>
    <path class="cls-14" d="M262.64,264.08c.14-6.79,1.38-28.03,8.77-30.12,12.07-3.41,36.42,29.23,20.24,33.86l-29.02-3.75h.01Z"/>
  </g>
</svg>