<?xml version="1.0" encoding="UTF-8"?>
<svg id="Layer_1" data-name="Layer 1" xmlns="http://www.w3.org/2000/svg" viewBox="0 0 263.81 127.31">
  <defs>
    <style>
      .cls-1 {
        fill: #eef0f0;
      }

      .cls-2 {
        fill: #f1f2f2;
      }

      .cls-3 {
        fill: #444446;
      }

      .cls-4 {
        fill: #706b6c;
      }
    </style>
  </defs>
  <path class="cls-3" d="M216.68,28.06c-2.91-.73-3.88.78-5.76,1.92-13.06,7.87-3.89,40.68,11.52,26.87h1.92c-1.12,11.87-.57,26.33-2.1,37.25-2.49,17.82-27.19,26.62-40.62,16.53-13.63-10.24-.83-61.09,7.35-74.74,3.89-6.5,15.52-12.27,22.91-11.68,3.98.31,3.57,2.83,4.78,3.86ZM193.48,83.89c-16.24-2.34-19.55,18.54-3.05,19.14,5.58-5.69,6.47-11.92,3.05-19.14Z"/>
  <path class="cls-2" d="M218.6,29.98c.62.49,1.24,1.31,1.92,1.92,2.61,8.7,5.92,15.89,1.92,24.95-15.41,13.81-24.58-19-11.52-26.87h7.68Z"/>
  <path class="cls-4" d="M224.36,56.85h-1.92c4-9.06.69-16.25-1.92-24.95,1.06.95,4.72-1.04,5.77,4.77-.15,5.14.4,10.4.06,15.53-.17,2.51-1.96,4.26-1.99,4.65Z"/>
  <path class="cls-3" d="M47.75,108.67l7.66-.95c6.03-3.17,5.46-16.09-1.34-17.98l-6.32.64c-6.27,4.8-4.75,12.83,0,18.28-5.63-2.91-8.64-2.35-9.7-10.46-2.24-17.13.69-59.78,10.78-73.86,8.79-12.27,26.14-16.94,37.35-4.96,14.22,15.19,4.11,79.25-14.68,89.05-3.31,1.72-13.48,4.21-17.01,4.02-4.2-.22-4.75-2.75-6.74-3.78ZM81.82,20.89c-5.5-5.22-21.8-2.2-22.61,6.29-1.44,15.01,27.24,30.72,28.3,9.23.13-2.66-4-13.92-5.68-15.51Z"/>
  <path class="cls-1" d="M81.82,20.89c1.68,1.59,5.81,12.85,5.68,15.51-1.06,21.49-29.74,5.78-28.3-9.23.81-8.48,17.11-11.51,22.61-6.29Z"/>
  <path class="cls-2" d="M47.75,108.67c-4.76-5.45-6.28-13.49,0-18.28l6.32-.64c6.8,1.88,7.37,14.81,1.34,17.98l-7.66.95Z"/>
  <path class="cls-1" d="M193.48,83.89c3.42,7.21,2.54,13.44-3.05,19.14-16.5-.59-13.19-21.47,3.05-19.14Z"/>
</svg>