<?xml version="1.0" encoding="UTF-8"?>
<svg id="flame" xmlns="http://www.w3.org/2000/svg" viewBox="0 0 282.88 248.68">
  <defs>
    <style>
      .cls-1 {
        fill: #e4eef6;
      }

      .cls-2 {
        fill: #efe642;
      }

      .cls-3 {
        fill: #eaecec;
      }

      .cls-4 {
        fill: #cbdaec;
      }

      .cls-5 {
        fill: #373232;
      }

      .cls-6 {
        fill: #e9c9c3;
      }

      .cls-7 {
        fill: #3c3533;
      }

      .cls-8 {
        fill: #463c3d;
      }

      .cls-9 {
        fill: #685a59;
      }
    </style>
  </defs>
  <path class="cls-5" d="M184.94,91.56c16.35,1.92,7.35-33.77,25.92-23.04,13.05,7.55,5.58,21.55,4.71,31.68-1.04,12.07,1.74,28.23-7.64,38.28-7.93,8.51-24.07,4.98-25.04,21.04-.66,11.04,5.38,15.02-2.83,27.61-22.69,34.78-96.15,20.97-112.25-13.85-19.1-41.31,48.43-44.43,42.49-76.84-2.53-13.78-33.97-8.89-18.15-22.08,9.9-8.26,26.1-8.25,35.39.94,8.09,8,9.11,29.81,24.76,15.21,11-10.27-10.97-38.09,10.17-47.22,14.61-6.31,9.23,4.44,8.96,11.09-.54,13.58,24.27,17.74,13.51,37.17h0ZM167.71,47.6c-24.12,8.99,7.31,38.42-17.83,50.05-19.08,8.83-15.63-6.51-24.24-16.62-7.44-8.73-22.12-9.74-30.6-1.89,14.39,5.74,24.39,9.84,20.18,27.88-6.33,27.09-66.1,34.34-38.44,70.69,18.01,23.67,63.84,33.11,88.9,16.09,19.39-13.17,10.84-22.18,13.64-39.93,1.92-12.15,16.48-11.44,23.84-18.25,9.44-8.73,5.38-19.22,6.68-29.67,1.43-11.51,10.96-34.79-7.67-33.52.19,8.92-1.68,20.99-11.39,24.06-15.22,4.82-7.02-13.02-11.07-21.68-3.35-7.16-21.3-11.71-11.99-27.21h-.01Z"/>
  <path class="cls-2" d="M167.71,47.6c-9.31,15.5,8.64,20.05,11.99,27.21,4.05,8.66-4.16,26.5,11.07,21.68,9.71-3.07,11.59-15.14,11.39-24.06,18.63-1.27,9.11,22.01,7.67,33.52-1.3,10.45,2.76,20.94-6.68,29.67-7.36,6.81-21.92,6.1-23.84,18.25-2.8,17.74,5.75,26.76-13.64,39.93-25.06,17.02-70.89,7.58-88.9-16.09-27.66-36.35,32.12-43.6,38.44-70.69,4.21-18.04-5.79-22.14-20.18-27.88,8.48-7.85,23.16-6.83,30.6,1.89,8.61,10.11,5.16,25.44,24.24,16.62,25.14-11.63-6.29-41.06,17.83-50.05h.01ZM125.59,116.45c-10.53-1.19,4.84,20.21,7.67,17.2l-7.67-17.2ZM173.44,116.46c-2.73-2.73-15.42,13.47-15.28,17.21,2.62-1.43,17.58-14.91,15.28-17.21ZM120.34,139.86c-4.16,6.39-3.01,20.81,6.23,20.78,15.45-.06,14.71-32.96-6.23-20.78ZM169.62,158.53c4.61-5.14,4.39-12.9-.04-18.13-11.76-8.88-21.75,7.33-15.26,18.13.56.94.7,2.33,1.85,2.89,4.97,2.19,9.74,1.26,13.46-2.89h0ZM154.31,181.48c3.3-16.63-19.13-20.08-24.61-6.4l2.92,4.18,21.69,2.21h0Z"/>
  <path class="cls-5" d="M154.31,181.48l-21.69-2.21-2.92-4.18c5.48-13.69,27.91-10.24,24.61,6.4h0Z"/>
  <path class="cls-8" d="M120.34,139.86c20.94-12.19,21.68,20.71,6.23,20.78-9.24.04-10.39-14.39-6.23-20.78ZM133.07,141.52l-7.45-2.11v2.83l4.8,4.79h2.83l-.18-5.52h0ZM133.26,150.89h-9.55c-.52,8.89,4.6,9.84,9.54,2.83v-2.83h.01Z"/>
  <path class="cls-7" d="M169.62,158.53c-.63-.62-1.4-1.19-1.91-1.91-4.2-5.93-6.92-5.52-11.48,0-.57.7-1.24,1.31-1.91,1.91-6.49-10.8,3.5-27.01,15.26-18.13,4.44,5.23,4.65,12.99.04,18.13ZM169.61,148.96l-1.86-6.73-5.78-.9,1.86,6.73,5.78.9Z"/>
  <path class="cls-8" d="M125.59,116.45l7.67,17.2c-2.83,3.01-18.2-18.4-7.67-17.2Z"/>
  <path class="cls-8" d="M173.44,116.46c2.3,2.3-12.66,15.78-15.28,17.21-.14-3.74,12.55-19.93,15.28-17.21Z"/>
  <path class="cls-9" d="M167.71,156.62c.51.73,1.28,1.29,1.91,1.91-3.72,4.14-8.48,5.08-13.46,2.89-1.15-.55-1.29-1.95-1.85-2.89.67-.6,1.34-1.22,1.91-1.91,3.65,2.51,7.87,2.48,11.48,0h0Z"/>
  <path class="cls-3" d="M133.26,150.89v2.83c-4.95,7.01-10.06,6.06-9.55-2.83h9.55Z"/>
  <polygon class="cls-6" points="133.07 141.52 133.26 147.04 130.43 147.04 125.63 142.24 125.62 139.41 133.07 141.52"/>
  <polygon class="cls-4" points="169.61 148.96 163.84 148.06 161.98 141.32 167.75 142.23 169.61 148.96"/>
  <path class="cls-1" d="M167.71,156.62c-3.61,2.48-7.83,2.51-11.48,0,4.56-5.52,7.28-5.93,11.48,0Z"/>
</svg>