<?xml version="1.0" encoding="UTF-8"?>
<svg id="Layer_1" data-name="Layer 1" xmlns="http://www.w3.org/2000/svg" viewBox="0 0 256.54 168.56">
  <defs>
    <style>
      .cls-1 {
        fill: #9bc86a;
      }

      .cls-2 {
        fill: #3c3533;
      }
    </style>
  </defs>
  <polygon class="cls-1" points="241.98 41.45 232.38 64.39 226.74 55.6 22.85 134.92 14.56 120.5 219.79 45.48 220.94 35.7 241.98 41.45"/>
  <path class="cls-2" d="M224.6,60.88L22.39,140.92c-4.36.43-20.79-24.59-9.62-26.89L213.91,41.97l1.13-11.7c3-3.03,28.53,6.68,32.39,10.79,2.31,6.85-21.39,48.31-22.84,19.82h.01ZM241.84,41.77l-21.04-5.75-1.14,9.78L14.43,120.82l8.29,14.42L226.61,55.92l5.64,8.78,9.59-22.94h0Z"/>
</svg>