<?xml version="1.0" encoding="UTF-8"?>
<svg id="Layer_1" data-name="Layer 1" xmlns="http://www.w3.org/2000/svg" viewBox="0 0 128.64 124.03">
  <defs>
    <style>
      .cls-1 {
        fill: #3c3533;
      }

      .cls-1, .cls-2 {
        fill-rule: evenodd;
      }

      .cls-3 {
        fill: #1b1819;
      }

      .cls-2 {
        fill: #9bc86a;
      }
    </style>
  </defs>
  <path class="cls-3" d="M73.81,75.28l-10.91,9.33h-3.05l-5.15-4.59c-.85-4.33,1.84-2.42,4.47-3.1,4.82-1.26,9.63-2.12,14.64-1.64Z"/>
  <path class="cls-1" d="M95.25,57.68c1.87,3.34,8.94.32,7.38,14.77-1.19,10.94-7.34,6.35-11.17,8.97-1.73,1.19-3.14,10.5-10.55,13.51-4.78,1.94-6.89-.41-9.7.06-3.24.55-5.45,3.23-9.79,3.32-14.06.3-15.81-11.95-23.13-19.09-5.96-5.82-12.01-2.17-12.48-16.37-.44-13.58,4.86-10.49,8.62-16.44,2.96-4.68,2.74-11.11,8.04-14.91,4.09-2.94,28.71-6.71,33.79-5.57,10.26,2.3,6.76,9.92,9.55,14.39,1.02,1.62,6.53,2.7,8.09,6.26,1.71,3.91.04,8.75,1.35,11.1ZM96.76,75.26l-.82-11.6-10.64-1.8c-.82-.69,11.1-18.43-3.85-14.31.99,4.64,4.25,24.55-1.25,25.89-9.75,2.36-15.96-4.2-15.97-13.48-5.96-1.09-3.51,6.53-7.52,10.63-14.37,14.72-20.14-17.03-10.67-25.85,4.78,1.13,13.12,7.44,17.25,7.43.89,0,15.54-5.15,16-5.86,1.23-1.92,1.3-13.82-2.87-14.78-12.79-1.57-15.04-.08-18.87,11.17l-2.88-9.54c-14.82-1.46-10.95,12.43-14.3,17.28-1.91,2.77-10.15,1.33-10.33,10.43-.18,8.99,6.62,13.07,14.95,12.62-1.29,4.26,6.63,15.89,10.15,17.58,8.11,3.9,10.16-.69,16.06-1.83,2.28-.44,5.17,2.1,8.33.5,3.63-1.84,8.76-11.93,7.69-16.4l9.54,1.92h0ZM77.65,68.56l-.02-16.24c-20.84,2.14-.89,23.69.02,16.24ZM54.39,67.32c4.2-8.41,3.3-16.11-7.35-16.92v17.22l7.35-.3Z"/>
  <path class="cls-2" d="M95.94,63.66l.82,11.6-9.54-1.92c1.07,4.47-4.06,14.56-7.69,16.4-3.16,1.6-6.05-.94-8.33-.5-5.9,1.14-7.95,5.73-16.06,1.83-3.52-1.69-11.44-13.32-10.15-17.58-8.33.45-15.13-3.63-14.95-12.62.18-9.1,8.42-7.66,10.33-10.43,3.35-4.85-.52-18.74,14.3-17.28l2.88,9.54c3.83-11.25,6.08-12.74,18.87-11.17,4.17.96,4.1,12.86,2.87,14.78-.46.71-15.11,5.86-16,5.86-4.13,0-12.47-6.3-17.25-7.43-9.47,8.82-3.7,40.57,10.67,25.85,4.01-4.1,1.56-11.72,7.52-10.63.01,9.28,6.22,15.84,15.97,13.48,5.5-1.34,2.24-21.25,1.25-25.89,14.95-4.12,3.03,13.62,3.85,14.31l10.64,1.8h0ZM62.9,84.61l10.91-9.33c-5.01-.48-9.82.38-14.64,1.64-2.63.68-5.32-1.23-4.47,3.1l5.15,4.6h3.05Z"/>
</svg>