<?xml version="1.0" encoding="UTF-8"?>
<svg id="green-things" xmlns="http://www.w3.org/2000/svg" viewBox="0 0 500.41 482.32">
  <defs>
    <style>
      .cls-1 {
        fill: #9bc86a;
      }

      .cls-2 {
        fill: #eaecec;
      }

      .cls-3 {
        fill: #cbdaec;
      }

      .cls-4 {
        fill: #373232;
      }

      .cls-5 {
        fill: #3c3533;
      }

      .cls-6 {
        fill: #463c3d;
      }

      .cls-7 {
        fill: #747377;
      }

      .cls-8 {
        fill: #f1f1f2;
      }

      .cls-9 {
        fill: #1b1819;
      }

      .cls-10 {
        fill: #ae9f99;
      }
    </style>
  </defs>
  <g>
    <path class="cls-4" d="M105.69,165.52c1.33,1.35,6.31.6,8.18,4.24,2.03,3.96.07,8.54.86,12.11.49,2.21,12.33,4.51,9.59,19.43-1.72,9.39-9.74,6.91-12.94,9.11-1.54,1.05-6.39,14.58-13.31,16.5-3.7,1.03-6.92-1.09-9.2-.73-3.77.6-6.17,3.12-11.41,3.14-9.42.03-18.54-7.93-22.91-15.62-1.28-2.25-.49-6.54-1.25-7.3-.7-.7-4.99-.07-7.29-1.26-11.25-5.82-12.26-23.54-2.74-31.33,1.54-1.26,5.44-1.36,6.12-2.42.95-1.48.25-6.98,1.77-10.66,5.57-13.49,23.83-7.64,34.46-13.53,18.73-2.31,15.95,14.14,20.07,18.32h0ZM99.47,171.72c-.53-3.69.58-7.36-.84-11.57-4.33-12.81-25.76-7.89-24.05,5.84-7.07,2.06-2.39-8.17-3.82-9.57-18.78-2.16-12.69,13.7-17.04,19.83-1.76,2.49-11.2,1.93-11.45,11.69-.33,13.06,10.52,11.01,15.11,15.41s5.99,15.19,13.88,18.57c9.37,4.01,10.43-1.21,16.18-2.01,3.06-.42,6.06,1.85,8.77,1.26,4.92-1.07,11.32-13.58,10.91-18.84,11.6,4.29,14.5-1.97,9.68-12.55l-11.59-.84,3.83-17.2c-3.16.13-6.43-.25-9.58,0,1.07,7.47,5.99,27.54-3.27,30.28-11.25,3.53-18.27-12.17-15.52-21.28,1.74-5.78,13.36-8.57,18.8-9v-.02ZM95.62,177.46l-11.6,5.01c1.46,7.38,1.59,14.92,10.61,16.02,5.24-1.03,2.63-17.09.99-21.04h0Z"/>
    <path class="cls-1" d="M99.47,171.72c-5.44.43-17.05,3.22-18.8,9-2.74,9.11,4.27,24.81,15.52,21.28,9.26-2.74,4.34-22.82,3.27-30.28,3.15-.25,6.42.14,9.58,0l-3.83,17.2,11.59.84c4.83,10.58,1.92,16.84-9.68,12.55.41,5.25-5.99,17.77-10.91,18.84-2.72.59-5.72-1.68-8.77-1.26-5.75.8-6.81,6.02-16.18,2.01-7.9-3.38-9.3-14.18-13.88-18.57s-15.43-2.36-15.11-15.41c.24-9.77,9.68-9.2,11.45-11.69,4.35-6.13-1.74-21.98,17.04-19.83,1.42,1.41-3.25,11.64,3.82,9.57-1.71-13.73,19.72-18.65,24.05-5.84,1.42,4.22.32,7.89.84,11.57v.02ZM60.2,169.96c-3.72.32-12.85,36.85,9.22,30.1,5.02-1.53,9.75-15.12,8.71-19.37-1.31-5.35-13.48-8.22-17.93-10.73ZM91.81,204.26l-19.81,1.89c-4.96,2.87,2.91,9.98,7.1,9.27l12.7-11.16h.01Z"/>
    <path class="cls-5" d="M60.2,169.96c4.46,2.51,16.62,5.38,17.93,10.73,1.04,4.25-3.69,17.84-8.71,19.37-22.08,6.74-12.95-29.78-9.22-30.1ZM72.68,185.12c.2-1.51.47-4.29-.32-5.38l-11.15-4.18v21.03c10.83-.03,7.79-2.16,9.56-7.64.31-.96,1.67-1.99,1.91-3.83h0Z"/>
    <path class="cls-9" d="M91.81,204.26l-12.7,11.16c-4.19.71-12.06-6.4-7.1-9.27l19.81-1.89h-.01Z"/>
    <path class="cls-2" d="M70.77,188.94c-1.77,5.48,1.27,7.61-9.56,7.64v-21.03l11.15,4.18c.79,1.09.51,3.87.32,5.38l-5.73-1.9v5.72h3.82,0Z"/>
    <path class="cls-10" d="M72.68,185.12c-.24,1.84-1.6,2.87-1.91,3.83h-3.82v-5.73l5.73,1.9h0Z"/>
    <path class="cls-3" d="M95.62,177.46c1.63,3.95,4.25,20-.99,21.04-9.02-1.1-9.15-8.65-10.61-16.02l11.6-5.01h0Z"/>
  </g>
  <g>
    <path class="cls-4" d="M424.74,255.9c15.6-1.58,23.85,11.07,21,25.78-.72,3.71-4.27,4.86-3.76,8.64,30.11-3.05,28.18,59.74-1.9,44.01-2.88,14.01-15.49,36.59-31.58,36.52s-14.34,2.1-26.76,3.69c-11.69,1.5-24.61-.38-33.35-8.84-4.22-4.09-5.68-9.71-8.92-14.03-1.63-2.17-5.33-2.92-6.7-4.77-2.82-3.81-1.51-11.88-4.14-14.05-2.15-1.77-11.57-2.07-16.69-5.3-16.96-10.69-19.08-41.72-2.95-54.44,3.36-2.65,12.26-5.59,13.53-7.65,1.08-1.76-1.31-11.52,1.99-18.94,9.92-22.3,29.4-16.44,47.18-19.77,4.28-.8,8.51-4.34,14.01-5.13,26.12-3.73,41.48,6.89,39.05,34.27h0ZM417.1,261.62c17.12-42.42-51.19-48.1-49.76-9.56-9.2-.13-4.91-14.05-1.9-19.1-11.46-1.36-29.22,2.62-34.84,13.92-4.27,8.59.04,18.03-3.59,23.21-4.18,5.96-16.6,2.42-21.34,16.93-7.16,21.91,4.49,39.36,27.26,40.59l3.9,16.19,7.36.26c2.58,19.85,20.24,27.75,38.97,24.24,6.36-1.19,9.94-6.35,12.2-6.82,2.74-.56,7.7,3.06,11.44,3.4,15.57,1.4,27.82-25.12,29.45-38.21l13.53,4.9c10.96-2.42,11.58-32-3.47-35.15-5.02-1.05-14.81,3.21-15.82-1.35-.78-3.52,16.53-14.07,7.45-28.46-4.19-6.64-14.12-4.87-20.84-4.99h0Z"/>
    <path class="cls-1" d="M417.1,261.62c6.72.12,16.66-1.65,20.84,4.99,9.08,14.39-8.23,24.94-7.45,28.46,1.01,4.56,10.79.3,15.82,1.35,15.05,3.15,14.43,32.73,3.47,35.15l-13.53-4.9c-1.63,13.1-13.87,39.61-29.45,38.21-3.75-.34-8.7-3.96-11.44-3.4-2.26.46-5.84,5.63-12.2,6.82-18.72,3.51-36.39-4.39-38.97-24.24l-7.36-.26-3.9-16.19c-22.77-1.23-34.41-18.68-27.26-40.59,4.74-14.51,17.16-10.97,21.34-16.93,3.63-5.18-.68-14.63,3.59-23.21,5.62-11.3,23.38-15.27,34.84-13.92-3,5.05-7.3,18.97,1.9,19.1-1.42-38.54,66.88-32.86,49.76,9.56h0ZM371.16,271.19c2.27-2.23-9.95-18.55-12.43-20.99-8.01-.41,7.41,25.92,12.43,20.99ZM388.03,270.78c.8-.46,10.49-14.04,10.92-14.86,1.55-2.97-.73-5.78-1.95-5.73-5.01.2-22.72,28.55-8.97,20.58h0ZM372.68,279.23c-5.69-2.9-28.22-17.31-33.09-11.96-4.96,11.58-11.02,49.82,4.25,53.26,23.41,5.29,29.46-23.56,28.84-41.3ZM414.94,269.53c-5.56-3.61-29.61,8.74-34.01,14.45,1.14,11.9,4.46,35.33,18.38,38.47,10.05,2.26,19.32.5,21.16-10.57.93-5.59-2.28-40.23-5.53-42.35h0ZM399.6,334.07l.25-5.48c-9.57,4.67-57.01-1.33-33.5,17.24,11.31,8.93,16.49-1.73,26-8.53,1.9-1.36,7.04-2.89,7.25-3.22h0Z"/>
    <path class="cls-5" d="M372.68,279.23c.62,17.74-5.43,46.59-28.84,41.3-15.26-3.45-9.21-41.69-4.25-53.26,4.86-5.35,27.4,9.06,33.09,11.96ZM342.49,271.19c-.29,14.46-14.16,49.59,12.01,43.59,8.99-2.06,14.77-23.31,12.52-30.75-1.7-5.6-18.68-11.69-24.53-12.83h0Z"/>
    <path class="cls-5" d="M414.94,269.53c3.26,2.11,6.46,36.76,5.53,42.35-1.84,11.07-11.11,12.83-21.16,10.57-13.92-3.13-17.23-26.56-18.38-38.47,4.39-5.7,28.44-18.06,34.01-14.45h0ZM394.61,314.71c3.96,3.71,17.79,6.4,20.26-.79,1.65-4.79-.54-38.58-3.54-40.82l-24.62,12.77c-1.4,4.27,4.82,25.95,7.9,28.83h0Z"/>
    <path class="cls-9" d="M399.6,334.07c-.21.33-5.35,1.87-7.25,3.22-9.51,6.81-14.69,17.46-26,8.53-23.52-18.57,23.93-12.57,33.5-17.24l-.25,5.48h0Z"/>
    <path class="cls-9" d="M388.03,270.78c-13.75,7.96,3.96-20.39,8.97-20.58,1.22-.05,3.5,2.76,1.95,5.73-.43.82-10.12,14.39-10.92,14.86h0Z"/>
    <path class="cls-9" d="M371.16,271.19c-5.02,4.92-20.44-21.4-12.43-20.99,2.48,2.45,14.7,18.76,12.43,20.99Z"/>
    <path class="cls-8" d="M342.49,271.19c5.85,1.15,22.83,7.24,24.53,12.83,2.26,7.45-3.53,28.69-12.52,30.75-26.17,6-12.3-29.13-12.01-43.59h0ZM354.93,288.44c-4.85,1.46-3.64,12.57,1.86,11.44,5.91-1.21,6.74-14.03-1.86-11.44Z"/>
    <path class="cls-8" d="M394.61,314.71c-3.08-2.89-9.31-24.56-7.9-28.83l24.62-12.77c3,2.23,5.19,36.03,3.54,40.82-2.47,7.18-16.3,4.49-20.26.79h0ZM401.77,301.8l1.52-6.4-6.04-4.93c-10.73,4.14.35,14.49,4.51,11.33h0Z"/>
    <path class="cls-1" d="M354.93,288.44c8.6-2.59,7.77,10.23,1.86,11.44-5.5,1.13-6.71-9.98-1.86-11.44Z"/>
    <path class="cls-1" d="M401.77,301.8c-4.16,3.16-15.24-7.19-4.51-11.33l6.04,4.93-1.52,6.4h0Z"/>
  </g>
  <g>
    <path class="cls-4" d="M224.05,87.35c.53.63,4.99.51,6.91,1.63,10.84,6.33,4.07,18.39,5.16,19.73,1.49,1.83,6.02,1.38,8.61,4.83,5.48,7.32,5.32,26.07-5.03,27.17-2.59.27-5.93-1.64-6.2-1.46-1.12.77-5.67,17.18-15.91,21.49-6.5,2.74-9.07-.95-13.35-.09-2.04.41-3.92,2.96-8.04,3.52-17.22,2.34-31.31-11.1-33.81-26.67-18.98.62-27.68-26.43-14.19-38.55,2.41-2.16,7.81-3.3,8.33-4.1,3.27-5.02-1.34-16.85,12.33-23.05,7.7-3.49,13.37-.92,19.11-1.93,7.25-1.28,11.03-6.28,20.61-4.51,19.56,3.6,12.78,18.75,15.47,21.99h0ZM200.88,72.27c-9.67-1.14-14.86,5.9-13.4,15.28-8.21.77-11.41-11.98-19.13-8.69-8.02,4.28-4.08,16.86-6.56,20.31-2.64,3.7-17.77.42-14.08,19.49,2.82,14.57,13.51,10.36,17.82,14.77,1.9,1.94,7.66,15.23,11.3,19.31,4.79,5.39,12.3,6.83,19.16,5.53,2.98-.57,5.18-3.49,7.83-3.73,4.07-.37,7.13,3.3,12.3.98,6.45-2.89,12.32-17.12,13.49-23.97,15.1,6.01,16.12-3.72,10.23-15.46l-14.07-1.75c-.25-4.57,4.39-6.47,5.38-10.93,2.47-11.15-3.86-10.7-13.05-10.09,0-5.2,1.13-17.05-3.74-20.17-7.37-4.72-10.2,12.72-19.2,12.5l5.73-13.36v-.02ZM183.65,74.17l-5.72.94,2.89,2.86h2.83v-3.8h0Z"/>
    <path class="cls-1" d="M200.88,72.27l-5.73,13.36c9,.22,11.83-17.21,19.2-12.5,4.87,3.12,3.75,14.97,3.74,20.17,9.19-.6,15.52-1.06,13.05,10.09-.99,4.46-5.63,6.36-5.38,10.93l14.07,1.75c5.89,11.74,4.86,21.47-10.23,15.46-1.17,6.85-7.04,21.08-13.49,23.97-5.17,2.31-8.22-1.35-12.3-.98-2.65.24-4.85,3.17-7.83,3.73-6.86,1.31-14.38-.14-19.16-5.53-3.63-4.09-9.4-17.37-11.3-19.31-4.31-4.41-15-.2-17.82-14.77-3.69-19.07,11.43-15.79,14.08-19.49,2.47-3.46-1.46-16.04,6.56-20.31,7.72-3.28,10.93,9.46,19.13,8.69-1.46-9.38,3.74-16.41,13.4-15.28v.02ZM168.44,93.34c-1.8,7.6-8.42,32.69,1.18,35.97,15.62,5.33,22.35-12.46,21.45-25.16-1.31-3.91-19.77-12.81-22.64-10.81h.01ZM218.01,95.29c-2.97-2.53-21.14,6.22-22.54,10.82-2.03,6.68,3.32,22.88,10.6,25.06,20.44,6.12,13.88-24.16,11.94-35.88ZM206.62,135.4c-5.33.08-10.71-.4-16.04.21-1.95.22-9.96.7-8.66,4.4,5.56,13.71,18.43,3.62,24.7-4.61h0Z"/>
    <polygon class="cls-7" points="183.65 74.17 183.65 77.98 180.82 77.97 177.93 75.11 183.65 74.17"/>
    <path class="cls-5" d="M168.44,93.34c2.87-2,21.32,6.9,22.64,10.81.9,12.7-5.84,30.49-21.45,25.16-9.6-3.28-2.98-28.38-1.18-35.97h-.01ZM173.19,99.04c-3.99.79-3.6,18.22-2.92,21.98,2.07,11.45,17.92,1.19,15.37-13.33-.68-3.86-9.65-9.2-12.46-8.65h.01Z"/>
    <path class="cls-5" d="M218.01,95.29c1.94,11.72,8.5,42-11.94,35.88-7.28-2.18-12.63-18.37-10.6-25.06,1.4-4.61,19.57-13.35,22.54-10.82ZM214.26,100.94l-15.43,6.99c1.31,9.87,5.2,24.4,17.45,16.64l-2.02-23.62h0Z"/>
    <path class="cls-9" d="M206.62,135.4c-6.27,8.23-19.15,18.32-24.7,4.61-1.3-3.7,6.71-4.18,8.66-4.4,5.33-.61,10.71-.13,16.04-.21h0Z"/>
    <path class="cls-2" d="M173.19,99.04c2.8-.55,11.78,4.79,12.46,8.65,2.55,14.52-13.31,24.78-15.37,13.33-.68-3.77-1.07-21.2,2.92-21.98h-.01Z"/>
    <path class="cls-2" d="M214.26,100.94l2.02,23.62c-12.25,7.77-16.14-6.76-17.45-16.64l15.43-6.99h0ZM208.52,110.52c-1.44-1.44-7.74-.89-5.71,4.75,2.37,6.59,8.23-2.24,5.71-4.75Z"/>
    <path class="cls-1" d="M208.52,110.52c2.52,2.51-3.34,11.35-5.71,4.75-2.03-5.64,4.27-6.19,5.71-4.75Z"/>
  </g>
  <g>
    <path class="cls-5" d="M258.75,362.55c1.5,1.85,6.8,1.65,9.94,6.34,4.29,6.4.34,10.53,1.3,13.91,1.38,4.81,12.86,3.73,11.31,21.35-1.41,16.06-13.67,9.56-15.11,10.66-1.82,1.39-5.24,16.3-12.2,19.5-5.46,2.51-10.58.59-15.72,1.51-4.11.74-7.03,3.64-11.59,3.86-11.77.57-21.97-9.06-27.84-18.23-1.97-3.08-1.3-7.29-2.16-8.32-.43-.52-8.69-2.18-11.81-4.47-8.56-6.29-10.81-20.81-5.48-29.8,3.22-5.43,10.6-7.11,11.46-8.61,1.17-2.04.15-6.24,1.33-9.16,6.99-17.28,15.66-13.32,30.24-15.72,8.27-1.36,12.58-5.36,23-2.98,13.41,3.06,9.56,15.54,13.31,20.16h.02ZM250.63,368.75c10.34-26.4-30.33-29.85-28.72-5.74l-5.57-3.16,1.75-8.29c-7.62-1.08-17.65,1.02-20.2,9.44-1.3,4.31.08,10.89-1.72,13.58-2.55,3.81-15.64,3.22-14.09,17.58,1.77,16.34,12.16,11.24,17.98,16.63,3.35,3.1,1.78,6.88,3.29,9.17.73,1.1,3.42,1.67,4.89,3.63,3.84,5.13,3.1,9.01,11.72,11.32,12.18,3.26,12.94-3.33,18.16-3.97,3.62-.45,6.86,2.57,12.47.07,5.63-2.51,12.58-15.44,11.53-21.98l10.27,1.79c8.35-10.38.93-21.6-12.2-19.01-2.2-2.04,16.93-24.78-9.55-21.05h0Z"/>
    <path class="cls-1" d="M250.63,368.75c26.49-3.74,7.35,19.01,9.55,21.05,13.14-2.59,20.56,8.63,12.2,19.01l-10.27-1.79c1.05,6.54-5.89,19.47-11.53,21.98-5.61,2.5-8.84-.52-12.47-.07-5.22.65-5.98,7.24-18.16,3.97-8.62-2.31-7.88-6.2-11.72-11.32-1.47-1.96-4.16-2.52-4.89-3.63-1.51-2.28.06-6.07-3.29-9.17-5.82-5.38-16.21-.29-17.98-16.63-1.55-14.35,11.54-13.77,14.09-17.58,1.8-2.69.42-9.28,1.72-13.58,2.55-8.42,12.58-10.51,20.2-9.44l-1.75,8.29,5.57,3.16c-1.62-24.12,39.06-20.66,28.72,5.74h0ZM202.81,368.76c-16.27,38.71,18.13,55.39,22.75,10.86l-22.75-10.86ZM246.28,370.97c-2.27.32-17.84,8.47-18.29,10.39,5.31,45.78,40.98,25.28,21.48-10.6-1.1-.36-2.12.06-3.19.21ZM241.05,408.94c-5.69.67-36.29,2.07-21.66,11.6,8.05,5.24,13.66-2.32,19.22-7.23,1.29-1.14,3.68.1,2.44-4.37Z"/>
    <path class="cls-6" d="M246.28,370.97c1.07-.15,2.09-.57,3.19-.21,19.51,35.88-16.17,56.38-21.48,10.6.45-1.92,16.01-10.07,18.29-10.39ZM248.7,376.42c-22.56-2.41-15.24,27.63-2.83,26.68,4.94-.38,2.16-22.17,2.83-26.68Z"/>
    <path class="cls-5" d="M202.81,368.76l22.75,10.86c-4.61,44.54-39.02,27.85-22.75-10.86ZM219.63,380.61c-2.95-1-11.93-8.02-14.03-4.27-1.76,3.13-1.83,22.17.92,24.13,11.41,3.57,14.1-11.45,13.11-19.86h0Z"/>
    <path class="cls-9" d="M241.05,408.94c1.24,4.47-1.15,3.23-2.44,4.37-5.56,4.91-11.17,12.48-19.22,7.23-14.63-9.53,15.96-10.93,21.66-11.6Z"/>
    <path class="cls-2" d="M248.7,376.42c-.66,4.52,2.11,26.31-2.83,26.68-12.41.95-19.73-29.09,2.83-26.68Z"/>
    <path class="cls-8" d="M219.63,380.61c.99,8.41-1.7,23.43-13.11,19.86-2.75-1.96-2.68-20.99-.92-24.13,2.1-3.75,11.09,3.27,14.03,4.27h0ZM216.17,384.08c-7.52,0-7.62,7.59,0,7.63v-7.63Z"/>
    <path class="cls-10" d="M216.17,384.08v7.63c-7.62-.04-7.52-7.64,0-7.63Z"/>
  </g>
  <g>
    <path class="cls-4" d="M277.57,217.37c2.96,4.33,11.25,1.15,9.54,16.6-1.29,11.59-8.85,8.04-13.08,10.88-1.38.93-3.86,10.1-7.6,13-6.32,4.89-9.55,1.52-14.4,2.29-9.42,1.5-13.03,7.56-24.47-1.27-6.77-5.23-9.82-15.83-11.81-17.86-1.05-1.07-6.71-1.2-10.16-4.19-5.77-5-6.36-17.93-3.31-24.47,2.55-5.47,8.91-5.24,9.74-6.53,2.86-4.46-.8-17.11,13.17-20.31,4.71-1.08,18.24-3.68,22.78-4.15,19.09-1.96,15.39,8.45,20.93,17.04,1.33,2.07,4.84,2.82,6.63,4.83,6.35,7.15,1.21,12.91,2.04,14.13h0ZM262.11,206.16c-1.14-10.03,2.82-20.11-12.4-19.24-11.22.64-8.68,6.06-13.46,13.49l-2.85-9.55c-18.34-2.4-12.56,13.9-15.6,18.84-1.64,2.67-21.25,6.02-9.11,22.15,3.08,4.09,7.6,2.38,10.56,4.75,1.87,1.5,7.63,13.69,10.26,16.5,8.75,9.34,13.96,2.49,22.17.97,2.55-.47,5.34,2.17,8.47.94,6.29-2.47,9.27-13.58,11.5-19.23l6.73,2.87c3.99-2.26,4.16-12.33,1.08-14.44l-9.71-.84c-3.8-3.63,14.4-19.66-7.64-17.21h0Z"/>
    <path class="cls-1" d="M262.11,206.16c22.04-2.45,3.84,13.58,7.64,17.21l9.71.84c3.08,2.11,2.91,12.19-1.08,14.44l-6.73-2.87c-2.23,5.65-5.2,16.75-11.5,19.23-3.13,1.23-5.92-1.42-8.47-.94-8.21,1.52-13.42,8.37-22.17-.97-2.63-2.81-8.39-15-10.26-16.5-2.96-2.38-7.49-.66-10.56-4.75-12.14-16.13,7.47-19.48,9.11-22.15,3.04-4.94-2.75-21.24,15.6-18.84l2.85,9.55c4.78-7.43,2.24-12.85,13.46-13.49,15.22-.87,11.26,9.21,12.4,19.24-8.69.96-19.93,3.05-19.08,14.1.86,11.21,10.04,21.99,21.07,13.31,1.17-9.44-.97-18.38-1.99-27.41h0ZM221.95,204.24c-1.21,7.06-7.98,27.13,1.25,30.31,8.26,1.72,11.56-.05,14.99-7.35,8.07-17.17-1.62-19.01-16.24-22.97h0ZM254.45,238.7c-4.79.45-24.1-3.1-21.03,6.66,2.6,8.23,18.79-1.58,21.03-6.66Z"/>
    <path class="cls-5" d="M221.95,204.24c14.62,3.95,24.31,5.8,16.24,22.97-3.43,7.3-6.73,9.06-14.99,7.35-9.23-3.18-2.47-23.25-1.25-30.31h0ZM235.01,214.1l-10.26-2.26c-6.77,24.07,12.74,25.79,10.26,2.26Z"/>
    <path class="cls-5" d="M262.11,206.16c1.02,9.03,3.16,17.98,1.99,27.41-11.04,8.68-20.21-2.1-21.07-13.31-.85-11.05,10.39-13.14,19.08-14.1ZM260.18,231.03c-.55-4.33,2.59-19.49-4.45-18.89-11.66.99-8.26,22.29,4.45,18.89Z"/>
    <path class="cls-9" d="M254.45,238.7c-2.24,5.08-18.43,14.89-21.03,6.66-3.08-9.75,16.24-6.21,21.03-6.66Z"/>
    <path class="cls-2" d="M235.01,214.1c2.48,23.54-17.04,21.81-10.26-2.26l10.26,2.26Z"/>
    <path class="cls-2" d="M260.18,231.03c-12.72,3.4-16.11-17.9-4.45-18.89,7.04-.6,3.9,14.56,4.45,18.89ZM254.94,221.42c0-1.3-1.06-2.36-2.36-2.36s-2.36,1.06-2.36,2.36,1.06,2.36,2.36,2.36,2.36-1.06,2.36-2.36Z"/>
    <circle class="cls-1" cx="252.58" cy="221.42" r="2.36"/>
  </g>
</svg>