<?xml version="1.0" encoding="UTF-8"?>
<svg id="money" xmlns="http://www.w3.org/2000/svg" viewBox="0 0 285.8 256.23">
  <defs>
    <style>
      .cls-1 {
        fill: #e9e37e;
      }

      .cls-2 {
        fill: #3c3533;
      }

      .cls-3 {
        fill: #463c3d;
      }

      .cls-4 {
        fill: #f1f1f2;
      }

      .cls-5 {
        fill: #90a78e;
      }

      .cls-6 {
        fill: #ae9f99;
      }
    </style>
  </defs>
  <path class="cls-2" d="M67.29,89.13c-4.31-4.48-12.46-12.53-13.32-18.32-1.19-8.02,3.12-22.5,12.45-16.23,6.3,4.23,22.54,22.16,28.64,28.78,3.26,3.54,9.47,15.43,13.35,15.45,17.99-12.96,37.21-20.19,58.94-11.2,4.91,2.03,9.54,8.09,13.45,7.09l42.44-43.78c18.35,15.33,3.44,31.85-10.52,43,7.19,1.66,13.39-12.07,17.68-2.4,4.7,10.57.47,18.19-8.12,24.39-2.32,1.67-6.43,1-5.73,3.81l7.64-1.89c1.77.26,3.85-.35,5.7.02,4.23,21.64-13.2,25.53-30.15,29.1-4.28,75.45-123.91,80.92-119.13-2.27-12.45-.08-29.86-8.2-25.89-23.13,1.38-5.19,2.31-2.89,4.92-3.72l9.56,1.89v-1.87c-1.94-.19-4.07-.95-5.73-1.94-12.49-7.44-11.05-14.93-7.63-28.69,1.3-.9,7.83,2.81,9.54,3.82,2.24,1.33,4.82,7.18,9.57,5.72-.94-3.73-5.51-5.4-7.65-7.63h0ZM59.64,123.58c.13,11.66,13.44,15.37,23.05,16.41,4.23-14.16,11.48-25,20.39-36.51-10.28-17.65-26.75-30.21-40.58-44.91-15.18,16.6,25.02,33.17,24.04,44.87-.21,2.53-1.19,3.29-2.98,4.78l-22.99-13.3c-5.01,2.76-1.62,10.53.92,13.83,4.61,5.99,18.81,6.39,17.26,16.72l-19.11-1.89h0ZM197.4,106.34c3.33-18.36,36.23-25.81,26.76-47.81-6.44,6.05-40.42,36.36-39.84,42.73,7.73,11.8,13.75,24.94,13.08,39.53,1.06,1.09,18.53-3.61,20.92-4.92,3.27-1.79,12.17-12.86,4.9-12.35-3.05.22-20.15,5.45-18.17-2.81.89-3.69,28.45-11.42,21.03-25.84-2.07-2.37-23.03,16.71-28.69,11.46h0ZM141.44,89.64c-39.36,5.18-71.24,57.77-45.45,92.27,18.85,25.21,57.58,21.64,80.19,3.66,34.91-27.76,14.99-102.48-34.74-95.93h0Z"/>
  <path class="cls-6" d="M67.29,89.13c2.15,2.23,6.71,3.9,7.65,7.63-4.74,1.46-7.32-4.39-9.57-5.72l1.91-1.91h.01Z"/>
  <path class="cls-5" d="M63.46,115.92c1.66.99,3.79,1.75,5.73,1.94v1.87l-9.55-1.89c1.39-.44,3.34.2,3.83-1.91h-.01Z"/>
  <path class="cls-6" d="M224.19,117.83l-7.64,1.89c-.7-2.81,3.41-2.13,5.73-3.81.2.92,1.01,1.78,1.91,1.91h0Z"/>
  <path class="cls-1" d="M141.44,89.64c49.73-6.54,69.65,68.18,34.74,95.93-22.61,17.98-61.34,21.55-80.19-3.66-25.8-34.5,6.09-87.1,45.45-92.27h0ZM150.04,107.76c-2.08-2.46-.69-10.67-10.8-6.96-3.4,1.25-2.21,5.58-3.54,6.97-1.2,1.25-12.54,3.79-16.6,7.33-15.34,13.41-.64,33.52,16.88,33.52l.2,16.06c-7.87,5.21-10.42-9.35-11.79-10.21-2.35-1.48-9.71.31-13.11-.31-1.21,7.63,1.66,15.26,7.74,20.02,4.7,3.68,13.13,4.47,15.91,6.6,2.55,1.96.15,7.05,6.02,7.92,9.98,1.47,6.85-4.96,9.07-7.28.89-.93,10.71-2.72,14.76-5.35,14.86-9.67,12.78-27.33-2.97-35.1-11.57-5.71-14.04-.02-12.23-19.32l12.34,11.62,10.61-.14c5.27-19.64-18.23-20.34-22.5-25.38h0Z"/>
  <path class="cls-4" d="M59.64,123.58l19.11,1.89c1.55-10.33-12.64-10.73-17.26-16.72-2.54-3.3-5.94-11.07-.92-13.83l22.99,13.3c1.79-1.49,2.77-2.25,2.98-4.78.98-11.7-39.22-28.27-24.04-44.87,13.83,14.7,30.3,27.27,40.58,44.91-8.92,11.51-16.16,22.35-20.39,36.51-9.61-1.04-22.92-4.76-23.05-16.41h0Z"/>
  <path class="cls-4" d="M197.4,106.34c5.66,5.25,26.61-13.83,28.69-11.46,7.42,14.42-20.15,22.15-21.03,25.84-1.98,8.26,15.12,3.03,18.17,2.81,7.26-.52-1.64,10.56-4.9,12.35-2.38,1.3-19.86,6.01-20.92,4.92.67-14.6-5.35-27.73-13.08-39.53-.58-6.37,33.4-36.68,39.84-42.73,9.47,22-23.43,29.45-26.76,47.81h0Z"/>
  <path class="cls-2" d="M150.04,107.76c4.27,5.03,27.76,5.74,22.5,25.38l-10.61.14-12.34-11.62c-1.82,19.31.66,13.61,12.23,19.32,15.75,7.78,17.83,25.43,2.97,35.1-4.05,2.64-13.87,4.42-14.76,5.35-2.22,2.32.91,8.75-9.07,7.28-5.88-.87-3.47-5.96-6.02-7.92-2.77-2.13-11.21-2.93-15.91-6.6-6.08-4.76-8.95-12.39-7.74-20.02,3.4.62,10.76-1.16,13.11.31,1.36.85,3.91,15.41,11.79,10.21l-.2-16.06c-17.52,0-32.22-20.11-16.88-33.52,4.06-3.55,15.4-6.08,16.6-7.33,1.33-1.39.14-5.72,3.54-6.97,10.11-3.72,8.72,4.5,10.8,6.96h0ZM140,144.61v28.69c-10.66-2.71-13.11-4.16-18.65-12.87-3.82-6-9.12-3.78-3.19,5.05,5.18,7.72,12.7,10.32,21.83,9.73l2.86,7.67c1.43-11.04,15.78-5.85,23.05-13.33,15.47-15.91-7.69-27.48-21.83-29.02.15-4.8-2.42-23.25,2.76-24.5,10.63-.27,13.07,10.94,21.86,11.34-1.48-3.94-3.47-6.81-6.97-9.27-7.02-4.92-19.58-2.57-17.91-11.75-6.02-1.81-2.64,4.7-5.61,6.77-3.46,2.41-14.44.12-18.26,8.55-6.58,14.53,7.67,21.64,20.05,22.93h.01Z"/>
  <path class="cls-1" d="M140,144.61c-12.38-1.3-26.63-8.4-20.05-22.93,3.82-8.43,14.79-6.14,18.26-8.55,2.97-2.07-.41-8.58,5.61-6.77-1.67,9.18,10.89,6.83,17.91,11.75,3.51,2.46,5.5,5.33,6.97,9.27-8.79-.4-11.24-11.61-21.86-11.34-5.18,1.25-2.62,19.7-2.76,24.5,14.14,1.54,37.3,13.11,21.83,29.02-7.28,7.49-21.62,2.3-23.05,13.33l-2.86-7.67c-9.14.59-16.65-2.01-21.83-9.73-5.93-8.83-.63-11.05,3.19-5.05,5.54,8.71,7.99,10.15,18.65,12.87v-28.69h-.01ZM139.99,115.92c-22.7,3.14-22.6,20.81,0,24.86v-24.86ZM143.82,146.52c1.52,7.3-4.63,27.68,6.21,26.47,24.02-2.69,16.49-29.6-6.21-26.47Z"/>
  <path class="cls-3" d="M143.82,146.52c22.7-3.13,30.23,23.78,6.21,26.47-10.84,1.21-4.69-19.17-6.21-26.47ZM158.63,154.66l-9.06-2.39v15.29c6.5-.16,15.11-6.95,9.06-12.89h0Z"/>
  <path class="cls-2" d="M139.99,115.92v24.86c-22.6-4.05-22.7-21.72,0-24.86ZM136.16,121.67c-11.34.47-9.96,9.35-.93,13.37l.93-13.37Z"/>
  <path class="cls-1" d="M158.63,154.66c6.05,5.94-2.55,12.73-9.06,12.89v-15.29l9.06,2.39h0Z"/>
  <path class="cls-1" d="M136.16,121.67l-.93,13.37c-9.03-4.02-10.4-12.9.93-13.37Z"/>
</svg>