<?xml version="1.0" encoding="UTF-8"?>
<svg id="Layer_1" data-name="Layer 1" xmlns="http://www.w3.org/2000/svg" xmlns:xlink="http://www.w3.org/1999/xlink" viewBox="0 0 1712.16 2412.24">
  <defs>
    <style>
      .cls-1 {
        fill: #9bc86a;
      }

      .cls-2 {
        fill: none;
      }

      .cls-3 {
        fill: #363232;
      }

      .cls-4 {
        fill: #eef0f0;
      }

      .cls-5 {
        fill: #e4eef6;
      }

      .cls-6 {
        fill: #1ba665;
      }

      .cls-7 {
        fill: #d7f1f8;
      }

      .cls-8 {
        fill: #0b5daa;
      }

      .cls-9 {
        fill: #efe642;
      }

      .cls-10 {
        fill: #463c3b;
      }

      .cls-11 {
        fill: #444446;
      }

      .cls-12 {
        fill: #fff;
      }

      .cls-13 {
        fill: #aec9e3;
      }

      .cls-14 {
        fill: #706b6c;
      }

      .cls-15 {
        fill: #3b3432;
      }

      .cls-16 {
        fill: #514b4c;
      }

      .cls-17 {
        fill: #655856;
      }

      .cls-18 {
        fill: #dfe3e4;
      }

      .cls-19 {
        fill: #04b0da;
      }

      .cls-20 {
        fill: #cfdfee;
      }

      .cls-21 {
        clip-path: url(#clippath);
      }

      .cls-22 {
        fill: #1563ad;
      }
    </style>
    <clipPath id="clippath">
      <rect class="cls-2" x="1732.18" y="-.02" width="1712.13" height="2412.28"/>
    </clipPath>
  </defs>
  <circle class="cls-9" cx="881.81" cy="442.64" r="50.9"/>
  <polygon class="cls-22" points="1714.01 2317.55 1712.09 2315.63 1714.01 2315.63 1714.01 2317.55"/>
  <g class="cls-21">
    <g>
      <path class="cls-12" d="M3506.09-118.02h-1798.98V187.58c15.4,11.74,10.12,19.73,25.08,29.96v233.11c379.91,215.67,935.9-146.5,1189.07-213.65,200.63-53.21,411.89,12.63,507.65,50.2l32.54,20.07c25.25,11.04,7.47-24.35,7.47-24.35l37.17-400.94Z"/>
      <path class="cls-12" d="M1690.62,684.48c61.41-7.09,84.37,189.63,267.24,259.68,85.17,32.63,130.19,9.11,252.11,7.56,265.32-3.36,474.71,102.65,571.37,151.6,263.54,133.44,259.41,250.71,404.3,256.83,235.01,9.92,353.85-294.01,456.32-252.11,125.39,51.27,106.66,571.52-70.59,635.32-140.15,50.44-239.78-234.71-552.13-274.8-203-26.06-251.3,82.78-577.34,148.75-235.88,47.73-565.62,114.44-753.82-55.46-273.79-247.19-103.85-865.06,2.52-877.35"/>
    </g>
  </g>
  <g>
    <path class="cls-3" d="M1149.94,365.33c0,1.04-1.94,3.88-1.91,6.63.14,16.5.39,32.62,1.9,49.03,17.32,1.45,34.54,4.06,51.85,5.75,17.46,1.71,35.03,2.91,52.57,3.95,4.11-12.64,15.27-18.42,27.97-13.57.15-11.72,20.89-30.26,22.88-37.82,1.32-5.01-8.47-13.93-.56-27.26,11.53-19.44,47.88-1.07,36.84,21.49-9,18.38-27.65,7.09-32.15,9.94-3.61,2.28-23.55,34.6-22.18,37.56,3.61,1.89,5.55,7.51,7.86,9.44,4.74,3.97,45.84,8.4,56.54,10.65,20.77,4.37,43.67,10.41,63.33,18.25,2.14.85,6.07,4.25,9.6,5.76,2,.86,4.12,1.21,5.76,1.92,6.25,2.71,49.22,25.76,51.82,23.03-.26-14.56-2.3-28.75-2.05-43.4.06-3.46,2.05-6.15,2.06-6.49,9.12-5.83,48.46-4.47,53.93,2.7,5.32,6.99-1.72,46.55-1.95,57.51,1.31,4.61,12.02,3.26,16.16,3.09,48.55-1.96,93.82-20.37,130.5-51.84,11.12-9.54,20-21.75,31.73-30.66v7.68c-36.55,39.98-82.65,71.2-137.5,78.45-77.38,10.23-107.49-21.19-173.02-45.34-33.71-12.42-69.09-19.77-104.82-23.68l-4.78,10.44,120.66,123.19c10.79.74,11.64-6.91,24.59-3.57,14.73,3.8,15.02,17.08,17.06,17.92,8.36,3.45,41.06,7.12,51.37,7.72,73.28,4.27,142.27-11.59,206.45-46.14v5.76c-78.17,43.32-170.31,56.99-258.05,38.23-7.19,20.57-29.71,23.61-40.76,3.86-17.84,6.32-48.48,7.94-64.57,15.9-2.25,1.11-3.32,1.37-3.33,4.3,0,2.56,6.09,18.02,7.15,23.69,2.31,12.41,1.56,24.5,4.36,35.95l23.84,6.82c16.5-36.42,70.7-14.45,64.71,22.69l79.58,19.43c70.35-9.97,135.06-40.22,187.07-88.34v7.68c-.71.55-1.23,1.37-1.92,1.92-51.38,40.45-100.71,70.89-167.04,81.57,17.49,3.19,35.36,6.32,53.06,8.39,9.2,1.08,43.08,5.7,49.35,4.16,2.22-.55,4.57-17.71,22.84-15.06,3.74.54,10.93,5.42,13.03,4.49l28.76-35.57h1.92v7.68c-2.36,1.19-2.66,4.24-3.84,5.76-4.06,5.23-22.57,23.12-22.93,27.75-.12,1.57,1.34,6.44,3.1,6.87l23.67-.08v3.84c-4.72,4.25-22.57.21-24.75,2.13-.73.64-1.58,10.33-8.83,15.15-9.68,6.43-15.83,1.07-20.13,2.8-4.8,1.93-34.52,35.55-42.25,42.32-41.46,36.29-89.99,46.8-140.91,64.07-3.34,20.47-17.77,29.41-36.22,17.51-3.61-2.33-.61-6.11-9.82-5.68-15.08.71-8.18,16.29-20.91,21.46-22.86,9.27-39.85-17.19-24.65-35.7l-34.91-39.21c-9.76,4.87-15.75.88-24.93-2.09-39.68,21.18-75.76,53.48-120.44,63.12,13.7,75.86-93.59,89.76-106.83,15.24l-40.43-9.08c-4.18.02-7.02,6.77-11.95,8.32-18.91,5.95-23.74-9.78-27.92-10.11-9.46-.73-45.62,26.04-56.65,30.2-.26,3.53,3.24,5.43,3.77,8.66,1.94,11.83-4.92,13.19,9.66,18.18-4.1,1.22,2.31,4.62,3.26,5.38,10.66,8.62,19.67,18.75,29.43,28.29l4.23.55c17.23-11.89,43.64,7.15,31.15,27.1-10.81,17.26-37.43,9.84-38.86-8.99-.37-4.86,3.07-8.4.56-13.91-1.9-4.16-38.82-37.85-42.58-38.17-4.2-.36-10.76,12.54-26.1,5.04-5.33-2.61-12.82-13.15-12.91-18.74-.18-10.07,9.72-20.95,20.17-20.86,3.69.03,6.83,2.8,10.1,3.27,7.33,1.05,30.78-16.41,39.48-21.11,6.67-3.61,15.53-5.79,21.19-9.53,2.27-1.5,4.44-2.37,1.25-4.58-59.86-16.52-119.1-35.41-175.93-60.41l-4.21.34c-17.46,29.1-56.38,32.38-81.89,11.11-17.68-14.74-18.34-32.47-19.43-53.9-22.4-7.32-45.68-13.91-69.18-16.81-8.06-.99-44.04-4.83-47.77-.27-1.4,1.71-1.5,5.92-3.13,8.39-9.92,15.11-29.34,12.59-37.56-2.65-83.05,4.6-165.86,16.51-249.2,7.69-6.09,1.18-8,13.76-24.77,11.45-15.95-2.2-14.88-16.61-19.7-18.76-106.57-16.47-196.35-72.19-275.13-142.37-2-1.78-3.17-4.54-5.76-5.76v-5.76c4.35-.72,5.86,1.41,8.71,3.76,11.16,9.25,21.79,21.94,33.49,31.77,68.11,57.28,152.67,97.79,240.78,112.39,3.05-13.83,13.02-18.28,26.66-15.09,5.8,1.36,7.77,7.64,13.65,7.3,3.66-.21,22.33-8.96,27.4-11.21,48.05-21.39,89.49-53.71,138.85-71.39-11.45-29.38,1.92-71.85,33.19-82.88,8.8-3.1,17.48-1.9,24.9-3.9,7.11-1.92,31.9-18.32,42.36-22.91,20.23-8.88,43.43-16.39,64.64-22.7,16.93-5.03,34.65-8.41,51.87-12.43,5.5-1.01,8.43-8.31,11.48-10.6,14.72-11.08,29.32-23.21,44.15-34.55.71-.54,1.23-1.4,1.92-1.92,2.5-1.9,5.16-3.89,7.68-5.76,7.73-5.73,51.51-32.38,53.24-35.06,1.59-2.47,2.85-14.23,4.79-19.2,18.7-47.97,66.74-53.81,98.73-15.03l46.66-3.72c.94-26.26,34.94-21.21,41.66.17l64,5.68c4-3.96.66-59.41,1.89-70.09.41-3.54.86-7.12,3.97-9.46,8.61-6.47,45.09.97,57.44-.06,9.78,6.02,3.84,15.38,3.71,25.02-.05,4.07,2.09,8.09,2.09,8.53ZM1100.03,342.31h-9.6s1.93,9.6,1.93,9.6l7.37-2.21.3-7.4ZM1109.61,342.29v7.7h9.62v-7.7h-9.62ZM1138.43,342.31h-9.62c-.8,9.04,1.22,10.34,9.34,7.4l.28-7.4ZM1338.23,364.64c0-8.75-7.09-15.84-15.84-15.84s-15.84,7.09-15.84,15.84,7.09,15.84,15.84,15.84,15.84-7.09,15.84-15.84ZM1100.01,361.48c-13.07-1.7-13.32,11.23,0,9.61v-9.61ZM1119.21,361.48c-13.07-1.7-13.32,11.23,0,9.61v-9.61ZM1138.57,366.27c0-2.74-2.22-4.96-4.96-4.96s-4.96,2.22-4.96,4.96,2.22,4.96,4.96,4.96,4.96-2.22,4.96-4.96ZM1100.01,380.68c-13.07-1.7-13.32,11.23,0,9.61v-9.61ZM1118.92,382.93l-7.43-1.39-1.88,8.74h9.62s-.31-7.34-.31-7.34ZM1138.45,385.58c0-2.71-2.2-4.91-4.91-4.91s-4.91,2.2-4.91,4.91,2.2,4.91,4.91,4.91,4.91-2.2,4.91-4.91ZM869.16,390.74c-47.79,8.14-57.62,111.27,16.61,102.97,68.33-7.64,59.18-115.87-16.61-102.97ZM975.03,411.6c-1.66-1.45-42.62,1.88-43.94,3.65,15.44,26.63,1.29,67.43-27.48,79.02-25.67,10.34-58.09,5.07-71.49-21.37-3.25-6.41-3.66-12.98-6.19-18.81-.85-1.97.43-3.18-3.04-2.18l-102.96,76.52c25.73-3.76,51.77-7.73,77.76-9.56,46.45-3.26,103.68-3.9,147.83,11.46,10.83,3.77,20.63,9.71,31.46,13.34,1.81-8.82,9.47-8.78,15.64-12.64l-.4-102.08c-4.3-1.97-9.92-3.2-13.18-6.95-3-3.45-3.57-10.04-3.99-10.41ZM1253.39,436.56c-79.37-3.33-157.25-20.92-236.55-25.24-4.49,10.54-8.1,14.14-18.64,18.63l-.05,103.08c12.43,5.03,18.41,12.64,18.51,26.36l18.08,3.63c1.58-30.28,46.42-17.98,40.4,9.51l31.47,5.88c42.31-86.85,155.42-82.73,211.1-11.36,9.84,12.61,16.72,26.65,25.45,39.92l69.57-17.28-1.61-12.4c-28.38-29.81-55.48-60.96-85.48-89.19-6.02-5.67-33.07-31.76-37.58-33.61-3.6-1.48-8.34,3.33-14.26,3.09-11.15-.45-19.5-10.54-20.41-21.03ZM1268.44,421.37c-16.42,3.62-10.77,36.77,12.14,29.47,17.93-5.71,8.77-34.09-12.14-29.47ZM1510.85,453.63l-7.66-1.96-1.95,7.69,6.53,1.8,3.08-7.53ZM1518.52,453.63c-.24,11.71,9.39,9.14,7.67-1.94l-7.67,1.94ZM1493.57,459.36c.45-4.84-3.06-6.47-7.67-5.73v7.67s7.67-1.93,7.67-1.93ZM1528.12,470.89c-1.67-1.7-11.64-2.68-9.58,4.77,2.33,8.41,12.82-1.47,9.58-4.77ZM1493.56,470.9h-7.66c-2.79,15.72,11.84,4.18,7.66,0ZM1510.84,470.9c-1.24-1.24-10.64.05-9.58,4.76,1.66,7.36,13.97-.38,9.58-4.76ZM1197.53,519.43c-45.56,4.51-74.25,34.2-93.4,73.6-54.45,112.01,68.67,232.66,179.55,171.83,131.24-71.99,41.82-258.09-86.15-245.43ZM1101.94,582.21c-8.59,1.91-20.08-4.83-27.7-3.85-8.31,1.07-9.63,11.17-26.62,7.27-10.33-2.37-10.59-12.96-14.86-15.83-1.1-.74-16.9-4.81-18.3-4.74-6.75.38-12.74,17.18-30.6,5.64-10.02-6.48-6.99-12.91-10.9-19.81-5.53-9.77-53.8-22.35-66.16-24.06-64.07-8.89-135.01-1.14-198.27,10.43l-109.64,89.99-3.76,8.7c35.66-.91,71.09.48,106.32,5.91,4.85-17.09,15.28-11.37,27.11-13.55,6.41-1.18,28.02-37.54,27.99-45.11-.02-4.54-2.32-8.56-2.03-13.22,1.67-26.93,41.3-22.32,42.31,1.73.6,14.24-12.54,17.48-13.59,22.97-2.46,12.81,3.65,29.82,4.11,42.94,15.91,1.98,24.07,10.72,26.53,26.26l40.38,8.56c4.79-30.1,43.95-19.98,42.4,7.53l118.88,19.34c-.74-36.83,50.17-24.53,40.31,7.65l46.07,5.75c-14.96-27.15-20.5-57.83-14.51-88.37,2.91-14.83,10.62-27.73,14.51-42.11ZM1010.89,553.53c0-8.83-7.16-15.98-15.98-15.98s-15.98,7.15-15.98,15.98,7.16,15.98,15.98,15.98,15.98-7.15,15.98-15.98ZM694.96,540c-27.42,5.87-54.87,13.57-81.1,23.5-19.77,7.48-43.1,16.79-59.04,30.2l22.07,9.62,17.26,21.09,100.81-84.41ZM1051.53,549.98c-20.15,1.93-15.2,32.78,3.19,32.14,23.76-.83,17.6-34.13-3.19-32.14ZM764.67,583.51c21.15,19.34,40.47-22.24,13.65-26.18-18.19-2.67-24.28,16.46-13.65,26.18ZM1448.98,587.98c0-8.73-7.08-15.81-15.82-15.81s-15.82,7.08-15.82,15.81,7.08,15.81,15.82,15.81,15.82-7.08,15.82-15.81ZM777.25,593.98l-15.14-5.21-26.52,43.95,8.58,16.84,24.58,5.33,12.7-19.81-4.2-41.1ZM531.27,596.1c-38.95,6.67-55.44,67.89-24.3,94.39,21.4,18.22,61.02,9.75,76.32-13.61,24.94-38.09-7.4-88.42-52.02-80.78ZM736.98,647.92c0-8.6-6.97-15.57-15.57-15.57s-15.57,6.97-15.57,15.57,6.97,15.57,15.57,15.57,15.57-6.97,15.57-15.57ZM700.64,647.55c-34.41-4.43-68.8-7.2-103.59-5.86,5.44,46.06-49.31,81-88.12,56.45-5.81-3.68-13.22-14.18-15.6-15.25-5.95-2.68-33.17,11.7-40.29,15.39-42.42,21.98-82.07,51.03-128.31,66.49-1.13,4.25-.62,9,4.52,9.37,40.08,1.56,80.85,3.67,121.03,1.99,33.25-1.39,66.61-7.14,99.77-9.66,5.28-.4,20.75,1.59,23.11-1.85.34-18.98,17.95-28.01,33.39-16.29,3.68,2.8,6.57,9.28,9.06,10.13,6.65,2.28,39.34.93,51.27,2.48,22.61,2.92,45.58,10.17,67.28,16.87,9.85-22.75,26.66-35.44,52.07-34.47,8.34.32,23.43,7.1,27.75,4.95,6.96-3.46,31.87-50.19,43.27-56.75,1.96-3.46-1.86-12.45-5.33-14-10.8-4.85-30.83-3.89-42.58-9.02-6.32,12.76-23.83,15.73-33.79,4.9-3.07-3.34-4.59-11.2-6.99-12.68-5.13-3.17-18.5-2.63-24.83-5.51-4.53.17-6.6,9.37-12.79,11.88-14.76,6-30.29-3.77-30.31-19.56ZM890.52,674.71c0-8.78-7.12-15.9-15.91-15.9s-15.91,7.12-15.91,15.9,7.12,15.9,15.91,15.9,15.91-7.12,15.91-15.9ZM1402.82,669.01c-16.83,3.42-23.99,25.3-17.71,39.86,7.5,17.38,32.81,23.37,46.84,10.37,23.91-22.16-1.72-55.81-29.13-50.23ZM1378.12,688.03l-24.67-7.95c-3.61,20.57-13.76,38.51-24.98,55.65,13.56-2.02,28.47,2.08,41.24,2.09,6.34,0,11.62-2.06,17.23-2.15,12.84-.2,25.71.26,38.55.16l83.42-7.78-62.55-17.18c-7.21,4.66-9.6,12.07-17.95,16.36-27.62,14.18-54.88-9.9-50.3-39.2ZM998.27,703.14l-100.89-17.4c-6.28.18-10.68,8.02-17.64,9.31s-12.06-2.37-16.36-1.25c-3.87,1.01-45.34,56.44-45.08,60.2l15.5,12.16,54.57-28.04,109.92-34.98ZM1036.45,718.68c-8.28,1.54-17.09-11.25-21.88-11.73-5.35-.54-28.92,6.3-35.91,8.23-27.18,7.49-62.46,18.25-88.4,28.69-19.44,7.82-35.5,20.65-55.16,26.44,9.51,15.27,9.62,31.95,3.97,48.68,1,3.25,54.42,23.35,62.23,26.19,13.2,4.8,107.29,36.16,112.97,34.31,3.92-1.28,11.3-19.12,24.34-13.23l-2.15-147.58ZM1320.63,823.76l-1.26-29.92-26.69-27.08c-67.3,39.5-147.7,17.39-188.24-47.92-3.23-1.2-48.66-7.51-51.51-7.13-1.97.26-7.59,4.15-8.28,6.12l-.27,147.42c4.69,9.54,15.93,13.09,12.32,26.07l39.54,8.67c8.48-64.66,78.55-72.69,105.51-15.38,44.02-6.43,79.45-41.75,118.87-60.84ZM1647.07,745.41c-17.45-.71-35.15-2.01-52.47-4.16-20.25-2.51-50.86-10.7-69.36-10.86-14.03-.12-34.82,5.86-49.93,7.25-29.46,2.71-62.75,5.54-92.04,5.87-20.01.23-39.61-1.76-59.56-1.97l-25.92,22.03c7.26,4.67,22.74,26.32,28.81,28.84,5.65,2.35,12.6-5.63,24.94,3.75,17.89,13.61,2.21,26.78,4.66,31.64,7.33,5.25,27.26,36.38,33.13,38.05,5.44,1.55,11.08-.81,17.36,1.84,5.25,2.22,9.75,11.55,14.74,11.82,1.05.06,10.06-1.65,10.44-2.03,1.77-1.74-.71-14.38,8.9-20.85,19.34-13.02,27.82,9.33,34.18,9.23,44.97-16.61,90.58-25.14,128.95-55.34,7.62-6,47.76-42.94,48.71-49.24.4-2.68-7.82-10.3-5.53-15.89ZM1660.03,730.38c-15.81,4.69-8.36,35.95,12.16,29.48s9.08-35.78-12.16-29.48ZM836.43,797.01c0-27.17-22.04-49.2-49.22-49.2s-49.22,22.03-49.22,49.2,22.04,49.2,49.22,49.2,49.22-22.03,49.22-49.2ZM298.99,755.24c-18.27,3.25-12.35,35.65,8.24,31.58,22.75-4.49,11.2-35.04-8.24-31.58ZM1331.75,797.57c-14.46,4.25-7.67,35.53,12.14,29.5s10.2-36.06-12.14-29.5ZM1141.8,851.4c-19.01,2.43-33.01,19.27-37.82,37.04-11.71,43.21,38.38,80.16,76.55,53.5,43.14-30.13,8.25-96.55-38.73-90.54ZM1446.95,858.98c-12.58,2.89-12.12,24.02-.89,28.84,28.25,12.12,31.39-35.84.89-28.84ZM1023.73,874.41c-16.13,17.46,16.91,41.47,27.3,18.67,7.3-16.04-16.91-29.91-27.3-18.67ZM938.27,924.16c-13.75,2.75-15.23,26.56-.04,29.97,29.57,6.64,25.26-35.01.04-29.97ZM1020.81,987.57c-27.99,2.68-5.05,48.77,15.05,26.61,10.65-11.74-2.37-27.83-15.05-26.61Z"/>
    <circle class="cls-1" cx="721.4" cy="647.92" r="16.04"/>
    <circle class="cls-1" cx="1272.9" cy="436.37" r="16.04"/>
    <circle class="cls-1" cx="1667.31" cy="745.12" r="16.04"/>
    <circle class="cls-19" cx="994.9" cy="553.53" r="16.04"/>
    <circle class="cls-1" cx="1338.23" cy="812.24" r="16.04"/>
    <circle class="cls-9" cx="1037.32" cy="886.37" r="16.04"/>
    <circle class="cls-9" cx="1023.8" cy="1003.84" r="16.04"/>
    <ellipse class="cls-9" cx="1053.5" cy="566.34" rx="16.97" ry="16.94" transform="translate(-110.02 289.17) rotate(-14.86)"/>
    <circle class="cls-9" cx="1322.81" cy="364.64" r="16.04"/>
    <ellipse class="cls-9" cx="303.32" cy="770.4" rx="16.97" ry="16.94" transform="translate(-187.46 103.58) rotate(-14.86)"/>
    <circle class="cls-4" cx="774.97" cy="572.84" r="16.27"/>
    <circle class="cls-4" cx="1433.16" cy="587.98" r="16.27"/>
    <circle class="cls-4" cx="943.1" cy="939.29" r="16.27"/>
    <circle class="cls-9" cx="1454.15" cy="874.04" r="16.04"/>
    <circle class="cls-9" cx="874.61" cy="674.71" r="16.04"/>
    <g>
      <path class="cls-10" d="M723.82,373.92c-5.83-1.76-9.33-5.94-15.38-8.59-21.6-9.46-34.02-7.91-54.36,3.16-4.38,2.39-7.89,10.52-10.87.67,10.91-10.64,30.01-17.51,45.09-16.32,10.42.82,35.4,8.22,35.52,21.08Z"/>
      <path class="cls-10" d="M712.31,385.44c-6.68,1.58-5.62-3.68-10.07-6.2-11.9-6.74-31.47-3.45-41.79,5.27-8.19-1.71-1.5-6.54,2.52-9.05,12.9-8.08,47.18-10.58,49.34,9.98Z"/>
      <path class="cls-10" d="M700.63,391.39l.16,5.56-16.33-3.88c-3.17-3.08-17.47,6.29-18.2.98-1.48-10.77,28.27-6.68,34.37-2.66Z"/>
      <path class="cls-14" d="M681.61,402.73c3.4-3.66,8.59,7.69,2.87,7.63-1.97-.02-4.06-6.35-2.87-7.63Z"/>
    </g>
    <g>
      <path class="cls-19" d="M716.08,426.74c.29,9.55-.41,19.25,0,28.79.92,21.68,3.2,43.39,1.92,65.25-3.04,2.29-5.97,9.59-11.48,10.6-17.23,4.02-34.94,7.4-51.87,12.43-2.42-30.7-1.39-61.36-1.92-92.12-.32-18.61-7.57-26.44,18.27-28.75,17.99-1.61,29.2,1.03,45.08,3.8ZM668.06,434.29l-10.1,2.18,2.09,9.69,10.1-2.18-2.09-9.69ZM687.27,434.41l-8.75,1.81-.85,7.78,9.62.02-.02-9.61ZM706.49,434.43h-9.62s1.88,8.74,1.88,8.74l7.43-1.39.31-7.34ZM688.92,455.8l-9.31-2.18-.02,9.6,9.62-.02-.29-7.4ZM708.4,453.62c-16.91-4.16-11.66,15.73-1.79,8.76l1.79-8.76ZM670.01,455.54l-9.62-.02.02,9.61,8.75-1.81.85-7.78ZM708.39,472.8l-8.75,1.81-.85,7.78,9.62.02-.02-9.61ZM669.99,474.72c-13.07-1.7-13.32,11.23,0,9.61v-9.61ZM689.21,474.71h-9.62v7.7h9.62v-7.7Z"/>
      <path class="cls-7" d="M708.4,453.62l-1.79,8.76c-9.87,6.97-15.12-12.92,1.79-8.76Z"/>
      <polygon class="cls-7" points="670.01 455.54 669.16 463.33 660.41 465.14 660.39 455.52 670.01 455.54"/>
      <polygon class="cls-7" points="708.39 472.8 708.41 482.41 698.79 482.39 699.64 474.61 708.39 472.8"/>
      <rect class="cls-5" x="658.89" y="435.26" width="10.33" height="9.91" transform="translate(-77.84 149.79) rotate(-12.16)"/>
      <polygon class="cls-7" points="687.27 434.41 687.29 444.03 677.67 444.01 678.53 436.22 687.27 434.41"/>
      <path class="cls-7" d="M669.99,474.72v9.61c-13.32,1.62-13.07-11.31,0-9.61Z"/>
      <polygon class="cls-7" points="706.49 434.43 706.18 441.77 698.75 443.16 696.87 434.43 706.49 434.43"/>
      <polygon class="cls-7" points="688.92 455.8 689.21 463.2 679.59 463.22 679.61 453.62 688.92 455.8"/>
      <rect class="cls-7" x="679.59" y="474.71" width="9.62" height="7.7"/>
      <g>
        <path class="cls-22" d="M771.61,479.72c-2.51,1.86-5.18,3.86-7.68,5.76v-5.76s-7.67.01-7.67.01v7.66s5.75,0,5.75,0c-14.83,11.34-29.43,23.46-44.15,34.55,1.28-21.86-1-43.57-1.92-65.25,12.93-3.64,25.79-5.03,39.32-3.8,19.72,1.78,21.7,7.32,16.35,26.84ZM763.96,467.34c0-2.71-2.2-4.91-4.91-4.91s-4.91,2.2-4.91,4.91,2.2,4.91,4.91,4.91,4.91-2.2,4.91-4.91ZM729.36,464.37l-6.75,1.86-.91,7.71,7.36-2.23.3-7.35ZM746.65,464.36h-7.68v7.68h7.68v-7.68ZM731.44,484.5c0-2.74-2.22-4.96-4.96-4.96s-4.96,2.22-4.96,4.96,2.22,4.96,4.96,4.96,4.96-2.22,4.96-4.96ZM746.65,479.72h-7.68v7.68h7.68v-7.68Z"/>
        <path class="cls-20" d="M762.01,487.39h-5.76s.01-7.67.01-7.67h7.66s0,5.75,0,5.75c-.69.52-1.21,1.38-1.92,1.92Z"/>
        <circle class="cls-20" cx="726.49" cy="484.5" r="4.96"/>
        <circle class="cls-13" cx="759.05" cy="467.34" r="4.91"/>
        <polygon class="cls-7" points="729.36 464.37 729.06 471.72 721.7 473.95 722.61 466.24 729.36 464.37"/>
        <rect class="cls-7" x="738.97" y="464.36" width="7.68" height="7.68"/>
        <rect class="cls-7" x="738.97" y="479.72" width="7.68" height="7.68"/>
      </g>
    </g>
    <g>
      <path class="cls-10" d="M1134.58,263.58c3.71.98,20.83,9.54,23.09,12.43,2.89,3.71,2.3,3.88-1.04,6.76-10.93-7.38-24.77-15.22-38.37-15.49-14.88-.3-25.94,9.91-39.35,13.58,8.95-17.74,37.44-22.08,55.67-17.27Z"/>
      <path class="cls-15" d="M1146.08,294.27c-7.14-1.22-8.27-8.17-16.41-9.47-4.98-.8-13.58-.52-18.63.35-6.64,1.15-10.9,6-15.9,7.14-2.68.61-5.56,1.09-4.7-2.78,5.07-12.35,58.22-18.6,55.64,4.76Z"/>
      <path class="cls-10" d="M1134.28,300.32l.29,5.47-14.34-3.9-20.2,1c-1.37-9.48,28.76-7.93,34.25-2.58Z"/>
      <path class="cls-16" d="M1120.59,313.84v5.74s-5.74,0-5.74,0c-.63-3.5,2.11-6.35,5.74-5.74Z"/>
    </g>
    <path class="cls-8" d="M1200.35,426.62c-17.31-1.69-34.52-4.29-51.85-5.75-1.51-16.41-1.76-32.54-1.9-49.03-.02-2.76,1.91-5.6,1.91-6.63,8.57-6.43,46.89-4.45,51.97,2.74,6.5,9.2-3.21,45.72-.14,58.68ZM1157.79,377.03l-7.35-.31,1.88,8.75,7.71-1.09-2.24-7.35ZM1175.39,376.72h-7.68v7.68h7.68v-7.68ZM1192.66,376.73l-8.74,1.86,1.09,7.74,7.38-2.19.27-7.4ZM1158.11,393.99h-7.68v7.68h7.68v-7.68ZM1175.39,393.99h-7.68v7.68h7.68v-7.68ZM1192.66,394l-7.35.31-2.24,7.35,7.71,1.09,1.88-8.75Z"/>
    <polygon class="cls-5" points="1192.66 394 1190.78 402.75 1183.07 401.66 1185.31 394.31 1192.66 394"/>
    <polygon class="cls-7" points="1192.66 376.73 1192.39 384.13 1185 386.33 1183.92 378.59 1192.66 376.73"/>
    <polygon class="cls-20" points="1157.79 377.03 1160.03 384.39 1152.32 385.47 1150.44 376.73 1157.79 377.03"/>
    <rect class="cls-20" x="1150.43" y="393.99" width="7.68" height="7.68"/>
    <rect class="cls-7" x="1167.71" y="376.72" width="7.68" height="7.68"/>
    <rect class="cls-7" x="1167.71" y="393.99" width="7.68" height="7.68"/>
    <g>
      <path class="cls-10" d="M1444.24,338.01c9.55-1.37,50.71,5.67,48.45,17.7-.64,3.42-2.37,2.4-4.75.97-27.61-16.59-46.19-19.07-73,1.89-5.43-4.31-2.27-5.2,1.13-8.43,5.32-5.04,20.82-11.08,28.17-12.13Z"/>
      <path class="cls-11" d="M1425.51,368.2c-5.83-5.97,18.38-13.02,22.06-13.43,6.06-.67,15.96-.53,21.77,1.27,7.05,2.19,16.53,14.11,8.95,14.05-.76,0-7.36-7.33-12.42-8.66-4.97-1.3-11.3-1.43-16.39-.9-5.25.55-22.6,9.07-23.97,7.66Z"/>
      <path class="cls-11" d="M1469.36,376.16c6.23,10.11-11.57,2.06-16.01,1.63l-18.24.95c.44-11.45,31.81-6.53,34.25-2.58Z"/>
      <path class="cls-14" d="M1456.21,393.15h-5.74s0-5.74,0-5.74c3.63-.61,6.37,2.24,5.74,5.74Z"/>
      <path class="cls-6" d="M1483.1,441.14c-.01.34-2,3.03-2.06,6.49-.25,14.66,1.79,28.84,2.05,43.4-2.6,2.74-45.57-20.32-51.82-23.03,8.44-4.5,2.82-11.21-5.75-9.6v7.68c-3.54-1.51-7.46-4.9-9.61-5.76,1.07-10.22-.58-41.86,3.72-49.06.89-1.49,3.63-3.79,5.32-4.27,5.46-1.57,38.7-1.26,45.71-.45,17.4,2,12.9,20.56,12.43,34.59ZM1425.51,427.69l9.57-2.89c-.46-11.41-11.84-7.69-9.57,2.89ZM1454.28,420.06l-9.57-1.95v9.59c4.89,1.88,12.72-2.78,9.57-7.65ZM1471.49,418.15c-1.67-1.22-7.1,1.86-9.52,1.9.95,16.37,17.29,3.78,9.52-1.9ZM1473.5,439.23l-9.59-1.93v9.6s7.34-.33,7.34-.33l2.25-7.34ZM1425.5,439.21v7.7h9.62v-7.7h-9.62ZM1454.29,439.23h-9.6s.02,7.66.02,7.66c6.28.72,10.72-.41,9.58-7.66ZM1454.29,458.42h-9.6s.02,7.66.02,7.66l7.35-.3,2.23-7.35ZM1471.26,458.73l-7.35-.33v9.6s9.6-1.94,9.6-1.94l-2.25-7.33Z"/>
      <path class="cls-18" d="M1425.5,466.09v-7.68c8.58-1.61,14.2,5.1,5.76,9.6-1.63-.71-3.76-1.06-5.76-1.92Z"/>
      <path class="cls-18" d="M1471.49,418.15c7.77,5.68-8.57,18.27-9.52,1.9,2.42-.04,7.85-3.12,9.52-1.9Z"/>
      <path class="cls-5" d="M1425.51,427.69c-2.27-10.59,9.11-14.3,9.57-2.89l-9.57,2.89Z"/>
      <path class="cls-18" d="M1454.28,420.06c3.15,4.87-4.68,9.53-9.57,7.65v-9.59s9.57,1.95,9.57,1.95Z"/>
      <polygon class="cls-5" points="1471.26 458.73 1473.5 466.06 1463.91 468 1463.91 458.4 1471.26 458.73"/>
      <rect class="cls-18" x="1425.5" y="439.21" width="9.62" height="7.7"/>
      <polygon class="cls-5" points="1473.5 439.23 1471.26 446.58 1463.91 446.91 1463.91 437.31 1473.5 439.23"/>
      <path class="cls-5" d="M1454.29,439.23c1.14,7.25-3.3,8.37-9.58,7.66l-.02-7.66h9.6Z"/>
      <polygon class="cls-5" points="1454.29 458.42 1452.06 465.77 1444.71 466.08 1444.69 458.42 1454.29 458.42"/>
    </g>
  </g>
  <circle class="cls-9" cx="540.36" cy="649.1" r="50.9"/>
  <circle class="cls-19" cx="787.21" cy="797.01" r="50.9"/>
  <circle class="cls-1" cx="1151.19" cy="900.98" r="50.9"/>
  <ellipse class="cls-9" cx="1411.79" cy="697.41" rx="28.61" ry="29.9" transform="translate(-115.25 313.11) rotate(-12.16)"/>
  <path class="cls-16" d="M1414.15,688.69c.3.22,1.22-.12,1.92,0,4.2.72,4.52-2.26,9.6-1.9-9.01,6.11-3.67,6.07-3.84,7.66-.19,1.83-2.6,4.96-1.92,7.68v1.92c-1.85-.72-3.62,1.92-3.84,1.92-.64,0-1.28.03-1.92,0-3.19-.13-6.42.19-9.6,0-1.61-.1-4.2-2.39-7.67,0l5.74-7.66-11.5,1.9v-5.74s8.71,2.01,8.71,2.01c2.42-.09,2.06-1.21,2.8-2.02,1.42-1.55,1.28-4.83,1.92-5.76.35-.52,5.93.47,4.8-9.62,1.84,5.4.04,6.09,4.8,9.62Z"/>
  <path class="cls-14" d="M1404.55,688.69c-.64.93-.5,4.21-1.92,5.76-3.83.59-7.86.46-5.81-4.82.65-1.67,4.72.29,3.88-2.84-3.9.5-7.76.58-5.73-4.8,2.68-7.12,8.09,4.62,9.58,6.7Z"/>
  <path class="cls-17" d="M1414.15,705.96l-.95,9.59c-5.08-1.64,1.74-8.98-3.85-7.68-6.52,1.52-3.64,7.26-5.75,7.72-9.9,2.17-2.78-7.71.95-9.63,3.18.19,6.41-.13,9.6,0Z"/>
  <path class="cls-17" d="M1419.91,704.04c.28.11,2.78,2.37,4.83,3.63,2.53,1.55,5.45,3.18,2.83,5.96-4.04,4.28-8.52-7.65-11.51-7.67.21,0,1.99-2.64,3.84-1.92Z"/>
  <path class="cls-17" d="M1421.83,694.45l11.5-.93-11.49,2.87c-.48,2.41,2.34,2.37,3.83,3.82l-1.92,1.92c-.92-.33-2.66.22-3.84,0-.68-2.71,1.73-5.85,1.92-7.68Z"/>
  <path class="cls-17" d="M1414.15,688.69l.97-11.53c9.34-1.6,2.95,7.52.95,11.53-.7-.12-1.62.22-1.92,0Z"/>
  <path class="cls-16" d="M1425.67,700.2c.08.07,1.38-.36,1.9.98v2.85c-3.16.99-3.45-1.78-3.82-1.91l1.92-1.92Z"/>
  <ellipse class="cls-12" cx="1217.73" cy="651.16" rx="123.47" ry="130.24" transform="translate(-96.28 226.6) rotate(-10.23)"/>
</svg>