<?xml version="1.0" encoding="UTF-8"?>
<svg id="Layer_1" data-name="Layer 1" xmlns="http://www.w3.org/2000/svg" viewBox="0 0 130.49 124.03">
  <defs>
    <style>
      .cls-1 {
        fill: #3c3533;
      }

      .cls-1, .cls-2 {
        fill-rule: evenodd;
      }

      .cls-3 {
        fill: #cbdaec;
      }

      .cls-4 {
        fill: #444446;
      }

      .cls-5 {
        fill: #463c3d;
      }

      .cls-6 {
        fill: #1b1819;
      }

      .cls-7 {
        fill: #5c4f4e;
      }

      .cls-2 {
        fill: #f1f1f2;
      }
    </style>
  </defs>
  <path class="cls-4" d="M77.26,50.76c1.12,2.01,2.56,5.5,1.91,7.65-7.58-3.84-16.8-6.78-22.96,0-6.69,1.92-5.4-3.55-5.74-3.82,7.49-4.53,13.96-6.91,22.96-5.74,2.12.27,3.15,1.73,3.83,1.91Z"/>
  <path class="cls-5" d="M82.99,45.99c8.22,7.79-.18,6.28-5.73,4.77-.68-.18-1.71-1.64-3.83-1.91-8.9-5.73-18.38-.17-26.79,3.82-.5-.43-2.62.08-1.82-2.73,6.66-10.1,30.06-11.64,38.17-3.95h0Z"/>
  <path class="cls-7" d="M75.34,60.33c-.28.32.92,3.53-1.23,3.96-4.23.85-11.91-4.17-17.89-.14v-5.74c6.96-1.67,12.59-1.34,19.12,1.92Z"/>
  <path class="cls-3" d="M79.17,58.41c-.49,1.6-3.53,1.57-3.83,1.92-6.53-3.26-12.16-3.59-19.13-1.92,6.16-6.78,15.38-3.84,22.96,0Z"/>
  <path class="cls-1" d="M100.25,44.03c.9,7.62,1.68,30.93-5.77,34.47-3.42,1.63-46.52,1.86-52.72,1.05-5.02-.65-9.39-3.41-10.38-8.75-1.17-6.31-3.06-28.37-.96-33.39.74-1.75,4.21-4.83,6.1-5.37,5.72-1.65,43.84-1.33,51.29-.45,8.48,1.01,11.45,4.01,12.44,12.44ZM94.48,70.85v-30.61l-2.87-2.87h-56.45l1.91,36.35h54.54l2.87-2.87h0Z"/>
  <polygon class="cls-6" points="105.96 83.28 105.94 86.12 103.09 89.02 29.42 89.02 29.42 83.28 105.96 83.28"/>
  <path class="cls-2" d="M94.48,40.24v30.61l-2.87,2.87h-54.54l-1.91-36.35h56.45l2.87,2.87h0ZM77.26,50.76c5.55,1.51,13.95,3.02,5.73-4.77-8.11-7.69-31.51-6.15-38.17,3.95-.8,2.81,1.32,2.3,1.82,2.73,1.46,1.27,3.22,1.44,3.83,1.92.34.27-.95,5.74,5.74,3.82v5.74c5.99-4.03,13.67.99,17.9.14,2.15-.43.95-3.64,1.23-3.96.3-.35,3.34-.32,3.83-1.92.65-2.15-.79-5.64-1.91-7.65h0ZM68.18,67.94c0-1.31-1.06-2.36-2.37-2.36s-2.36,1.05-2.36,2.36,1.06,2.36,2.36,2.36,2.37-1.06,2.37-2.36Z"/>
  <path class="cls-5" d="M65.81,65.58c1.31,0,2.37,1.05,2.37,2.36s-1.06,2.36-2.37,2.36-2.36-1.06-2.36-2.36,1.06-2.36,2.36-2.36Z"/>
  <path class="cls-3" d="M73.54,48.89c-9.08-1.17-15.6,1.21-23.16,5.74-.62-.48-2.39-.65-3.86-1.92,8.48-3.99,18.05-9.55,27.02-3.82h0Z"/>
</svg>