<?xml version="1.0" encoding="UTF-8"?>
<svg id="Layer_1" data-name="Layer 1" xmlns="http://www.w3.org/2000/svg" viewBox="0 0 120.55 124.03">
  <defs>
    <style>
      .cls-1 {
        fill: #9bc86a;
      }

      .cls-2 {
        fill: #eaecec;
      }

      .cls-3 {
        fill: #373232;
      }

      .cls-4 {
        fill: #3c3533;
      }

      .cls-5 {
        fill: #5c4f4e;
      }

      .cls-6 {
        fill: #685a59;
      }
    </style>
  </defs>
  <path class="cls-3" d="M49.96,46.88c4.93-1.52,27.15,1.33,28.98,6.66,2.05,5.99-6.82,46.21-12.43,48.14-4.34,1.5-25.68-.31-27.19-4.71.01-9.25,2.23-47.51,10.64-50.09ZM69.32,71.09l-6.35-11.14c-4.75-.24-1.53,20.67-4.96,22.76-10.48,6.4-2.71-6.18-1.76-8.48,1.95-4.73-6.41-3.5-8.62,1-3.39,6.9,4.12,14.44,9.98,12,8.62-2.73,4.85-14.1,11.7-16.14h.01Z"/>
  <path class="cls-4" d="M79.24,27.4c-4.03-1.75-7.14-2.83-11.48-3.83-12.25-2.8-13.25-.81-24.87,3.83-2.55-7.04,12.91-11.39,18.24-11.57,6.82-.22,15.9,3.3,19.93,8.84.8,2.81-1.33,2.3-1.82,2.73Z"/>
  <path class="cls-4" d="M67.76,23.57c1.06.27,5.28,5.25,7.65,5.74-.99.87,2.71,2.77-3.83,3.83-1.79-5.28-10.4-4.3-15.31-3.83-1.76.17-4.93,2.69-7.65,1.91v-1.91c5.06-1.45,10.51-7.96,19.13-5.74h.01Z"/>
  <path class="cls-4" d="M65.85,33.14c1.27-.07,2.56.08,3.83,0v5.74c-1.89.15-3.84-.14-5.74,0-.61-1.75-.8-2.5-2.89-2l-8.58,1.99c-.35-1.13.35-3.25-.01-3.82,4.16-2.77,8.84-1.67,13.39-1.91h0Z"/>
  <path class="cls-1" d="M67.76,23.57c-8.62-2.23-14.07,4.29-19.13,5.74-2.22.64-4.91.38-5.74-1.91,11.62-4.64,12.63-6.63,24.87-3.83Z"/>
  <path class="cls-6" d="M65.85,33.14c-4.55.24-9.23-.85-13.39,1.91-.82-1.29-2.87-2.41-3.83-3.83,2.72.77,5.89-1.74,7.65-1.91l9.57,3.83Z"/>
  <path class="cls-5" d="M63.93,38.87c2.81,8.05-5.78,7.6-5.73.01,1.89-.12,3.84.13,5.73-.01Z"/>
  <path class="cls-2" d="M69.32,71.09c-6.85,2.04-3.09,13.41-11.7,16.14-5.86,2.43-13.37-5.1-9.98-12,2.21-4.5,10.57-5.73,8.62-1-.95,2.3-8.72,14.89,1.76,8.48,3.43-2.1.21-23,4.96-22.76l6.35,11.14h-.01Z"/>
  <path class="cls-1" d="M79.24,27.45c-1.58,1.42-3.68,1.72-4.17,2.16-2.58-.55-7.17-6.17-8.32-6.49,4.72,1.12,8.11,2.34,12.49,4.33h0Z"/>
</svg>