<?xml version="1.0" encoding="UTF-8"?>
<svg id="qr" xmlns="http://www.w3.org/2000/svg" viewBox="0 0 370.02 357.07">
  <defs>
    <style>
      .cls-1 {
        fill: #e4eef6;
      }

      .cls-2 {
        fill: #d7f1f8;
      }

      .cls-3 {
        fill: #eaecec;
      }

      .cls-4 {
        fill: #cbdaec;
      }

      .cls-5 {
        fill: #aac6e1;
      }

      .cls-6 {
        fill: #373232;
      }

      .cls-7 {
        fill: #444446;
      }

      .cls-8 {
        fill: #3c3533;
      }

      .cls-9 {
        fill: #463c3d;
      }

      .cls-10 {
        fill: #78a7b6;
      }

      .cls-11 {
        fill: #4e4e4f;
      }

      .cls-12 {
        fill: #747377;
      }

      .cls-13 {
        fill: #90a78e;
      }

      .cls-14 {
        fill: #1b1819;
      }

      .cls-15 {
        fill: #5c4f4e;
      }

      .cls-16 {
        fill: #685a59;
      }

      .cls-17 {
        fill: #ae9f99;
      }

      .cls-18 {
        fill: #cea6bb;
      }

      .cls-19 {
        fill: #fdfefe;
      }
    </style>
  </defs>
  <path class="cls-3" d="M92.21,94.04h185.6v185.56H92.21V94.04h0ZM130.47,97.86h-34.44v34.43h34.44v-34.43ZM159.17,113.17c0-1.56.53-4.92-.23-5.58l-5.65-1.2.12-8.51c-4.69-1.37-7.73,7.93-10.09,8.98-2.91,1.29-7.36-.52-9.04,2.48v26.79c3.17.03,6.38-.03,9.57-.01-.34,3.12.26,6.42-.01,9.56l-3.79-.03c.96-5.38-5.4-4.18-9.59-3.79.24-1.86-.12-3.87.01-5.74l-23.84-.13-4.87,5.87v-5.74h-5.73l.08,5.66c1.54.58,4.89-.4,5.65.07.14.09-.49,2.46.48,3.25,4.7,3.82,12.12-2.06,9.09,15.87,7.16,1.78,1.98-6.67,4.14-9.32.71-.87,3.11.06,3.51-.24h1.91v3.82h3.83c.25.29,0,4.35,0,5.74,3.18-.14,6.39.08,9.57,0v3.83c-3.14-.28-6.41.2-9.57,0v-3.83c-1.27.06-2.55-.06-3.81,0v2.85c.2.56,1.71.53,1.9.97,5.75,12.98,9,2.32,17.22,1.91.31.38-.3,1.46,0,1.91,2.29,3.54,6.72,2.78,9.57,0,.29-.28-.24-1.31,0-1.91.63-.61,1.43-1.18,1.91-1.91.9-1.38,1.72-3.73,1.91-3.83,1.19-.56,5.2,1.22,5.76-.96l-.02-4.77c-1.91-.09-3.83.03-5.74,0,.05-1.27.02-2.56,0-3.83,7.29-.66,3.39-6.95,9.56-5.73.31,1.16-.34,3.03,0,3.82,1.41,3.24,4.02,2.81,5.74,0,.28-.46-.28-1.45,0-1.91,3.89.37,8.36-.7,12.1.03,1.47.29,1.61,6.04,7.03,3.78.56-4.43-2.08-5.19-5.73-5.73v-3.83c5.07.24,10.23-.18,15.3.01.69,7.79-8.24-.38-5.72,9.54,4.53-2.69,13.37,8.99,8.5,9.61l-12.32-.02,7.66,3.82c1.84,7.31-4.26,3.87-3.87,8.6l3.91,1.9-3.87,8.63c-.22-.47-8-4.99-9.56-3.82-1.33,6.22,5.57,1.77,3.85,8.53-.2.77-2.3.92-3.03,1.81-.92,1.13-.58,2.74-.83,3.04-.76.95-2.76-2.64-3.83,3.83-.1.62.13,1.3,0,1.91-1.87.19-3.89-.23-5.74,0-.14,1.25.09,2.57,0,3.83h5.75c.21-1.24-.24-2.71,0-3.83,1.25-.13,2.69.21,3.83,0-.08,3.19,0,6.4,0,9.58,1.26.1,2.56-.1,3.82-.01-1.92,3.69-4.27,5.32-3.83,9.56h22.98v-5.72h-7.69l.14-12.36-5.86-1.04v-5.72l8.5-.14,1.43,5.49,5.38.38.97,3.85c3.48.57,3.13-.53,2.86-3.85.45.65,8.25.87,5.81,9.49,4.21-.2,9.31.66,13.32.07.14,4.45-.12,8.94,0,13.39-3.18-.08-6.39.08-9.56-.01l3.82-9.55-12.27-.04-1.12,5.76c3.78.09,6.82-1.51,5.73,3.82-7.25-.79-9.24-.79-12.43,5.71-3.17-6.52-5.24-6.45-12.45-5.7-1.57,8.23,2.48,4.36,5,6.43,4.74,3.91,3.54,4.03,4.58,8.86,7.24-.33,6,6.26,9.48,3.72.24-.17-.54-3.29,1.37-3.75,3.81-.92,9.3,2.52,8.28-3.79h3.83c.5,1.48-.1,5.46,0,7.65-1.27.08-2.56-.11-3.82-.01v9.59c-7.99,2.35-8.12-2.02-11.1-3.65-1.68-.92-5.36.3-7.23-1.99-1.64-2.03-.37-5.67-.82-7.76-1.91.09-3.13-1.07-3.85,1.3-1.93,6.35-.79,11.58-12.09,7.94-2.51-.81-3.72-2.78-3.19-5.4l9.57-3.83c-7.21,1.58-7.14-2.19-10.33-5.04-1.09-.97-2.82-.5-3.08-.71-.22-.19.42-3.43-.94-3.88l-4.79.06v3.81h5.73l-5.77,9.53c-3.3,2.34-5.77-7.7-9.52-3.78-5.16,5.39,9.7,11.91,9.56,17.21h-9.57c-1.97-2.08-3-10.09-9.56-7.66l-3.84,9.58v-15.31h9.56l-5.86-4.86v-13.23c.5-1.86,4.13-1.14,5.87-1.04.05,1.9-.05,3.83.01,5.73h3.81v-5.72c-1.26-.07-2.56.07-3.82,0-.05-1.78-1.52-11.69,2.85-9.58,1.89.91.05,3.73,1.42,5.29,1.28,1.46,11.99,5.96,14.85,4.28,1.51-6.13-3.59-2.5-5.29-4.24-.77-.79-.18-3.2-1.13-4.6-.65-.97-2.79-.63-2.95-.87-2.83-4.17,6.33-3.09,3.64-9.41l-3.84-.98.02-2.84c1.24-.13,2.58.15,3.81-.01.28-2.52-.7-5.96-.04-8.15.84-2.77,6.42-2.08,5.8-6.18l-4.35-.95-1.41-3.84,5.41-.33.33-5.41c3.89-.65,11.04,2.68,9.57-3.82l-5.87-1.04c1.52-7.34.16-20.5-9.47-17.04l.03,12.34h-13.41c.04,1.88-.14,3.84,0,5.73-13.04.03-7.86,2.76-9.57,3.83-.75.47-4.12-.51-5.65.07-1.77,7.76,3.96,8.08,6.9,1.89l2.57-.04c1.12,4.84-3.15,9.08,5.74,7.65l.98,5.75,2.82-.03,1.94-5.73,1.89,15.3-6.66-5.75c-2.93,6.85-4.47,5.24-10.54,5.75-1.09,11.13-5.13,8.4-5.76,10.99-.54,2.2.5,4.67-.57,7.63-1.26,3.47-10.25,3.27-8.97,8.16-1.26.02-2.59-.14-3.83,0l.02-3.82c-3.16.1-6.42-.24-9.58,0,.15-1.24-.1-2.57,0-3.83l9.57-1.91c.27-.6,0-2.7,0-3.83,3.19,0,6.39.02,9.58.01.1-4.45-.15-8.95-.01-13.4,3.13.02,6.48.26,9.57,0,.17-1.77.11-3.94,0-5.74,1.25-.13,2.56.1,3.81,0l.05-2.86-3.86-.96-1.03-5.86c-4.76.07-9.54.25-14.28.13-.09-3.19.09-6.4.01-9.58-3.82-.04-7.67.07-11.49.01h-1.91c-.09-1.26.12-2.56.01-3.82-3.17-.19-6.41.2-9.58,0,.2-1.88-.08-3.86,0-5.74-1.88-.2-3.89.23-5.74,0v-13.4l-9.56.02c-1.77,5.88,10.79,2.65,5.72,9.55-.35.48-2.98-.39-3.82,0-.59.28-1.69.28-1.9.95l-.02,4.78c10.15-2.84,9.07,3.47,9.57,3.83h-3.82v3.83c-2.3.13-4.55-.97-5.75,1.91-1.6,3.85,1.13,4.49,4.77,3.84l.97-3.84c1.23,0,2.7.18,3.83,0-.07,8.55-5.98,9.4-3.83,17.22.59,2.15,1.95,2.1,3.83,1.91l-4.89,11.4c-.86,1.53-4.21,1.43-4.72,3.33-.96,3.6-2.37,28.85,5.77,27.35v-15.3c2.29.38,5.79-.56,7.66,0,.04,2.16-1.22,3.85-1.91,5.74-.82,2.23-3.17,4.04-1.91,7.65l2.87,1.93,2.87-1.93v-7.65c1.81,0,4.16.29,5.74,0l-.02,3.82h7.67l.12,5.51c7.81-2.59,9.91,5.22,14.22,4.1.81-.21.92-3,1.51-3.25,1.59-.7,3.09-.5,3.28-.61.13,4.66-.97,12.24.26,16.07,1.04,3.23,5.01,2.58,5.48,3.06.3.31,4.46,6.45,3.79,7.61-7.11,4.6-9.27,7.58-19.1,5.79v5.72l24.89.02.96-15.32,6.68.02c1.94,5.01-3.53,3.43-3.87,4.77-1.03,4.05,8.27,12.1,9.61,10.52-2.52-11.4,3.81-14.48,13.4-15.29-1.12,5.7-8.39,9.09-7.66,15.3l13.28-.21,1.16-5.65,8.41.34,2.97,5.51c7.84-14.69,9.97,1.89,20.1.02.38-5.15-1.87-11.51,2.91-15.29,5.22-.8,1.76,5.23,3.38,9.07.17.4,5.74,3.69,6.16,6.18,2.42-.99,2.2-4.9,2.87-5.7.19-.23,3.42.44,3.87-.94l-.06-4.79h-3.81v5.73c-7.12,1.56-2.74-9.31-3.82-13.38l7.54,3.65,1.05-3.71h3.85c1.46,4.03,1.43,3.29,4.77,3.87-.57,4.33-7.81,7.61-2.73,15.34l21.87-.03v-15.33c-1.28-.11-2.57.1-3.84.01v-3.83c1.37-.32,3.94.49,3.83-1.91v-3.82l-2.85-.02-.98,3.84h-5.74v-3.82c-1.27-.14-2.56.07-3.83,0v-3.79l13.41-.03v-5.78l-13.41.03c.01-1.27-.02-2.55,0-3.82-1.71-.27-3.76,0-4.85-1.79l-.9-7.76h9.56c-.22,6.64-3.67,1.08-3.82,9.56,13.31,2.11,8.01-1.28,9.59-8.27.35-1.54,6.02-1.53,3.81-7.02-2.13-2.2-24.51,4.31-22.97-3.83h-5.74v3.81c-5.85,1.18-5.83-4.92,0-3.81l.97-5.75,4.77.02v5.74c7.21,1.92,2.09-7.51,4.06-9.45l5.32-.21c-2.76-8.67,6.33-9.63,2.95-15.24l-8.39-.17c-.64-1.11.21-3.02-.11-3.63-.99-1.91-1.66-2.21-3.83-1.91-.08-2.55.08-5.11,0-7.65,1.26-.11,2.56.06,3.83,0,1.11,6.9,5.12,9.95,5.74,0,1.26.07,2.58-.14,3.83,0,.11,2.41-.71,8.29.31,9.36l9.25,4.02c1.23-8.77-1.51-12.5-9.56-13.38-.09-1.91.07-3.83,0-5.74,4.95-1.14,9.88-1.94,9.62-8.61l-3.9-3.81,4.01-3.68c1-8.32-.24-16.59-9.92-16.22l-.83-6.07-21.94.14,3.83,9.56h-7.65l-1.91-17.22c-.4-2.39-2.1-1.78-3.83-1.91-.11-1.25.16-2.59,0-3.83,1.9-.14,3.85.14,5.74.01v-9.59c-4.99,1.28-7.8-.77-11.48-1.9v-1.91c3.86.13,6.66.98,9.57-1.91,4.31-4.29,1.68-10-3.81-9.57.16,1.73-.42,5.08-1.93,5.74-1.13.5-4.11-.33-5.74,0-2.53.1-2.48,5.44-1.91,7.65.75,2.94,8.82,5.74,9.57,11.48-1.89.14-3.84-.11-5.73.01v2.84c.39,1.3,1.82.9,1.9.98,1.7,1.62,1.5,1.44,3.83,1.91v17.23l-9.56-.02,3.82-9.55c-.73-.76-9.47.72-12.14.03-2.12-.55-1.02-3.62-1.26-3.86h5.73l-1.9-3.83c-.01-2.69-3.53-3.06-3.83,0v3.83c-1.41-1.42-6.21.75-3.83-9.56h3.82v-3.83c1.25.14,2.57-.09,3.83,0,1.01,1.63.91,5.93,1.91,7.65.81,1.38,3.45,1.5,3.83,1.91.62.69-1.18,3.35.98,3.84,2.94.67,3.87-.99,2.85-3.84-.86-2.42-1.91-1.74-3.83-1.91,1.33-9.34-.26-15.08-8.59-19.15l-.98,9.58c-1.01-.24-2.59.05-3.83,0-.64-.02-1.28,0-1.91,0-.08-1.26.07-2.55-.01-3.81-1.19.1-3.57-.26-3.82-.01s.15,2.63,0,3.83l3.83,1.91c-.2,1.14.32,3.54,0,3.83-1.05.96-5.13-3.21-3.98,6.8.53,4.62,5.4.85,3.97,6.58h-22.96c-.03,1.91,0,3.83.01,5.75-3.18-.15-6.4.13-9.58.01-.1-3.18.13-6.39.01-9.58,1.91-.07,3.84.09,5.74.01v-13.4c1.17.1,2.68.14,3.82,0v13.4h5.73l.98-9.59,2.86,9.59h5.72l.14-14.28-5.86-4.85c2.38-.56,8.17.74,9.56-.01.14-.08-.33-2.21.69-3.09,3.72-3.2,7.35-3.74,4.22-10.45l-13.45-1.89-1.03,5.86c-1.26.09-2.58-.14-3.83,0-2.37-7.76-5.18-9.59-5.74,0-3.17.06-6.4.1-9.57,0,.34,1.68-.26,3.91-.01,5.74l8.45.03c2.15-.29,1.03-4.03,1.13-5.78,1.27-.03,2.56.06,3.83,0v13.39h-3.83l-.98-3.84-2.84.02v3.81h-5.75c-1.22-1.76,2.9-2.97-3.83-3.83.53,9.59,3.47,9.67,3.83,19.13-1.26.05-2.56.04-3.83,0-.59-3.68-1.34-6.33-5.73-5.73v5.72c1.89.11,3.82-.05,5.73,0,.14.86.21,3.29,0,3.83l-4.56.17c-.73.35-.87,1.09-1.18,1.74-.89,1.89,2.14,4.91-3.82,3.82.58-5.2-.81-11.41-.16-16.38.39-2.96,3.47-2.01,3.98-12.3,1.85,0,3.96-.23,5.74,0-.16-2.92-.3-6.75,0-9.56,1.27.02,2.55-.04,3.83,0-.26-1.28.89-3.88-.98-3.84l-2.84.02c-.11,1.25.12,2.56-.01,3.81-1.91-.02-3.84.1-5.74,0-.16-1.89.13-3.84-.01-5.73h-3.81v5.72c1.27.12,2.55-.06,3.82,0,.25,2.96.15,6.56,0,9.56-1.26,0-2.59-.12-3.83,0l.08.03ZM210.85,97.85l-.02,5.74,5.74.02.02-5.74-5.74-.02ZM272.07,97.86h-32.53v34.43h32.53v-34.43ZM163.01,155.24l-.02,5.74,5.74.02.02-5.74-5.74-.02ZM205.09,203.09h-3.81v5.72h3.81v-5.72ZM272.08,203.07h-9.59c2.7,8.49-4.19,8.56-3.82,15.3l13.41.02v-15.32h0ZM182.15,222.2l-.02,5.74,5.74.02.02-5.74-5.74-.02ZM130.47,241.34h-34.44v34.43h34.44v-34.43ZM140.64,260.01c-2.16-4.6,1.91-10.97-3.47-14.81-4.46.09-2.56,17.45-2.88,21.01l9.58-.02c2.03-5.51-2.87-5.42-3.23-6.18Z"/>
  <path class="cls-3" d="M115.17,185.86c.06,1.25.08,2.58,0,3.83,1.9-.1,3.83.06,5.74,0,.81,6.2,3.4,3.09,3.83,3.83,2.99,5.14-5.46,5.04,9.57,5.74.09,2.55-.06,5.11,0,7.65l-4.77-3.87c-5.76-.71-5.15.33-4.8,5.77,1.88-.08,3.88.23,5.75,0v3.83c-11.62,0-9.18-3.46-10.6-3.85-4.44-1.21-5.92,3.61-9.06,6.36-1.65,1.45-1.33,5.08-4.29,1.35l-.1-11.64,8.75-1.79c1.4-5.14-2.48-2.84-3.78-5.3-.68-1.29.26-3.92-.06-4.25.25.25,2.62-.12,3.82-.01.08-1.26-.07-2.55.01-3.81-1.27.07-2.55-.06-3.81.01.1,1.19-.26,3.57-.01,3.82-.36-.38-4.08.54-5.5-.2l1.67-7.45h7.65v-.02Z"/>
  <path class="cls-3" d="M191.7,256.64v3.83c-1.88-.04-3.88-.16-5.74,0,.21-1.05.02-2.61,0-3.83-.01-.64.04-1.28,0-1.91h1.91c.52,1.9,2.13,1.94,3.83,1.91Z"/>
  <path class="cls-14" d="M205.1,122.73h1.91c-2.38,10.31,2.41,8.14,3.83,9.56v-3.83h3.83l1.9,3.82h-5.73c.24.25-.86,3.32,1.26,3.87,2.67.7,11.4-.78,12.14-.03l-3.82,9.55,9.57.02v-17.23c1.13.23,2.59-.16,3.82,0l1.91,17.22c.39,2.67,7.09,2.49,9.57,1.91v1.91c-.49.65-1.74,1.34-1.91,1.91-1.26.07-2.56-.13-3.82,0-.52,3.99-.18,4.34,3.82,3.81.27-1.2-.29-2.86,0-3.82.64-.04,1.28.05,1.91,0,2.49-.21,5.13,0,7.65,0l14.35,3.84v-3.85c-4.14-.12-8.31.19-12.43,0v-9.57c-6.11-1.82-5.55,2.48-7.65,3.83h-3.83l-3.83-9.56,21.94-.14.83,6.07c-.92-.92-2.42-.92-3.34,0s-.92,2.42,0,3.34,2.42.92,3.34,0,.92-2.42,0-3.34c9.68-.37,10.92,7.9,9.92,16.22l-4.01,3.68,3.9,3.81c.26,6.67-4.66,7.47-9.62,8.61-.15-4.45.12-8.95,0-13.4l-13.39.02c-1.45,6.93,7.05,1.65,9.54,6.71,2.12,4.32-4.83,2.17-5.52,2.95-.22,2.9-.65,6.66-.2,9.46-1.27.06-2.57-.11-3.83,0-.15-5.13,1.58-6.56-4.78-5.76l-.96,5.76-3.79.02c2.19,11.18,3.36.35,3.79-.02.39-.34,4.22.14,5.74,0,.08,2.55-.08,5.11,0,7.65.02.64-.03,1.28,0,1.91-3.18,0-6.38-.02-9.56.01-1.31,6.22,5.58,1.78,3.86,8.62-.31,1.25-5.83-.21-3.86,4.75h13.37c1.79-5.16-3.34-2.98-3.85-5.12-.57-2.39.17-5.62.03-8.26h3.83c.32.61-.54,2.52.11,3.63l8.39.17c3.38,5.62-5.71,6.57-2.95,15.24l-5.32.21c-1.97,1.93,3.16,11.37-4.05,9.45v-5.74l-4.77-.02-.97,5.75c-5.83-1.11-5.85,4.99,0,3.81v-3.81h5.75c-1.54,8.14,20.84,1.63,22.97,3.83,2.21,5.49-3.46,5.49-3.81,7.02-1.58,6.99,3.72,10.38-9.59,8.27.14-8.48,3.6-2.92,3.82-9.55h-9.56l.9,7.76c1.08,1.8,3.14,1.52,4.85,1.79-.02,1.27.01,2.55,0,3.82h-5.75v5.78h5.75v3.78c1.27.07,2.56-.13,3.82,0v3.82h-3.82c-.27-.65,0-2.69,0-3.83-1.91-.11-3.84.02-5.75-.01-.31,3.13.41,6.48,0,9.58,1.73.3,3.89-.24,5.74-.01v9.59l8.45.02c2.04-.31,1.11-7.25,1.11-9.6,1.26.09,2.56-.12,3.82-.01v15.33l-21.86.03c-5.08-7.73,2.16-11.01,2.73-15.34-3.35-.59-3.31.16-4.77-3.87h-3.85l-1.05,3.7-7.54-3.65c1.08,4.07-3.3,14.94,3.82,13.38-.67.81-.45,4.71-2.87,5.7-.42-2.49-5.99-5.78-6.16-6.18-1.62-3.84,1.84-9.87-3.38-9.07-4.78,3.78-2.53,10.14-2.91,15.29-10.14,1.87-12.26-14.71-20.1-.02l-2.97-5.51-8.41-.34-1.16,5.65-13.28.21c-.73-6.21,6.54-9.59,7.66-15.3,1.86-.16,3.86-.04,5.74,0,0,1.92-.05,3.84-.01,5.74h9.59v-5.73c-3.18-.09-6.39.06-9.58,0v-3.83c2.23-.04,2.85.75,3.83-1.91,1.88-5.12-5.18-6.23-3.83,0h-5.74c-.08-1.26.11-2.56,0-3.82l-6.59-.03-1.06,3.85h-5.74c.15-5.3-14.71-11.82-9.56-17.21,3.75-3.92,6.22,6.12,9.52,3.78l5.77-9.53c.25.21,1.99-.26,3.08.71,3.19,2.85,3.12,6.62,10.33,5.04l-9.57,3.83c-.53,2.63.67,4.59,3.19,5.4,11.3,3.64,10.15-1.59,12.09-7.94.72-2.37,1.93-1.21,3.85-1.3.45,2.09-.83,5.73.82,7.76,1.86,2.3,5.55,1.07,7.23,1.99,2.98,1.63,3.11,6,11.1,3.65v-9.59c1.26-.1,2.56.09,3.82.01.14,3.18-.14,6.4,0,9.58h5.72v-9.59c-1.89.04-3.83-.11-5.73.01-.1-2.19.5-6.17,0-7.65s-3.47-1.53-3.83-1.91c-1.46-1.55,1.16-6.12-9.56-3.82v3.81h9.56v1.92c1.01,6.31-4.47,2.88-8.28,3.79-1.91.46-1.13,3.58-1.37,3.75-3.48,2.55-2.24-4.05-9.48-3.72-1.04-4.84.16-4.96-4.58-8.86-2.51-2.07-6.57,1.79-5-6.43,7.21-.76,9.28-.82,12.45,5.7,3.18-6.5,5.18-6.5,12.43-5.71,1.09-5.33-1.95-3.74-5.73-3.82l1.12-5.76,12.27.04-3.82,9.55c3.17.09,6.38-.07,9.56.01.05,1.91-.05,3.83.01,5.73,3.58.6,6.32-2.14,5.72-5.72-1.9-.07-3.82.04-5.73-.01-.12-4.45.14-8.94,0-13.39,2.96-.43,5.92-.95,5.76-4.76-.09-2.25-4.66-.27-5.76-.98-.52-.33.43-6.68-9.56-3.82v3.81h9.56c.04,1.92-.06,3.84,0,5.75-4.02.58-9.11-.27-13.32-.07,2.44-8.62-5.36-8.84-5.81-9.49-.66-.96.46-7.36.01-9.56,5.14-1.84,3.04,3.42,5.06,3.85,5.49,1.18,13.83-.87,19.82-.04.43-6.06.5-8.57-5.75-9.56.21-1.17-.16-2.6,0-3.83,1.59-.14,4.54.66,5.46-.24l2.18-9.32c-3.01-.79-1.15,2.29-2.52,3.2-4.53,3.03-3.88-2.9-5.12,6.35-2.44.22-9.21-.99-9.58.98l.02,2.84c3.08.34,6.63-.45,9.56.01-1.38,7.54-5.98,6.17-13.22,5.44l-.51-5.1c-7.89-.02-8.38-4.37-.02-4.5l.35-5.4c5.8,1.11,5.85-5,0-3.81v3.81h-15.32l3.82,9.55h-13.38c.45.98-.68,3.9.16,5.48l13.37,1.1,1.78,8.73-5.38-.38-1.43-5.49-8.51.14v5.72l5.87,1.04-.14,12.37h7.69v5.72h-22.98c-.44-4.23,1.91-5.86,3.83-9.56,1.9.12,3.84-.02,5.74,0v-5.72c-5.42-.98-4.48,3.31-5.74,5.73-1.27-.08-2.56.12-3.82.01,0-3.18-.08-6.39,0-9.58,7.71-1.45,8.77-7.06,0-5.74-.05,1.27.07,2.56,0,3.83h-3.83c1.07-6.47,3.06-2.87,3.83-3.83.25-.31-.09-1.91.83-3.04.73-.89,2.83-1.04,3.03-1.81,1.72-6.76-5.17-2.31-3.85-8.53,1.56-1.18,9.34,3.35,9.56,3.82l3.87-8.63-3.91-1.9c-.38-4.73,5.72-1.29,3.87-8.6l-7.66-3.82,12.32.02c4.87-.61-3.97-12.3-8.5-9.61-2.52-9.92,6.41-1.75,5.72-9.54-5.07-.19-10.23.23-15.3-.01,0-1.92-.05-3.84-.01-5.74h22.96c1.43-5.73-3.44-1.96-3.97-6.58-1.15-10.02,2.93-5.85,3.98-6.8v.06ZM201.26,141.85v3.84h15.33v-3.84h-15.33ZM210.83,151.42v3.84h13.41v-3.84h-13.41ZM229.97,160.99h-9.56v3.82c9.98,2.88,9.03-3.5,9.56-3.82,3.03-1.77,7.64,4.21,5.73-9.57h-5.72v9.57h-.01ZM239.54,160.98v9.59h3.83v-9.59h-3.83ZM201.26,164.79l-.02,5.78,9.6.03.02-5.78-9.6-.03ZM234.29,168.6c0-1.3-1.06-2.36-2.36-2.36s-2.36,1.06-2.36,2.36,1.06,2.36,2.36,2.36,2.36-1.06,2.36-2.36ZM243.85,229.82c0-1.3-1.06-2.36-2.36-2.36s-2.36,1.06-2.36,2.36,1.06,2.36,2.36,2.36,2.36-1.06,2.36-2.36ZM249.11,237.48l-15.37.03.02,13.44,15.37-.03-.02-13.44ZM210.83,264.28l-.9-11.52-5.75-1.83-2.91,3.78,5.88,1.06c.74,3.77-2.9,9.93,3.68,8.52h0ZM220.89,268.08c0-1.3-1.06-2.36-2.36-2.36s-2.36,1.06-2.36,2.36,1.06,2.36,2.36,2.36,2.36-1.06,2.36-2.36Z"/>
  <path class="cls-14" d="M168.74,103.6c.13-1.25-.1-2.56.01-3.81l2.84-.02c1.87-.05.72,2.55.98,3.84-1.27-.04-2.55.02-3.83,0h0Z"/>
  <path class="cls-14" d="M140.04,199.25c-.13,4.45.11,8.95.01,13.4-3.18.01-6.39,0-9.58-.01v-3.83c1.66-.2,3.6.53,3.83-1.91-.06-2.55.09-5.11,0-7.65,1.9.09,3.83-.01,5.74,0Z"/>
  <path class="cls-14" d="M143.87,109.34v13.4c10.03,2.8,9.06-3.48,9.57-3.84.75-.52,4.59.88,5.74-1.91.27-.66,0-2.68,0-3.83,1.24-.12,2.57,0,3.83,0-.51,10.3-3.59,9.34-3.98,12.3-.65,4.97.74,11.18.16,16.38,5.96,1.09,2.93-1.93,3.82-3.82,2.7.1,4.68.76,5.74-1.91.21-.54.14-2.97,0-3.83,1.26.04,2.56.05,3.83,0,.12,3.18-.11,6.4-.01,9.58,3.18.12,6.4-.16,9.58-.01v3.83c-3.48-.52-11.61-1.01-13.39,1.91-.28.46.28,1.45,0,1.91h-5.74c-.34-.79.3-2.66,0-3.82-6.17-1.21-2.27,5.07-9.56,5.73-.05-3.18.05-6.38-.01-9.56h-3.81v9.57c1.26-.06,2.56.1,3.82-.01.02,1.27.05,2.56,0,3.83-11.64-.21-11.31-2.95-14.72-3.78-3.55-.87-8.27.41-12.07-.04.39-2.44,1.49-4.01,1.91-5.74.13-.51,1.62-1.53,1.91-3.83-1.23.11-3-.3-3.83,0-1.33.49-1.71,5.73-5.5,3.47-.58-.35-1.05-3.01-2.15-3.47-4.95-2.06-6.27,5.27,0,3.83.4,1.74,2.62,3.79,0,5.74-.4.29-2.8-.63-3.51.24-2.16,2.65,3.02,11.1-4.14,9.32,3.02-17.92-4.4-12.04-9.09-15.87-.98-.8-.34-3.17-.48-3.25l4.87-5.87,23.84.13c-.13,1.87.23,3.88-.01,5.74,4.2-.39,10.55-1.59,9.59,3.79l3.79.03c.27-3.13-.33-6.44.01-9.56,2.35.01,9.29.92,9.6-1.11l-.04-8.45-9.56,5.73v-5.73h-3.82v5.72h3.82c-.09,1.26.14,2.58,0,3.83-3.19-.02-6.39.04-9.58.01v-26.79c3.19-.01,6.39.02,9.58,0h0Z"/>
  <path class="cls-14" d="M168.74,103.6c-.3,2.82-.16,6.65,0,9.56-1.78-.23-3.89,0-5.74,0,.15-3.01.25-6.6,0-9.56,1.9.1,3.83-.02,5.74,0Z"/>
  <path class="cls-14" d="M159.17,170.56c-.15-1.89.03-3.84,0-5.74h13.41l-.03-12.33c9.63-3.46,10.99,9.7,9.47,17.04l5.87,1.04c1.47,6.5-5.67,3.17-9.57,3.82v-3.82h-5.73v3.81h5.73s-.33,5.42-.33,5.42l-5.41.33,1.41,3.84,4.35.95c.61,4.1-4.96,3.41-5.8,6.18-.66,2.19.32,5.63.04,8.15-1.24.16-2.57-.12-3.81.01l-.02,2.84,3.84.98c2.69,6.32-6.47,5.23-3.64,9.41.16.24,2.3-.1,2.95.87.94,1.4.36,3.82,1.13,4.6,1.7,1.75,6.8-1.89,5.29,4.24-2.86,1.69-13.57-2.82-14.85-4.28-1.37-1.57.47-4.38-1.42-5.29-4.37-2.11-2.9,7.8-2.85,9.58-1.74-.11-5.36-.83-5.87,1.04v13.23l5.86,4.86h-9.57v15.31s3.85-9.58,3.85-9.58c6.56-2.43,7.59,5.59,9.56,7.66,2.9,3.06,5.35,1.95,9.57,1.91v3.82c1.21-.13,2.95.31,3.83,0,1.21-.42,3.69-6.54,9.57-3.83.02,1.21.21,2.78,0,3.83-9.59.81-15.93,3.89-13.4,15.29-1.34,1.58-10.64-6.46-9.61-10.52.34-1.34,5.81.24,3.87-4.77l-6.68-.02-.96,15.32-24.89-.02v-5.72c9.83,1.79,11.99-1.18,19.1-5.79.68-1.16-3.49-7.31-3.79-7.61-.47-.49-4.44.16-5.48-3.06-1.23-3.83-.14-11.41-.26-16.07-.19.11-1.69-.09-3.28.61-.59.26-.7,3.04-1.51,3.25-4.31,1.12-6.41-6.69-14.22-4.1l-.12-5.5h-7.67l.02-3.83c1.87-.35,2.94.71,3.83-1.91.3-.9-.15-2.6,0-3.83-1.9.14-3.85-.17-5.75,0v3.82c-5.06-.46-4.65-3.5-5.74-3.83-1.87-.57-5.37.37-7.66,0v15.3c-8.15,1.51-6.74-23.74-5.78-27.35.51-1.9,3.86-1.79,4.72-3.33l4.89-11.4-3.83-1.91c-2.15-7.82,3.76-8.67,3.83-17.22.66-.11,1.39.17,1.91,0,.82-.26,1.47-1.17,1.91-1.91,1.64-.82,1.74-2.22,1.91-3.83,3.17.21,6.41-.19,9.58,0,.11,1.26-.11,2.56-.01,3.82-3.19.05-6.39-.07-9.57,0-1.18,6.59,2.86,3.91,3.83,9.56-2.52.08-6.32-.98-7.65,1.91l-1.67,7.45c1.42.74,5.14-.17,5.5.2-.25-.25.12-2.62.01-3.82,1.26-.07,2.54.06,3.81-.01-.08,1.26.07,2.55-.01,3.81-1.19-.1-3.57.26-3.82.01.32.33-.62,2.96.06,4.25,1.3,2.46,5.18.16,3.78,5.3l-8.75,1.79.1,11.64c2.97,3.73,2.65.1,4.29-1.35,3.13-2.75,4.61-7.57,9.06-6.36,1.41.38-1.02,3.84,10.6,3.85,0,1.13.27,3.23,0,3.83l-8.44.19-1.13,1.72c-.1,1.26.15,2.58,0,3.83,3.16-.23,6.42.11,9.58,0l-.02,3.82c-2.23.25-4.5-1.08-5.74,1.91-.23.55-.14,3.7,0,3.83.45.39,4.18-.23,5.73,0v-3.82c1.28,0,2.57.05,3.84,0l-.02,3.82h9.6c.07,1.91-.07,3.83-.01,5.74.96-.53,3.59.28,4.85-1.78l.88-13.53-5.73.02c-.31,1.16.34,3.05,0,3.82-3.19.03-6.38-.05-9.57,0-1.27-4.89,7.71-4.69,8.97-8.16,1.07-2.96.03-5.43.57-7.63.64-2.59,4.67.14,5.76-10.99,6.08-.51,7.61,1.09,10.54-5.75l6.66,5.75-1.89-15.3c-.63-.07-1.29.1-1.91,0-.02-1.27.03-2.55,0-3.83,1.31-.52,3.62.25,4.85-1.79l.9-7.77c-3.18-.04-6.39-.02-9.57,0,.42,5.32,3.63,1.82,3.83,9.56-.85.34-2.63-.27-3.82,0v3.82c-8.9,1.43-4.63-2.81-5.75-7.65-.51-2.2-2.03-2.09-3.83-1.91,1.71-1.07-3.48-3.8,9.57-3.83l-.03.07ZM159.17,203.08v5.74h7.65v-5.74h-7.65Z"/>
  <path class="cls-6" d="M130.47,241.34v34.43h-34.44v-34.43h34.44ZM124.77,247.04h-23.03v23.02h23.03v-23.02Z"/>
  <path class="cls-6" d="M130.47,97.86v34.43h-34.44v-34.43h34.44ZM124.77,103.57h-23.03v23.02h23.03v-23.02Z"/>
  <path class="cls-14" d="M272.07,97.86v34.43h-32.53v-34.43h32.53ZM268.27,103.57h-24.94v23.02h24.94v-23.02Z"/>
  <path class="cls-6" d="M191.7,103.6l1.03-5.86,13.45,1.89c3.12,6.71-.5,7.24-4.22,10.45-1.02.88-.56,3.01-.69,3.09-1.39.75-7.18-.55-9.56.01l5.86,4.85-.14,14.28h-5.72l-2.86-9.59-.98,9.59h-5.72v-13.4c1.66-.21,3.58.55,3.83-1.91v-13.39c.63-.03,1.29.07,1.91,0,1.25-.14,2.57.09,3.83,0v5.73h3.82v-5.72h-3.82l-.02-.02Z"/>
  <path class="cls-14" d="M272.08,203.07v15.32l-13.41-.02c-.37-6.74,6.52-6.82,3.82-15.31h9.59Z"/>
  <path class="cls-9" d="M159.17,116.99c-1.15,2.79-4.99,1.39-5.74,1.91v-1.91h5.74Z"/>
  <path class="cls-9" d="M134.3,109.34c1.68-3.01,6.13-1.19,9.04-2.48,2.36-1.05,5.4-10.35,10.09-8.98l-.12,8.51,5.65,1.2c.76.66.23,4.02.23,5.58-1.88.19-3.85-.14-5.73.01v3.82c-6.07,1.37-2.52-5.76-5.71-8.72-2.23-2.06-3.59,1.06-3.87,1.06-3.19.02-6.39-.01-9.57,0h-.01Z"/>
  <path class="cls-6" d="M140.64,260.01c.36.77,5.26.67,3.23,6.18l-9.58.02c.32-3.56-1.58-20.93,2.88-21.01,5.37,3.85,1.31,10.21,3.47,14.81Z"/>
  <path class="cls-14" d="M210.84,116.99l.98-9.58c8.33,4.07,9.92,9.81,8.59,19.15-1.26-.11-2.56.07-3.83,0-1.01-1.72-.9-6.02-1.91-7.65-1.46-2.35-1.87-1.45-3.83-1.91h0Z"/>
  <path class="cls-14" d="M153.43,160.99c-.19.09-1.02,2.45-1.91,3.83-.79.41-1.59,1.08-1.91,1.91-.24.61.29,1.63,0,1.91h-9.57c-.3-.46.31-1.53,0-1.91-2.3-2.85-2.86-1.65-5.74-1.91v-3.83c6.36-.15,12.78.11,19.13,0Z"/>
  <path class="cls-14" d="M122.82,174.38c3.82.05,7.67-.06,11.49-.01.08,3.18-.1,6.39-.01,9.58,4.74.13,9.52-.06,14.28-.13l1.03,5.86,3.86.96-.05,2.86c-1.25.11-2.56-.12-3.81,0-.08-1.27.05-2.56,0-3.83h-15.32c-.07-1.9.07-3.83.01-5.74-1.27-.03-2.55.02-3.83,0-.05-1.26.77-3.94-.97-3.84l-4.77.02c-.12,1.27.06,2.55,0,3.82-1.28,0-2.55-.02-3.83,0-.11-2.54.08-5.11,0-7.65l1.91-1.91h0Z"/>
  <polygon class="cls-8" points="254.85 241.34 255.82 245.17 258.67 245.14 256.76 241.34 258.67 241.33 272.07 241.31 272.09 247.09 258.67 247.11 252.93 247.12 252.92 241.34 254.85 241.34"/>
  <path class="cls-14" d="M262.5,180.12c8.04.89,10.79,4.61,9.56,13.38l-9.25-4.02c-1.02-1.07-.2-6.95-.31-9.36Z"/>
  <path class="cls-14" d="M233.8,107.43l-8.35.26-1.21,1.65v1.91c-.99-.31-2.63.21-3.83,0-.56-2.21-.61-7.56,1.91-7.65.36,2.9,5.26,2.87,5.74,0,1.52-.66,2.09-4.02,1.93-5.74,5.49-.43,8.12,5.28,3.81,9.57h0Z"/>
  <path class="cls-14" d="M97.95,160.99c.84-.4,3.47.47,3.82,0,5.07-6.9-7.49-3.67-5.72-9.55l9.57-.02v13.4c-2.5-.3-5.16.26-7.68,0v-3.82h.01Z"/>
  <path class="cls-9" d="M224.23,111.25c3.68,1.14,6.49,3.19,11.49,1.9v9.59c-1.91.13-3.86-.15-5.75-.01-.75-5.74-8.82-8.54-9.57-11.48,1.2.21,2.84-.31,3.83,0Z"/>
  <path class="cls-9" d="M134.3,164.82c2.88.26,3.44-.94,5.74,1.91-8.22.41-11.47,11.07-17.22-1.91h1.91c3.16.2,6.42-.28,9.57,0Z"/>
  <path class="cls-17" d="M118.99,141.86c1.1.46,1.57,3.12,2.15,3.47,3.79,2.27,4.17-2.98,5.5-3.47l1.91,3.83c-.42,1.73-1.52,3.3-1.91,5.74-.19,1.2.13,2.59,0,3.83h-1.91v-3.82h-5.74c2.62-1.95.4-4,0-5.74-.25-1.1.17-2.6,0-3.83h0Z"/>
  <path class="cls-16" d="M97.95,160.99v3.82c2.5.26,5.16-.3,7.65,0,1.85.22,3.87-.2,5.74,0-.08,1.89.2,3.87,0,5.74-1.52-.1-5.28.34-5.74,0-.5-.37.58-6.68-9.57-3.83l.02-4.78c.2-.67,1.31-.67,1.9-.95h0Z"/>
  <path class="cls-6" d="M126.65,155.25h7.66c.04,1.9,0,3.82-.01,5.74-3.18.08-6.39-.14-9.57,0,0-1.39.25-5.45,0-5.74h1.92Z"/>
  <path class="cls-6" d="M182.14,103.6c-.1,1.74,1.02,5.49-1.13,5.78l-8.45-.03c-.25-1.83.35-4.06.01-5.74,3.17.1,6.4.06,9.57,0h0Z"/>
  <path class="cls-6" d="M149.61,193.51c.11,1.8.17,3.97,0,5.74-3.09.26-6.44.02-9.57,0,.06-1.91-.09-3.84-.01-5.74,3.15-.26,6.45.34,9.58,0Z"/>
  <path class="cls-14" d="M111.34,227.95v7.65h-5.74c-1.26-3.61,1.09-5.42,1.91-7.65h3.83Z"/>
  <path class="cls-15" d="M149.61,174.38c1.79-.18,3.32-.28,3.83,1.91l-2.57.04c-2.95,6.2-8.67,5.88-6.9-1.89,1.53-.57,4.9.4,5.65-.07h-.01Z"/>
  <path class="cls-12" d="M109.43,222.21c1.08.33.67,3.37,5.74,3.83,1.89.17,3.84-.11,5.74,0-.89,2.62-1.96,1.57-3.83,1.91-1.58.29-3.93,0-5.74,0h-3.83c.69-1.89,1.96-3.58,1.91-5.74h0Z"/>
  <path class="cls-15" d="M101.77,141.86c-.76-.47-4.11.51-5.65-.07l-.08-5.66h5.72v5.73h.01Z"/>
  <rect class="cls-11" x="210.71" y="97.71" width="5.74" height="5.74" transform="translate(112.25 313.8) rotate(-89.8)"/>
  <path class="cls-11" d="M258.67,180.12c-.62,9.95-4.63,6.9-5.74,0,1.88-.08,3.87-.11,5.74,0Z"/>
  <path class="cls-15" d="M187.88,103.6c-.62.07-1.28-.03-1.91,0-1.27.06-2.55-.03-3.83,0,.56-9.59,3.37-7.76,5.74,0Z"/>
  <path class="cls-9" d="M163,183.95c.62.1,1.28-.07,1.91,0l-1.94,5.73-2.82.03-.98-5.75c1.24.11,2.62-.19,3.83,0h0Z"/>
  <path class="cls-13" d="M262.5,254.73h9.57c.11,2.4-2.45,1.59-3.83,1.91-1.6.38-3.94-.25-5.74,0-.35-.38-3.18-.36-3.83-1.91h3.83Z"/>
  <path class="cls-6" d="M210.84,118.91v3.82h-5.74c.32-.29-.2-2.68,0-3.83.1-.57.04-1.33,0-1.91.64,0,1.28-.02,1.91,0,.56,1.9,2.21,1.73,3.83,1.91h0Z"/>
  <path class="cls-9" d="M239.54,270.03v-5.74h3.82s.06,4.8.06,4.8c-.45,1.38-3.68.71-3.87.94h-.01Z"/>
  <path class="cls-8" d="M268.24,256.64v3.83c-9.02-.64-4.3-2.26-5.74-3.83,1.8-.25,4.14.38,5.74,0Z"/>
  <path class="cls-6" d="M229.97,122.73c.16,1.24-.11,2.57,0,3.83-1.26-.1-2.56.07-3.83,0-.08-.08-1.52.33-1.89-.98v-2.84c1.88-.12,3.83.13,5.72-.01Z"/>
  <path class="cls-7" d="M101.77,176.3l-.97,3.84c-3.65.66-6.38.02-4.77-3.84h5.74Z"/>
  <path class="cls-9" d="M163,103.6c-1.27-.06-2.56.11-3.82,0v-5.72h3.81c.14,1.89-.15,3.84.01,5.73h0Z"/>
  <path class="cls-7" d="M262.5,174.38c.07,1.91-.09,3.83,0,5.74-1.25-.14-2.57.07-3.83,0,.12-1.9-.14-3.84,0-5.74,1.23-.22,2.74.25,3.82,0h.01Z"/>
  <path class="cls-12" d="M243.36,145.69h3.83c-.45.29-.85,1.66-1.91,1.91-2.47.58-9.17.76-9.57-1.91h7.65Z"/>
  <path class="cls-9" d="M233.8,107.43c-2.91,2.89-5.71,2.04-9.57,1.91l1.21-1.65,8.35-.26h.01Z"/>
  <path class="cls-15" d="M149.61,168.64c-2.85,2.78-7.28,3.54-9.57,0h9.57Z"/>
  <path class="cls-16" d="M101.77,174.38c1.27-.07,2.56.05,3.83,0,.04.63,0,1.28,0,1.91-1.13.18-2.59,0-3.83,0h-5.74c1.2-2.89,3.45-1.78,5.74-1.91Z"/>
  <path class="cls-12" d="M229.97,126.56c1.73.14,3.42-.47,3.83,1.91-1.23-.16-2.69.23-3.83,0-2.33-.47-2.13-.29-3.83-1.91,1.27.07,2.57-.1,3.83,0Z"/>
  <polygon class="cls-14" points="268.24 254.73 269.21 250.89 272.06 250.91 272.07 254.73 268.24 254.73"/>
  <path class="cls-14" d="M105.6,170.56c.05,1.26-.09,2.56,0,3.83-1.27.05-2.56-.07-3.83,0v-3.81h3.83v-.02Z"/>
  <path class="cls-12" d="M210.84,116.99c1.96.47,2.37-.44,3.83,1.91-1.26-.09-2.58.14-3.83,0-1.62-.18-3.27-.02-3.83-1.91,1.24.05,2.82-.24,3.83,0Z"/>
  <path class="cls-14" d="M124.73,160.99v3.83h-1.91c-.19-.44-1.7-.41-1.9-.97v-2.85c1.26-.07,2.54.05,3.81,0h0Z"/>
  <path class="cls-14" d="M201.27,113.17c.25-.25,2.62.12,3.82.01.08,1.26-.07,2.55.01,3.81h-3.83c.15-1.2-.26-3.57,0-3.83h0Z"/>
  <polygon class="cls-14" points="120.91 151.43 124.73 151.43 124.73 155.25 120.91 155.25 120.91 151.43"/>
  <path class="cls-9" d="M228.06,103.6c-.48,2.87-5.38,2.9-5.74,0,1.63-.33,4.61.5,5.74,0Z"/>
  <polygon class="cls-12" points="111.34 235.6 108.47 237.53 105.6 235.6 111.34 235.6"/>
  <path class="cls-4" d="M252.93,189.69h-3.83c-.03-.64.02-1.28,0-1.91,2.17-.3,2.84,0,3.83,1.91Z"/>
  <path class="cls-10" d="M105.6,195.43c-1.87.19-3.24.24-3.83-1.91l3.83,1.91Z"/>
  <path class="cls-16" d="M120.91,176.3c-.02-.64.05-1.28,0-1.91h1.91l-1.91,1.91Z"/>
  <path class="cls-4" d="M216.58,174.38v-3.81c5.85-1.19,5.8,4.92,0,3.81l-.35,5.4c-8.36.13-7.88,4.48.02,4.5l.51,5.1c7.23.72,11.84,2.1,13.22-5.44-2.92-.46-6.48.33-9.56-.01l-.02-2.84c.37-1.96,7.14-.76,9.58-.98-.16,1.23.21,2.66,0,3.83,6.25.99,6.17,3.5,5.75,9.56-5.98-.83-14.33,1.22-19.82.04-2.02-.43.08-5.69-5.06-3.85.45,2.19-.67,8.6-.01,9.56h-3.83l-1.78-8.73-13.37-1.1c-.84-1.58.29-4.51-.16-5.47h13.38l-3.82-9.56h15.32Z"/>
  <path class="cls-4" d="M249.11,237.48l.02,13.44-15.37.03-.02-13.44,15.37-.03ZM243.35,241.35h-3.81v5.72h3.81v-5.72Z"/>
  <path class="cls-4" d="M258.67,250.9c0,1.14-.27,3.18,0,3.83.65,1.55,3.48,1.53,3.83,1.91,1.44,1.57-3.28,3.19,5.74,3.83,0,2.35.93,9.29-1.11,9.6l-8.47-.02v-9.59c-1.84-.23-4,.32-5.73.01.41-3.1-.31-6.45,0-9.58,1.9.03,3.84-.09,5.75.01h-.01Z"/>
  <path class="cls-4" d="M252.93,180.12c-.45-2.8-.02-6.55.2-9.46.69-.78,7.64,1.37,5.52-2.95-2.48-5.06-10.99.22-9.54-6.71l13.39-.02c.11,4.45-.16,8.95,0,13.4-1.08.25-2.59-.23-3.82,0-.15,1.9.11,3.84,0,5.74-1.87-.11-3.86-.08-5.74,0h-.01Z"/>
  <path class="cls-3" d="M249.1,189.69c.14,2.65-.6,5.87-.03,8.26.51,2.14,5.64-.04,3.85,5.12h-13.37c-1.96-4.96,3.55-3.51,3.86-4.75,1.71-6.83-5.17-2.4-3.86-8.62,3.17-.03,6.38-.01,9.56-.01h-.01Z"/>
  <path class="cls-18" d="M247.19,145.69c2.1-1.35,1.54-5.65,7.65-3.83v9.57c-.63-.03-1.27,0-1.9,0-2.52,0-5.16-.21-7.65,0v-3.83c1.06-.25,1.46-1.62,1.91-1.91h-.01Z"/>
  <path class="cls-19" d="M210.83,264.28c-6.58,1.41-2.94-4.75-3.68-8.52l-5.88-1.06,2.91-3.78,5.75,1.83.9,11.52h0Z"/>
  <path class="cls-1" d="M254.85,151.43c4.12.18,8.29-.13,12.43,0v3.85l-14.35-3.84c.64,0,1.28-.03,1.91,0h0Z"/>
  <rect class="cls-4" x="207.03" y="136.15" width="3.84" height="15.33" transform="translate(65.02 352.69) rotate(-89.97)"/>
  <rect class="cls-5" x="203.18" y="162.9" width="5.78" height="9.6" transform="translate(37.79 373.3) rotate(-89.84)"/>
  <path class="cls-18" d="M229.97,160.99v-9.58h5.73c1.91,13.78-2.7,7.8-5.73,9.57h0Z"/>
  <path class="cls-18" d="M191.7,260.47c3.19.07,6.4-.09,9.58,0v5.72h-9.59c-.03-1.9,0-3.82.01-5.73h0Z"/>
  <path class="cls-18" d="M224.23,241.34c1.9-.12,3.84.03,5.74-.01v9.59h-5.74c-.15-3.18.13-6.4,0-9.58Z"/>
  <rect class="cls-1" x="215.73" y="146.79" width="3.84" height="13.41" transform="translate(64 371.04) rotate(-89.96)"/>
  <path class="cls-12" d="M172.57,254.73h13.39c.04.63-.01,1.28,0,1.91-5.88-2.71-8.35,3.41-9.57,3.83v-3.82h-3.83c-4.21.04-6.66,1.15-9.57-1.91h9.58Z"/>
  <path class="cls-1" d="M229.97,203.08h-9.56v-3.82c9.99-2.86,9.04,3.48,9.56,3.82Z"/>
  <path class="cls-4" d="M229.97,160.99c-.53.31.43,6.69-9.56,3.82v-3.81h9.56s0,0,0,0Z"/>
  <rect class="cls-3" x="236.79" y="164.02" width="9.59" height="3.84" transform="translate(75.36 407.32) rotate(-89.93)"/>
  <path class="cls-4" d="M220.4,231.77h-9.56v-3.82c10.71-2.31,8.1,2.27,9.56,3.82Z"/>
  <path class="cls-18" d="M229.97,180.12c1.24-9.25.59-3.32,5.12-6.35,1.37-.91-.49-4,2.52-3.2l-2.18,9.32c-.92.89-3.88.1-5.46.24h0Z"/>
  <path class="cls-17" d="M243.36,180.12l.96-5.76c6.36-.8,4.63.63,4.78,5.76-1.52.14-5.35-.34-5.74,0Z"/>
  <path class="cls-17" d="M229.97,203.08c1.1.71,5.67-1.27,5.76.98.15,3.81-2.8,4.33-5.76,4.76-.06-1.91.04-3.83,0-5.74Z"/>
  <path class="cls-18" d="M229.97,222.21c1.91.05,3.83-.06,5.73.01.6,3.57-2.14,6.32-5.72,5.72-.07-1.9.04-3.82-.01-5.73Z"/>
  <path class="cls-2" d="M178.31,254.73l1.06-3.85,6.59.03c.12,1.26-.08,2.56,0,3.82h-7.65Z"/>
  <path class="cls-4" d="M191.7,254.73c-1.35-6.23,5.71-5.12,3.83,0h-3.83Z"/>
  <path class="cls-2" d="M243.36,180.12c-.43.37-1.6,11.2-3.79.02l3.79-.02Z"/>
  <path class="cls-12" d="M191.7,254.73h3.83c-.98,2.66-1.6,1.87-3.83,1.91-1.7.03-3.31-.01-3.83-1.91h3.83Z"/>
  <circle class="cls-3" cx="218.53" cy="268.08" r="2.36"/>
  <circle class="cls-18" cx="231.92" cy="168.6" r="2.36"/>
  <circle class="cls-3" cx="241.49" cy="229.82" r="2.36"/>
  <circle class="cls-4" cx="260.63" cy="143.73" r="2.36"/>
  <path class="cls-1" d="M243.36,151.43c-.3.96.26,2.62,0,3.82-4,.53-4.34.18-3.82-3.81,1.27-.14,2.56.07,3.82,0h0Z"/>
  <polygon class="cls-3" points="256.76 241.34 258.67 245.14 255.82 245.17 254.85 241.34 256.76 241.34"/>
  <path class="cls-18" d="M224.23,233.69h-3.83v-1.91c.36.38,3.32.4,3.83,1.91Z"/>
  <path class="cls-12" d="M245.28,151.43c-.63.05-1.28-.04-1.91,0,.18-.58,1.43-1.26,1.91-1.91v1.91Z"/>
  <path class="cls-4" d="M143.87,226.03c.35-.76-.3-2.66,0-3.82l5.73-.02-.88,13.53c-1.26,2.06-3.9,1.25-4.85,1.78-.05-1.91.08-3.84.01-5.74h-9.6l.02-3.82c2.8-.12,5.64.39,8.44-.17.83-.33.83-1.08,1.13-1.75h0Z"/>
  <path class="cls-4" d="M159.17,170.56c3.19,0,6.39-.03,9.57,0l-.9,7.77c-1.23,2.04-3.53,1.27-4.85,1.79.03,1.27-.02,2.55,0,3.83-1.21-.19-2.59.11-3.83,0v-3.82c1.19-.28,2.97.33,3.83,0-.2-7.75-3.41-4.25-3.83-9.56h.01Z"/>
  <rect class="cls-3" x="159.17" y="203.08" width="7.65" height="5.74"/>
  <path class="cls-12" d="M130.47,226.03c1.24-.14,2.57.02,3.83,0,3.19-.05,6.38.03,9.57,0-.3.67-.3,1.42-1.13,1.75-2.8.55-5.64.05-8.44.17-1.27.05-2.55,0-3.83,0h-5.74c1.24-2.99,3.51-1.67,5.74-1.91h0Z"/>
  <polygon class="cls-4" points="178.31 174.38 172.58 174.37 172.58 170.57 178.3 170.57 178.31 174.38"/>
  <path class="cls-4" d="M126.65,151.43c3.8.45,8.52-.83,12.07.04,3.41.83,3.08,3.58,14.72,3.78-.07,1.91.05,3.83,0,5.74-6.36.11-12.78-.15-19.13,0,0-1.92.05-3.84.01-5.74h-7.66c.13-1.23-.19-2.62,0-3.82h0Z"/>
  <path class="cls-4" d="M159.17,113.17c0,1.15.27,3.16,0,3.83h-5.74v-3.82c1.89-.15,3.86.18,5.74-.01Z"/>
  <path class="cls-4" d="M143.87,109.34c.28,0,1.64-3.13,3.87-1.06,3.19,2.96-.36,10.08,5.7,8.72v1.91c-.51.35.46,6.63-9.57,3.84v-13.4h0Z"/>
  <path class="cls-4" d="M143.87,132.3l9.56-5.73.04,8.45c-.31,2.03-7.26,1.12-9.6,1.11.14-1.25-.09-2.57,0-3.83h0Z"/>
  <path class="cls-12" d="M182.14,145.69c3.65.54,6.29,1.3,5.73,5.73-5.41,2.26-5.55-3.49-7.03-3.78-3.74-.74-8.2.34-12.1-.03,1.78-2.93,9.91-2.43,13.39-1.91h.01Z"/>
  <path class="cls-4" d="M153.43,151.43c-1.25.11-2.56-.05-3.82.01v-9.57h3.81c.06,3.17-.04,6.38.01,9.56h0Z"/>
  <polygon class="cls-5" points="143.87 132.3 140.05 132.29 140.05 126.57 143.86 126.57 143.87 132.3"/>
  <path class="cls-4" d="M130.47,141.86c-.3,2.3-1.79,3.31-1.91,3.83l-1.91-3.83c.82-.3,2.6.11,3.83,0h0Z"/>
  <path class="cls-12" d="M168.74,149.51c-1.72,2.81-4.34,3.24-5.74,0h5.74Z"/>
  <path class="cls-11" d="M168.74,136.12c-1.06,2.67-3.04,2.01-5.74,1.91.31-.65.45-1.39,1.18-1.74l4.56-.17h0Z"/>
  <path class="cls-3" d="M124.77,247.04v23.02h-23.03v-23.02h23.03ZM120.92,250.87l-15.37.03.02,13.44,15.37-.03-.02-13.44Z"/>
  <path class="cls-3" d="M124.77,103.57v23.02h-23.03v-23.02h23.03ZM120.94,107.39h-15.37v15.37h15.37v-15.37Z"/>
  <path class="cls-4" d="M268.27,103.57v23.02h-24.94v-23.02h24.94ZM262.51,109.33h-13.42v13.42h13.42v-13.42Z"/>
  <path class="cls-5" d="M120.91,222.21c-.15,1.23.3,2.93,0,3.83-1.9-.11-3.85.17-5.74,0v-3.82c1.89-.17,3.84.14,5.74,0h0Z"/>
  <polygon class="cls-12" points="130.47 216.47 120.91 218.38 122.03 216.66 130.47 216.47"/>
  <path class="cls-4" d="M172.57,256.64h3.82v3.83c-.87.3-2.61-.13-3.82,0v-3.82h0Z"/>
  <path class="cls-15" d="M178.31,116.99h7.65c-.25,2.46-2.16,1.71-3.83,1.91-1.14.14-2.66.1-3.83,0-3.03-.25-3.72.99-5.74-1.91h5.75Z"/>
  <polygon class="cls-18" points="191.7 103.6 195.52 103.61 195.52 109.33 191.71 109.33 191.7 103.6"/>
  <path class="cls-4" d="M118.99,141.86c.17,1.22-.25,2.73,0,3.83-6.27,1.44-4.95-5.89,0-3.83Z"/>
  <path class="cls-18" d="M130.47,227.95v3.82c-1.56-.22-5.29.39-5.74,0-.14-.13-.23-3.27,0-3.83h5.74Z"/>
  <path class="cls-12" d="M220.4,126.56c1.92.17,2.96-.51,3.83,1.91h-3.83c-.38-.42-3.02-.53-3.83-1.91,1.27.07,2.57-.11,3.83,0Z"/>
  <path class="cls-15" d="M149.61,166.73c.33-.84,1.12-1.5,1.91-1.91-.48.74-1.28,1.3-1.91,1.91Z"/>
  <path class="cls-4" d="M120.91,174.38c.05.63-.02,1.28,0,1.91.08,2.55-.11,5.11,0,7.65-1.91.02-3.83-.06-5.74,0-.97-5.64-5.01-2.96-3.83-9.56,3.18-.08,6.39.04,9.57,0Z"/>
  <path class="cls-18" d="M111.34,170.56c-.17,1.61-.27,3.01-1.91,3.83l-1.91,1.91c-.52.17-1.25-.11-1.91,0,0-.63.04-1.28,0-1.91-.09-1.27.05-2.56,0-3.83.46.34,4.22-.1,5.74,0h0Z"/>
  <path class="cls-10" d="M115.17,183.95c.1.6-.03,1.29,0,1.91h-7.65c1.33-2.89,5.14-1.83,7.65-1.91Z"/>
  <path class="cls-16" d="M107.51,176.3l1.91-1.91c-.44.74-1.1,1.65-1.91,1.91Z"/>
  <path class="cls-4" d="M134.3,183.95c.06,1.91-.09,3.84-.01,5.74h15.32c.05,1.26-.08,2.55,0,3.82-3.13.33-6.43-.26-9.58,0-.07,1.91.07,3.83.01,5.74-1.91-.01-3.84.09-5.74,0-.07-1.91.09-3.84.01-5.74h-9.58c-.05-1.26.08-2.55,0-3.82,1.88-.19,3.85.18,5.74,0,0-1.91.08-3.83,0-5.74,1.27.02,2.55-.03,3.83,0Z"/>
  <path class="cls-5" d="M124.73,183.95c.06-1.27-.11-2.55,0-3.82l4.77-.02c1.74-.1.91,2.57.97,3.84-1.91-.03-3.83-.01-5.74,0-.09,1.87-.12,3.88,0,5.74-1.25.12-2.56-.04-3.83,0-.24-1.81.08-3.86,0-5.74,1.28-.02,2.55,0,3.83,0Z"/>
  <path class="cls-12" d="M205.1,116.99c.04.59.1,1.35,0,1.91l-3.83-1.91h3.83Z"/>
  <rect class="cls-15" x="182.01" y="222.04" width="5.74" height="5.74" transform="translate(-40.67 409.01) rotate(-89.8)"/>
  <path class="cls-9" d="M178.31,199.25c-.23,1.11.22,2.59,0,3.82h-5.75c.09-1.25-.14-2.57,0-3.82,1.85-.23,3.88.19,5.74,0h.01Z"/>
  <path class="cls-9" d="M182.14,197.34c-.04.63.02,1.28,0,1.91-1.14.21-2.58-.13-3.83,0,.13-.61-.1-1.29,0-1.91h3.83Z"/>
  <path class="cls-8" d="M178.31,231.77h-5.74v-3.82s4.8-.06,4.8-.06c1.36.45.72,3.69.94,3.88Z"/>
  <path class="cls-9" d="M159.17,222.21c1.26.08,2.56-.06,3.82,0v5.72h-3.81c-.06-1.9.04-3.83-.01-5.73h0Z"/>
  <rect class="cls-6" x="201.28" y="203.09" width="3.81" height="5.72"/>
  <path class="cls-6" d="M210.84,199.25c.27,3.33.62,4.42-2.86,3.85l-.97-3.85h3.83Z"/>
  <rect class="cls-7" x="162.88" y="155.1" width="5.74" height="5.74" transform="translate(7.2 323.16) rotate(-89.8)"/>
  <path class="cls-7" d="M153.43,155.25c1.92.03,3.84-.08,5.74,0l.02,4.77c-.56,2.18-4.57.4-5.76.96.05-1.9-.07-3.83,0-5.74h0Z"/>
  <path class="cls-6" d="M168.74,113.17c6.73.85,2.6,2.07,3.83,3.83,2.02,2.9,2.71,1.66,5.74,1.91v13.4c-1.9.08-3.83-.09-5.74-.01-.35-9.46-3.3-9.54-3.83-19.13Z"/>
  <path class="cls-6" d="M224.23,128.47c1.02,2.85.09,4.51-2.85,3.84-2.16-.49-.35-3.15-.98-3.84h3.83Z"/>
  <rect class="cls-9" x="239.55" y="241.35" width="3.81" height="5.72"/>
  <path class="cls-12" d="M214.66,128.47h-3.83c.3-3.06,3.82-2.69,3.83,0Z"/>
  <path class="cls-11" d="M168.74,132.3c-1.91-.06-3.84.1-5.74,0v-5.72c4.4-.6,5.15,2.05,5.74,5.73h0Z"/>
  <rect class="cls-14" x="105.4" y="251.01" width="15.37" height="13.44" transform="translate(-.4 .18) rotate(-.09)"/>
  <rect class="cls-14" x="105.57" y="107.39" width="15.37" height="15.37"/>
  <rect class="cls-14" x="249.09" y="109.33" width="13.42" height="13.42"/>
  <path class="cls-6" d="M124.73,193.51h9.58c.08,1.9-.08,3.83-.01,5.74-15.03-.7-6.58-.6-9.57-5.74Z"/>
  <path class="cls-12" d="M130.47,208.82c-1.87.22-3.86-.09-5.75,0-.35-5.44-.96-6.48,4.8-5.77l4.77,3.87c-.23,2.44-2.17,1.72-3.83,1.91h0Z"/>
  <path class="cls-7" d="M120.91,183.95c.08,1.88-.24,3.93,0,5.74-1.91.06-3.84-.1-5.74,0,.08-1.25.06-2.58,0-3.83-.03-.63.1-1.31,0-1.91,1.91-.06,3.83.02,5.74,0Z"/>
  <path class="cls-14" d="M124.73,189.69c.08,1.27-.05,2.56,0,3.83-.43-.73-3.02,2.37-3.83-3.83,1.26-.04,2.58.12,3.83,0Z"/>
  <polygon class="cls-14" points="178.31 116.99 178.32 113.18 181.16 113.16 182.14 116.99 178.31 116.99"/>
  <path class="cls-11" d="M130.47,183.95c.08,1.91.01,3.84,0,5.74-1.89.18-3.86-.19-5.74,0-.12-1.86-.09-3.87,0-5.74,1.91-.01,3.83-.03,5.74,0Z"/>
  <path class="cls-17" d="M185.96,208.82c1.26-2.42.32-6.71,5.73-5.73v5.72c-1.89-.01-3.83.13-5.73,0h0Z"/>
  <path class="cls-17" d="M182.14,193.51c8.77-1.32,7.71,4.29,0,5.74.02-.64-.04-1.28,0-1.91.07-1.27-.05-2.56,0-3.83Z"/>
</svg>