<?xml version="1.0" encoding="UTF-8"?>
<svg id="Layer_1" data-name="Layer 1" xmlns="http://www.w3.org/2000/svg" viewBox="0 0 126.6 124.03">
  <defs>
    <style>
      .cls-1 {
        fill: #373232;
        fill-rule: evenodd;
      }

      .cls-2 {
        fill: #fdfefe;
      }
    </style>
  </defs>
  <path class="cls-1" d="M98.81,55.02c7.94,8.61,4.07,22.04-6.71,26.09-.85.32-16.52,3.58-17.41,3.64-4.29.3-7.09-3.17-9.43-3.17-7.78,0-7.01.96-17.46-.14-7.3-.77-18.57,5.25-22.81-8.08-4.09-12.83,1.6-12.19,5.68-19.38,1.63-2.88,2.01-6.95,3.97-9.43.65-.82,16.62-10.95,17.64-11.22.95-.27,18.76.21,19.72.49,5.77,1.67,13.66,12.19,17.75,15.89,2.29,2.08,6.16,2.17,9.06,5.31h0ZM95.02,72.41c8.84-14.77-5.33-13.55-9.2-16.84-1.55-1.32-1.42-5.24-3.37-7.2-2.32-2.33-8.65-2.55-10.43-8.72l-11.51,4.89c-4.66-13.99-8.37-.95-11.54.95-2.97,1.79-8.52.08-10.65,2.83l1.09,9.59c-12.81-.86-13.57,18.87-.96,19.35,7.03.27,10.77-3.69,19.11,1.9l8.63-7.82c3.43,13.4,9.33,5.26,14.69,4.38,4.36-.71,9.47,4.5,14.14-3.31h0Z"/>
  <path class="cls-2" d="M60.51,44.54l11.51-4.9c1.78,6.17,8.11,6.39,10.43,8.72,1.95,1.97,1.83,5.88,3.37,7.2,3.87,3.3,18.04,2.07,9.2,16.84-4.67,7.81-9.78,2.6-14.15,3.32-5.36.88-11.25,9.02-14.69-4.38l-8.63,7.81c-8.34-5.58-12.08-1.62-19.1-1.89-12.61-.49-11.85-20.21.96-19.35l-1.09-9.59c2.13-2.75,7.67-1.04,10.65-2.83,3.17-1.9,6.88-14.94,11.54-.95h0Z"/>
</svg>