<?xml version="1.0" encoding="UTF-8"?>
<svg id="sun" xmlns="http://www.w3.org/2000/svg" viewBox="0 0 470.22 398.29">
  <defs>
    <style>
      .cls-1 {
        fill: #eaecec;
      }

      .cls-2 {
        fill: #373232;
      }

      .cls-3 {
        fill: #e9e37e;
      }

      .cls-4 {
        fill: #3c3533;
      }

      .cls-5 {
        fill: #463c3d;
      }

      .cls-6 {
        fill: #f1f1f2;
      }
    </style>
  </defs>
  <path class="cls-3" d="M268.6,152.28l-7.65,1.91c-22.14,5.08-21.66,42.86-.81,45.85,21.44,3.07,22.54-12,22.81-28.65,8.04,16.18,9.2,36.08,3.41,53.17-2.89,8.51-7.29,12.63-12.02,19.55-.5.73-1.4,1.23-1.91,1.91-1.14.08-1.56,1.73-1.91,1.91-.51.26-1.43-.27-1.91,0-.72.4-1.28,1.59-1.91,1.91-20.18,10.17-44.8,16.83-66.4,6.13-5.23-2.59-11.02-9.86-15.88-11.87l-3.83-5.74c.09-.49.11-1.43,0-1.91-1.04-4.4-4.77-8.62-5.57-14.52-1.96-14.46.03-26.48,6.13-39.45,2.27-4.83,10.17-14.22,10.92-16.82l1.91,1.91c-11.73,20.24,4.39,51.61,25.83,36.34,13-9.25,11.56-38.59-2.91-44.92-4.21-1.84-7.59-.55-11.43-.99-1.87-.22-3.52-1.88-3.83-1.91,18.11-14.84,49.17-23.1,66.97-3.83v.02ZM230.36,217.33c6.58-1.9,9.51,7.82,15.93,7.24,4.81-.44,10.23-7.2,10.83-11.99l-3.85-1.98-6.88,8.57c-3.97.83-7.1-10.49-16.7-7.32-3.69,1.22-9.34,14.42-1.31,13.13l1.97-7.64h.01Z"/>
  <path class="cls-2" d="M260.95,140.8c1.95.5,2.63,1.38,3.83,1.91.83,2.74,2.95,3.8,5.74,3.83,6.64,5.25,5.69,6.21,9.57,11.48l3.83,3.83c.28.47-.27,1.42,0,1.91l3.83,5.74c7.61,18.06,9.43,36.47,3.83,55.48l-1.91,3.83c-2.39,5.81-5.97,11.15-9.52,16.31l-5.79-1.01c4.73-6.92,9.14-11.03,12.02-19.55,5.79-17.09,4.63-36.99-3.41-53.17-.27,16.65-1.38,31.72-22.81,28.65-20.85-2.99-21.33-40.77.81-45.85,1.85-.43,4.58.38,6.67-.02l.98-1.9c-17.8-19.27-48.86-11.01-66.97,3.83-.57-.06-1.69-.14-1.91,0l-1.91-1.91c.68-.58,1.22-1.35,1.91-1.91l11.48-7.65c1.11-.47,1.98-1.32,3.83-1.91,13.93-4.51,31.58-5.59,45.92-1.91h-.02ZM272.14,158.3c-4.68-2.55-9.11-2.63-13.9-.4-4.66,8.76,8.29,9.77,14.03,7.61l-.13-7.21ZM266.22,177.52c-3.22.49-13.87,5.66-14.72,8.5,2.21,16.23,24.16,12.29,26.62-2.22-1.32-6.53-5.95-7.18-11.9-6.28Z"/>
  <path class="cls-4" d="M184.41,244.1c4.85,2.01,10.64,9.27,15.88,11.87,21.6,10.7,46.23,4.04,66.4-6.13l3.83,1.91c-9.1,14.74-49.01,17.08-64.63,12.01-2.71-.88-20.34-9.09-21.47-10.1-.6-.54-2.79-7.95-3.83-9.56,1.16.23,2.98-.35,3.83,0h-.01Z"/>
  <path class="cls-5" d="M335.56,91.07c.03,18.98-18.79,24.99-28.69,37.29-3.68,4.57-6.08,12.55-10.5,16.29-10.1,8.57-23.69,1.25-16.3-2.95,1.94-1.1,4.3,1.25,6.64,1.01,7.96-.79,13.18-16.52,18.26-22,8.15-8.79,23.92-12.81,24.83-28.37l5.76-1.28h0Z"/>
  <path class="cls-5" d="M327.47,215.87c-2.5-2.51-8.05-2.51-11.48-2-10.34,1.54-8.09,9.46-16.76,9.18.55-15.01,24.89-20.97,33.43-9.51,3.52,4.73,3.25,12.44,6.8,16.16,4.52,4.73,24.1,5.42,22.9,11.5-3.02,4.22-3.5,2.46-7.06,1.38-6.84-2.08-18.72-5.96-22.45-12.01-2.37-3.85-3.05-12.38-5.37-14.71h-.01Z"/>
  <path class="cls-4" d="M163.07,202.31l.28,7.34c-3.7,1.03-4.99-3.8-8.27-3.53-8.77.71-12.6,21.17-20.5,27.38-6.15,4.83-13.6,4.23-19.59,7.2-4.3,2.13-5.85,7.41-10.94,7.22-2.43-15.03,20.78-13.14,28.1-19.71,8.85-7.95,10.58-35.9,30.91-25.89h0Z"/>
  <path class="cls-5" d="M366.18,156.11c.89,4.28-2.14,4.28-4.71,5.79-6.94,4.08-23.28,15.16-30.26,13.01-3.2-.98-5.13-6.6-9.79-5.46-5.72-1.57-21.2,16.2-24.1,13.41-5-4.82,17.7-20.89,27.65-19.16,4.22.73,5.57,4.84,8.13,5.53,8,2.16,22.53-17.14,33.08-13.13h0Z"/>
  <path class="cls-5" d="M207.37,136.99l-4.65,5.67c-21.26-1.49-13.18-23.21-19.34-32.39-4.49-6.69-23.96-.31-23.83-15.38,5.59-1.56,7.29,4.1,10.94,5.31,5.73,1.89,10.11-.85,15.96,5.09,10.37,10.53-1.55,32.44,20.92,31.7h0Z"/>
  <path class="cls-2" d="M192.07,163.76c.04.54.14,1.42,0,1.91-.75,2.6-8.65,11.98-10.92,16.82-6.1,12.97-8.09,24.98-6.13,39.45.8,5.9,4.53,10.11,5.57,14.52l-3.81-1.91-.02,3.82c-11.47-24.3-10.27-37.37,1.91-61.22l7.65-11.48c1.43-1.8,2.72-2.6,3.83-3.83.34.74,1.89,1.61,1.91,1.91h.01Z"/>
  <path class="cls-5" d="M318.34,288.09c-7.12-3.75-16.58-2.72-22.87-6.77-10.55-6.8-2.8-29.74-23.03-21.92-1.21-10.12,8.41-9.16,15.22-4.69,9.39,6.17,5.56,16.78,9.59,21.01,5.02,5.26,22.77-.57,21.09,12.38h0Z"/>
  <path class="cls-4" d="M174.83,177.14c-7.77-1.02-4.7-9.79-13.29-12.51-8.91-2.82-16.64,3-23.01.08-5.01-2.3-11.04-12.3-9.61-18.16,7.23-.47,6.81,11.67,12.79,13.1,2.64.63,10.08-2,14.98-1.79,10.53.46,19.99,8.15,18.13,19.27h0Z"/>
  <path class="cls-5" d="M228.43,307.22c3.19-5.47-.49-14.48.27-17.8.64-2.79,16.86-15.22,1.64-14.72v-5.72c9.92-1.8,17.16,9.17,10.41,17.09-1.45,1.71-4.91,2.62-5.64,3.86-1.2,2.02,5.38,17.29-6.67,17.29h-.01Z"/>
  <path class="cls-5" d="M184.41,253.67c1.08,7.1-1.15,11.22-6.69,15.31l-25.83,13.37c-.68-13.07,16.41-13.06,22.95-18.16,4.43-3.46,3.11-10.63,9.57-10.52h0Z"/>
  <path class="cls-4" d="M260.95,140.8c-14.34-3.68-31.99-2.6-45.92,1.91,12.54-8.63,32.53-9.75,45.92-1.91Z"/>
  <path class="cls-2" d="M184.41,244.1c-.84-.35-2.67.23-3.83,0-.92-1.43-1.26-2.64-1.91-3.83,1.09-.16,1.72-.85,1.91-1.91l3.83,5.74Z"/>
  <path class="cls-4" d="M180.59,236.45c.11.48.09,1.42,0,1.91-.19,1.06-.82,1.75-1.91,1.91-.37-.67-1.59-1.22-1.91-1.91l.02-3.82,3.81,1.91h0Z"/>
  <path class="cls-4" d="M178.67,177.15c3.12-6.11,3.61-6.39,7.65-11.48l-7.65,11.48Z"/>
  <path class="cls-4" d="M211.2,144.63l-11.48,7.65c4.92-3.98,4.83-4.87,11.48-7.65Z"/>
  <path class="cls-4" d="M270.52,146.54c-2.79-.03-4.91-1.08-5.74-3.83,4.08,1.82,3.05,1.7,5.74,3.83Z"/>
  <path class="cls-2" d="M270.52,249.84c-.29.43.29,1.45,0,1.91l-3.83-1.91c.64-.32,1.19-1.51,1.91-1.91l1.91,1.91h.01Z"/>
  <path class="cls-4" d="M289.65,228.8l1.91-3.83c-.57,1.94-1.46,2.73-1.91,3.83Z"/>
  <path class="cls-4" d="M287.74,169.49l-3.83-5.74c.65,1.19,2.05,1.53,3.83,5.74Z"/>
  <path class="cls-2" d="M270.52,247.93c.35-.18.77-1.83,1.91-1.91-.57.77-1.47,1.3-1.91,1.91Z"/>
  <path class="cls-4" d="M270.52,249.84l-1.91-1.91c.48-.27,1.41.26,1.91,0-.3.41.3,1.47,0,1.91Z"/>
  <path class="cls-4" d="M283.91,161.84l-3.83-3.83c.59.8,2.3,1.28,3.83,3.83Z"/>
  <path class="cls-2" d="M193.98,167.58c2.45-4.23,7.96-6.57,11.48-9.56,3.85.44,7.23-.85,11.43.99,14.47,6.33,15.91,35.66,2.91,44.92-21.44,15.26-37.56-16.1-25.83-36.34h.01ZM216.47,166.14c-7.54-4.75-15.92-2.71-12.02,7.22,4.38,4.43,8.96,3.96,14.34,1.77l-2.32-8.99ZM212.61,183.28c-5.13,1.03-19.74,9.59-12.06,15.03,16.79,11.89,33.26-19.29,12.06-15.03Z"/>
  <path class="cls-4" d="M230.36,217.33l-1.97,7.64c-8.03,1.29-2.38-11.91,1.31-13.13,9.6-3.17,12.74,8.15,16.7,7.32l6.88-8.57,3.85,1.98c-.6,4.79-6.02,11.55-10.83,11.99-6.42.58-9.35-9.14-15.93-7.24h-.01Z"/>
  <path class="cls-3" d="M205.46,158.02c-3.52,2.99-9.03,5.34-11.48,9.56l-1.91-1.91c.14-.49.04-1.38,0-1.91,3.51-.57,6.36-6.86,7.65-7.65.23-.14,1.35-.06,1.91,0,.31.03,1.95,1.7,3.83,1.91h0Z"/>
  <path class="cls-4" d="M268.6,152.28l-.98,1.9c-2.09.4-4.82-.41-6.67.02l7.65-1.91h0Z"/>
  <path class="cls-6" d="M266.22,177.52c5.95-.9,10.58-.25,11.9,6.28-2.46,14.51-24.41,18.45-26.62,2.22.85-2.83,11.5-8.01,14.72-8.5Z"/>
  <path class="cls-1" d="M272.14,158.3l.13,7.21c-5.74,2.16-18.69,1.15-14.03-7.61,4.78-2.23,9.22-2.14,13.9.4Z"/>
  <path class="cls-6" d="M212.61,183.28c21.2-4.26,4.73,26.92-12.06,15.03-7.68-5.44,6.93-14,12.06-15.03Z"/>
  <path class="cls-1" d="M216.47,166.14l2.32,8.99c-5.37,2.19-9.95,2.66-14.34-1.77-3.9-9.93,4.47-11.97,12.02-7.22Z"/>
  <path class="cls-2" d="M272.98,249.46c-.54-.79-2.65-.39-3.24-1.2l5.79-5.66c.12,1.35,1.77,3.08,1.98,4.63l-4.51,2.22v.02Z"/>
  <rect class="cls-2" x="275.38" y="242.65" width="4.22" height="3.3" transform="translate(-82.22 329.7) rotate(-54.72)"/>
  <rect class="cls-2" x="275.5" y="242.94" width="4.22" height="3.67" transform="translate(-92.32 233.29) rotate(-39.63)"/>
  <path class="cls-2" d="M269.6,252.93c-.25-.73-1.73.01-2-.73l4.72-6.73c-.12,1.37.74,2.89.65,4.45l-3.36,2.99v.02Z"/>
  <path class="cls-4" d="M201.33,155.27c-1.64.98-5.23,8.75-9.65,9.46-.03-.37-1.98-1.45-2.41-2.36,3.73-4.07,5.27-5.77,9.65-9.46l2.41,2.36Z"/>
</svg>