<?xml version="1.0" encoding="UTF-8"?>
<svg id="Layer_1" data-name="Layer 1" xmlns="http://www.w3.org/2000/svg" xmlns:xlink="http://www.w3.org/1999/xlink" viewBox="0 0 1712.16 2412.24">
  <defs>
    <style>
      .cls-1 {
        fill: none;
      }

      .cls-2 {
        fill: #00b1dc;
      }

      .cls-3, .cls-4, .cls-5, .cls-6, .cls-7 {
        isolation: isolate;
      }

      .cls-4 {
        font-family: Marydale-Bold, Marydale;
        font-size: 25.35px;
        font-weight: 700;
      }

      .cls-4, .cls-8, .cls-5, .cls-6, .cls-7 {
        fill: #fff;
      }

      .cls-9 {
        clip-path: url(#clippath-1);
      }

      .cls-10 {
        clip-path: url(#clippath-3);
      }

      .cls-11 {
        clip-path: url(#clippath-4);
      }

      .cls-12 {
        clip-path: url(#clippath-2);
      }

      .cls-13 {
        clip-path: url(#clippath-7);
      }

      .cls-14 {
        clip-path: url(#clippath-6);
      }

      .cls-15 {
        clip-path: url(#clippath-5);
      }

      .cls-16 {
        fill: #c77161;
      }

      .cls-17 {
        fill: #095ba9;
      }

      .cls-18 {
        opacity: .38;
      }

      .cls-19 {
        opacity: .15;
      }

      .cls-5, .cls-6, .cls-7 {
        font-family: Marydale-Regular, Marydale;
        font-size: 19.8px;
      }

      .cls-6 {
        letter-spacing: .06em;
      }

      .cls-7 {
        letter-spacing: .04em;
      }

      .cls-20 {
        clip-path: url(#clippath);
      }
    </style>
    <clipPath id="clippath">
      <rect class="cls-1" x="-1732.14" y="-.02" width="1712.13" height="2412.28"/>
    </clipPath>
    <clipPath id="clippath-1">
      <rect class="cls-1" x="-1737.4" y="-3.68" width="1755.3" height="1617.32"/>
    </clipPath>
    <clipPath id="clippath-2">
      <rect class="cls-1" x=".02" y="-.02" width="1712.13" height="2412.28"/>
    </clipPath>
    <clipPath id="clippath-3">
      <rect class="cls-1" x="-5.24" y="-3.68" width="1755.3" height="1617.32"/>
    </clipPath>
    <clipPath id="clippath-4">
      <rect class="cls-1" x="-14.9" y="1345.27" width="1727.04" height="1011.17"/>
    </clipPath>
    <clipPath id="clippath-5">
      <rect class="cls-1" x="2.72" y="-.02" width="1712.13" height="2412.28"/>
    </clipPath>
    <clipPath id="clippath-6">
      <rect class="cls-1" x="2.72" y="-.02" width="1712.13" height="2412.28"/>
    </clipPath>
    <clipPath id="clippath-7">
      <rect class="cls-1" x="2.72" y="-.02" width="1712.13" height="2412.28"/>
    </clipPath>
  </defs>
  <g class="cls-20">
    <g>
      <g class="cls-19">
        <g class="cls-9">
          <path class="cls-2" d="M3.46,307.56L-40.43-3.68h-1696.96v1397.71c23.5,61.64,103.32,156.92,372.86,162.62,395.77,8.37,505.9-161.06,842.11-161.06,228.68,0,422.71,103.88,481.99,158.46l58.35,59.6-2.31-277.68H-6.09l-13.93-576.86-7.18-2.96L-9.13,302.85"/>
        </g>
      </g>
      <path class="cls-8" d="M41.77-118.02h-1798.98V187.58c15.4,11.74,10.12,19.73,25.08,29.96v233.11c379.91,215.67,935.9-146.5,1189.07-213.65,200.63-53.21,411.89,12.63,507.65,50.2l32.54,20.07c25.25,11.04,7.47-24.35,7.47-24.35L41.77-118.02Z"/>
      <path class="cls-8" d="M-1773.7,684.48c61.41-7.09,84.37,189.63,267.24,259.68,85.17,32.63,130.19,9.11,252.11,7.56,265.32-3.36,474.71,102.65,571.37,151.6,263.54,133.44,259.41,250.71,404.3,256.83,235.01,9.92,353.85-294.01,456.32-252.11,125.39,51.27,106.66,571.52-70.59,635.32-140.15,50.44-239.78-234.71-552.13-274.8-203-26.06-251.3,82.78-577.34,148.75-235.88,47.73-565.62,114.44-753.82-55.46-273.79-247.19-103.85-865.06,2.52-877.35"/>
    </g>
  </g>
  <g class="cls-12">
    <g>
      <g class="cls-19">
        <g class="cls-10">
          <path class="cls-2" d="M1735.62,307.56L1691.73-3.68H-5.24v1397.71c23.5,61.64,103.32,156.92,372.86,162.62,395.77,8.37,505.9-161.06,842.11-161.06,228.68,0,422.71,103.88,481.99,158.46l58.35,59.6-2.31-277.68h-21.69l-13.93-576.86-7.18-2.96,18.07-453.29"/>
        </g>
      </g>
      <path class="cls-8" d="M1773.93-118.02H-25.06V187.58c15.4,11.74,10.12,19.73,25.08,29.96v233.11c379.91,215.67,935.9-146.5,1189.07-213.65,200.63-53.21,411.89,12.63,507.65,50.2l32.54,20.07c25.25,11.04,7.47-24.35,7.47-24.35l37.17-400.94Z"/>
      <path class="cls-8" d="M-41.54,684.48c61.41-7.09,84.37,189.63,267.24,259.68,85.17,32.63,130.19,9.11,252.11,7.56,265.32-3.36,474.71,102.65,571.37,151.6,263.54,133.44,259.41,250.71,404.3,256.83,235.01,9.92,353.85-294.01,456.32-252.11,125.39,51.27,106.66,571.52-70.59,635.32-140.15,50.44-239.78-234.71-552.13-274.8-203-26.06-251.3,82.78-577.34,148.75-235.88,47.73-565.62,114.44-753.82-55.46-273.79-247.19-103.85-865.06,2.52-877.35"/>
      <g class="cls-18">
        <g class="cls-11">
          <path class="cls-16" d="M1712.14,1562.03c-44.67-51.04-249.98-169.29-494.73-169.29-338.32,0-449.14,170.5-847.39,162.07C9.23,1547.18-13.76,1380.03-14.9,1345.27v1011.17h1727.04v-794.41Z"/>
        </g>
      </g>
      <path class="cls-17" d="M1698.8,770.35c-116.91,139.87-307.05,213.49-486.84,215.76-149.04.58-288.69-57.54-434.59-80.44-215.93-33.89-544.91,64.97-694.83-111.94h0C41.78,746,16.06,680.78.02,618.35c0,43.54,0,113.59,0,156.96,17.34,53.09,42.74,104.91,83.57,143.94h0c44.62,42.68,104.49,65.42,164.27,77.67,84.08,17.18,171.55,16.25,256.6,25.42,199.51,15.71,355.12,150.59,509.81,263.75h0c193.91,158.79,491.9,226.21,697.87,52.17-.01-189.97,0-395.82,0-585.82-4.26,6.09-8.72,12.05-13.35,17.9"/>
    </g>
  </g>
  <g>
    <g class="cls-15">
      <g>
        <path class="cls-8" d="M628.74,2320.83v63.48c0,3.22,5,3.22,5,0v-63.48c0-3.22-5-3.22-5,0"/>
        <path class="cls-8" d="M1184.65,2320.83v63.48c0,3.22,5,3.22,5,0v-63.48c0-3.22-5-3.22-5,0"/>
        <path class="cls-17" d="M-58.65,2427.02h1834.87v-114.26H-58.65v114.26Z"/>
      </g>
    </g>
    <g class="cls-3">
      <text class="cls-4" transform="translate(1314.89 2365.82)"><tspan x="0" y="0">K</tspan></text>
      <text class="cls-4" transform="translate(1330.71 2365.82)"><tspan x="0" y="0">o</tspan></text>
      <text class="cls-4" transform="translate(1340.14 2365.82)"><tspan x="0" y="0">n</tspan></text>
      <text class="cls-4" transform="translate(1349.88 2365.82)"><tspan x="0" y="0">t</tspan></text>
      <text class="cls-4" transform="translate(1359.16 2365.82)"><tspan x="0" y="0">a</tspan></text>
      <text class="cls-4" transform="translate(1368.59 2365.82)"><tspan x="0" y="0">k</tspan></text>
      <text class="cls-4" transform="translate(1383.5 2365.82)"><tspan x="0" y="0">t</tspan></text>
      <text class="cls-4" transform="translate(1393.54 2365.82)"><tspan x="0" y="0">:</tspan></text>
      <text class="cls-4" transform="translate(1399.62 2365.82)"><tspan x="0" y="0"> </tspan></text>
      <text class="cls-4" transform="translate(1409.51 2365.82)"><tspan x="0" y="0">c</tspan></text>
      <text class="cls-4" transform="translate(1422.06 2365.82)"><tspan x="0" y="0">a</tspan></text>
      <text class="cls-4" transform="translate(1431.49 2365.82)"><tspan x="0" y="0">r</tspan></text>
      <text class="cls-4" transform="translate(1441.94 2365.82)"><tspan x="0" y="0">l</tspan></text>
      <text class="cls-4" transform="translate(1447.26 2365.82)"><tspan x="0" y="0">o</tspan></text>
      <text class="cls-4" transform="translate(1456.69 2365.82)"><tspan x="0" y="0">s</tspan></text>
      <text class="cls-4" transform="translate(1465.67 2365.82)"><tspan x="0" y="0">.</tspan></text>
      <text class="cls-4" transform="translate(1471.53 2365.82)"><tspan x="0" y="0">v</tspan></text>
      <text class="cls-4" transform="translate(1482.76 2365.82)"><tspan x="0" y="0">i</tspan></text>
      <text class="cls-4" transform="translate(1489.07 2365.82)"><tspan x="0" y="0">c</tspan></text>
      <text class="cls-4" transform="translate(1500.56 2365.82)"><tspan x="0" y="0">i</tspan></text>
      <text class="cls-4" transform="translate(1506.19 2365.82)"><tspan x="0" y="0">e</tspan></text>
      <text class="cls-4" transform="translate(1518.51 2365.82)"><tspan x="0" y="0">n</tspan></text>
      <text class="cls-4" transform="translate(1528.25 2365.82)"><tspan x="0" y="0">t</tspan></text>
      <text class="cls-4" transform="translate(1538.29 2365.82)"><tspan x="0" y="0">@</tspan></text>
      <text class="cls-4" transform="translate(1552.97 2365.82)"><tspan x="0" y="0">n</tspan></text>
      <text class="cls-4" transform="translate(1562.7 2365.82)"><tspan x="0" y="0">t</tspan></text>
      <text class="cls-4" transform="translate(1582.33 2365.82)"><tspan x="0" y="0">u</tspan></text>
      <text class="cls-4" transform="translate(1590.31 2365.82)"><tspan x="0" y="0">.</tspan></text>
      <text class="cls-4" transform="translate(1596.17 2365.82)"><tspan x="0" y="0">n</tspan></text>
      <text class="cls-4" transform="translate(1605.91 2365.82)"><tspan x="0" y="0">o</tspan></text>
    </g>
    <g class="cls-14">
      <g>
        <path class="cls-8" d="M402.61,2345.32h1.99v17.13h-1.99v-17.13Z"/>
        <path class="cls-8" d="M417.79,2362.45v-8.31c0-1.05-.24-1.83-.71-2.34-.48-.52-1.22-.77-2.24-.77-1.34,0-2.33.36-2.95,1.09-.62.73-.94,1.93-.94,3.6v6.74h-1.94v-12.84h1.58l.32,1.76h.09c.4-.63.96-1.12,1.68-1.47.72-.35,1.52-.52,2.4-.52,1.55,0,2.71.37,3.49,1.12.78.75,1.17,1.94,1.17,3.58v8.38h-1.95Z"/>
        <path class="cls-8" d="M432.02,2358.95c0,1.2-.44,2.12-1.34,2.77-.89.65-2.14.97-3.75.97-1.7,0-3.03-.27-3.98-.81v-1.81c.62.31,1.28.56,1.99.74.71.18,1.39.27,2.05.27,1.02,0,1.8-.16,2.34-.49.55-.32.82-.82.82-1.48,0-.5-.22-.93-.65-1.28-.43-.36-1.28-.78-2.54-1.26-1.2-.44-2.05-.83-2.55-1.17-.5-.33-.88-.71-1.12-1.13s-.37-.93-.37-1.51c0-1.05.42-1.87,1.28-2.48.85-.6,2.02-.91,3.5-.91,1.38,0,2.73.28,4.05.84l-.69,1.58c-1.29-.53-2.46-.8-3.5-.8-.92,0-1.62.14-2.09.43-.47.29-.7.69-.7,1.2,0,.34.09.64.26.88.18.24.46.47.85.69.39.22,1.14.53,2.25.95,1.52.55,2.55,1.11,3.09,1.68.53.56.8,1.27.8,2.12"/>
        <path class="cls-8" d="M439.33,2361.08c.34,0,.68-.03,1-.08.32-.05.57-.1.76-.16v1.49c-.21.1-.52.19-.93.25-.41.07-.78.1-1.11.1-2.49,0-3.73-1.31-3.73-3.92v-7.64h-1.84v-.94l1.84-.81.82-2.74h1.12v2.98h3.73v1.51h-3.73v7.56c0,.77.18,1.37.55,1.78.37.41.87.62,1.51.62"/>
        <path class="cls-8" d="M445.6,2362.45h-1.95v-12.84h1.95v12.84ZM443.49,2346.13c0-.44.11-.77.33-.98.22-.21.49-.31.82-.31.31,0,.58.11.81.32.23.21.34.54.34.97s-.11.76-.34.98c-.23.22-.5.32-.81.32-.33,0-.6-.11-.82-.32-.22-.21-.33-.54-.33-.98"/>
        <path class="cls-8" d="M453.88,2361.08c.34,0,.68-.03,1-.08.32-.05.57-.1.76-.16v1.49c-.21.1-.52.19-.93.25-.41.07-.78.1-1.11.1-2.49,0-3.73-1.31-3.73-3.92v-7.64h-1.84v-.94l1.84-.81.82-2.74h1.12v2.98h3.73v1.51h-3.73v7.56c0,.77.18,1.37.55,1.78.37.41.87.62,1.51.62"/>
        <path class="cls-8" d="M460.03,2349.61v8.33c0,1.05.24,1.83.71,2.34.48.52,1.22.77,2.24.77,1.34,0,2.33-.37,2.95-1.1.62-.73.93-1.93.93-3.6v-6.75h1.95v12.84h-1.61l-.28-1.72h-.11c-.4.63-.95,1.12-1.66,1.45-.71.34-1.51.5-2.42.5-1.56,0-2.73-.37-3.51-1.11-.78-.74-1.17-1.93-1.17-3.56v-8.4h1.97Z"/>
        <path class="cls-8" d="M477.08,2361.08c.34,0,.68-.03,1-.08.32-.05.57-.1.76-.16v1.49c-.21.1-.52.19-.93.25-.41.07-.78.1-1.11.1-2.49,0-3.73-1.31-3.73-3.92v-7.64h-1.84v-.94l1.84-.81.82-2.74h1.12v2.98h3.73v1.51h-3.73v7.56c0,.77.18,1.37.55,1.78.37.41.87.62,1.51.62"/>
        <path class="cls-8" d="M485.55,2361.08c.34,0,.68-.03,1-.08.32-.05.57-.1.76-.16v1.49c-.21.1-.52.19-.93.25-.41.07-.78.1-1.11.1-2.49,0-3.73-1.31-3.73-3.92v-7.64h-1.84v-.94l1.84-.81.82-2.74h1.12v2.98h3.73v1.51h-3.73v7.56c0,.77.18,1.37.55,1.78.37.41.87.62,1.51.62"/>
        <path class="cls-8" d="M501.9,2351.12h-3.27v11.33h-1.95v-11.33h-2.3v-.88l2.3-.7v-.71c0-3.16,1.38-4.73,4.14-4.73.68,0,1.48.14,2.39.41l-.5,1.56c-.75-.24-1.39-.36-1.92-.36-.74,0-1.28.24-1.63.73-.35.49-.53,1.27-.53,2.35v.83h3.27v1.51Z"/>
        <path class="cls-8" d="M505.54,2356.02c0,1.64.33,2.89.98,3.75.66.86,1.62,1.29,2.89,1.29s2.24-.43,2.9-1.28c.66-.86.99-2.11.99-3.76s-.33-2.87-.99-3.72c-.66-.85-1.63-1.27-2.92-1.27s-2.24.42-2.88,1.25c-.65.84-.97,2.08-.97,3.74M515.33,2356.02c0,2.09-.53,3.73-1.58,4.9-1.06,1.18-2.51,1.76-4.37,1.76-1.15,0-2.17-.27-3.06-.81-.89-.54-1.58-1.31-2.06-2.32-.49-1.01-.73-2.19-.73-3.54,0-2.09.52-3.72,1.57-4.89,1.05-1.17,2.5-1.75,4.36-1.75s3.22.6,4.28,1.79c1.06,1.2,1.59,2.81,1.59,4.85"/>
        <path class="cls-8" d="M524.6,2349.38c.57,0,1.08.05,1.53.14l-.27,1.8c-.53-.12-1-.18-1.41-.18-1.04,0-1.93.42-2.67,1.27-.74.84-1.11,1.89-1.11,3.15v6.89h-1.95v-12.84h1.61l.22,2.38h.09c.48-.84,1.05-1.48,1.72-1.93.67-.45,1.41-.68,2.21-.68"/>
        <path class="cls-8" d="M539.62,2361.06c1.33,0,2.29-.36,2.89-1.08.6-.72.9-1.89.9-3.5v-.41c0-1.82-.3-3.12-.91-3.9-.61-.78-1.57-1.17-2.9-1.17-1.14,0-2.02.44-2.62,1.33-.61.89-.91,2.14-.91,3.76s.3,2.88.9,3.71c.6.84,1.48,1.25,2.65,1.25M543.51,2360.73h-.11c-.9,1.31-2.24,1.96-4.03,1.96-1.68,0-2.99-.57-3.92-1.72-.93-1.15-1.4-2.78-1.4-4.9s.47-3.76,1.41-4.93c.94-1.17,2.24-1.76,3.91-1.76s3.08.63,4.01,1.9h.15l-.08-.93-.05-.9v-5.23h1.94v18.24h-1.58l-.26-1.72Z"/>
        <path class="cls-8" d="M554.38,2351.01c-1.03,0-1.85.34-2.47,1.01-.61.67-.97,1.6-1.08,2.79h6.72c0-1.23-.27-2.17-.82-2.82-.55-.65-1.33-.98-2.34-.98M554.9,2362.69c-1.9,0-3.4-.58-4.49-1.73-1.1-1.16-1.65-2.76-1.65-4.82s.51-3.71,1.53-4.93c1.02-1.22,2.39-1.83,4.11-1.83,1.61,0,2.88.53,3.82,1.59.94,1.06,1.41,2.46,1.41,4.19v1.23h-8.85c.04,1.51.42,2.65,1.14,3.43.72.78,1.74,1.17,3.05,1.17,1.38,0,2.75-.29,4.1-.87v1.74c-.69.3-1.34.51-1.95.64-.61.13-1.35.19-2.22.19"/>
        <path class="cls-8" d="M571.23,2358.95c0,1.2-.44,2.12-1.34,2.77-.89.65-2.14.97-3.75.97-1.7,0-3.03-.27-3.98-.81v-1.81c.62.31,1.28.56,1.99.74.71.18,1.39.27,2.05.27,1.01,0,1.8-.16,2.34-.49.55-.32.82-.82.82-1.48,0-.5-.22-.93-.65-1.28-.43-.36-1.28-.78-2.54-1.26-1.2-.44-2.05-.83-2.55-1.17-.5-.33-.88-.71-1.12-1.13s-.37-.93-.37-1.51c0-1.05.42-1.87,1.28-2.48.85-.6,2.02-.91,3.5-.91,1.38,0,2.73.28,4.05.84l-.69,1.58c-1.29-.53-2.46-.8-3.5-.8-.92,0-1.62.14-2.09.43-.47.29-.7.69-.7,1.2,0,.34.09.64.26.88.18.24.46.47.85.69.39.22,1.14.53,2.25.95,1.52.55,2.55,1.11,3.09,1.68.53.56.8,1.27.8,2.12"/>
        <path class="cls-8" d="M576.34,2362.45h-1.95v-12.84h1.95v12.84ZM574.23,2346.13c0-.44.11-.77.33-.98.22-.21.49-.31.82-.31s.58.11.81.32c.22.21.34.54.34.97s-.12.76-.34.98c-.23.22-.5.32-.81.32-.33,0-.6-.11-.82-.32-.22-.21-.33-.54-.33-.98"/>
        <path class="cls-8" d="M581.79,2353.72c0,.9.25,1.58.76,2.04.51.46,1.21.69,2.12.69,1.9,0,2.85-.92,2.85-2.77s-.96-2.9-2.88-2.9c-.91,0-1.62.25-2.11.74-.49.49-.74,1.22-.74,2.19M580.73,2364.61c0,.69.29,1.22.88,1.58.59.36,1.42.54,2.52.54,1.63,0,2.84-.24,3.63-.73.78-.49,1.18-1.15,1.18-1.99,0-.69-.21-1.18-.64-1.45-.43-.27-1.24-.4-2.43-.4h-2.33c-.88,0-1.57.21-2.06.63-.49.42-.74,1.03-.74,1.82M590.97,2349.61v1.23l-2.38.28c.22.27.41.63.59,1.07.17.44.26.94.26,1.49,0,1.26-.43,2.26-1.29,3.01-.86.75-2.04,1.13-3.54,1.13-.38,0-.74-.03-1.08-.09-.83.44-1.24.99-1.24,1.65,0,.35.14.61.43.78.29.17.79.25,1.49.25h2.27c1.39,0,2.46.29,3.2.88.75.59,1.12,1.44,1.12,2.55,0,1.42-.57,2.51-1.71,3.25-1.14.75-2.8,1.12-4.99,1.12-1.68,0-2.97-.31-3.88-.94-.91-.62-1.37-1.51-1.37-2.65,0-.78.25-1.46.75-2.03.5-.57,1.2-.96,2.11-1.16-.33-.15-.6-.38-.83-.69-.22-.31-.33-.68-.33-1.09,0-.47.12-.88.38-1.23.25-.35.64-.69,1.18-1.02-.67-.27-1.21-.74-1.62-1.39-.42-.66-.63-1.41-.63-2.25,0-1.41.42-2.49,1.27-3.25.84-.76,2.04-1.14,3.59-1.14.67,0,1.28.08,1.82.24h4.44Z"/>
        <path class="cls-8" d="M602.4,2362.45v-8.31c0-1.05-.24-1.83-.71-2.34-.48-.52-1.22-.77-2.24-.77-1.34,0-2.33.36-2.95,1.09-.63.73-.94,1.93-.94,3.6v6.74h-1.94v-12.84h1.58l.32,1.76h.09c.4-.63.96-1.12,1.68-1.47.72-.35,1.52-.52,2.4-.52,1.55,0,2.71.37,3.49,1.12.78.75,1.17,1.94,1.17,3.58v8.38h-1.95Z"/>
        <path class="cls-8" d="M135.3,2366.14h-22.06v-22.06h22.06v22.06ZM135.3,2333.05h-22.06c-6.09,0-11.02,4.94-11.02,11.02v22.06c0,6.08,4.93,11.02,11.02,11.02h22.06c6.09,0,11.02-4.94,11.02-11.02v-22.06c0-6.09-4.93-11.02-11.02-11.02"/>
        <path class="cls-8" d="M124.2,2345.98c-5,0-9.05,4.05-9.05,9.05s4.05,9.05,9.05,9.05,9.05-4.05,9.05-9.05-4.05-9.05-9.05-9.05"/>
        <path class="cls-8" d="M177.17,2333.1l21.48,31.22v-24.02l-.06-5.71h-6.45v-1.49h13.84v1.49h-5.34l-.06,5.71v37.19l-.99.31-28.8-41.9v33.65l.06,5.9h6.64v1.49h-14.34v-1.49h5.71l.06-5.9v-29.24l-.06-5.71h-5.71v-1.49h14.03Z"/>
        <path class="cls-8" d="M248.81,2333.1v14.03h-1.86c-.19-2.17-.44-4.9-2.36-8.13-2.23-3.79-5.28-3.97-8.26-4.1h-3.48l-.06,5.59v28.62l.06,6.33h6.71v1.49h-20.36v-1.49h6.7l.06-6.33v-28.62l-.06-5.59h-2.86c-3.6.06-6.33.06-8.94,4.22-2.05,3.29-2.23,5.9-2.36,8.01h-1.8v-14.03h38.86Z"/>
        <path class="cls-8" d="M266.44,2333.1l21.48,31.22v-24.02l-.06-5.71h-6.46v-1.49h13.84v1.49h-5.34l-.06,5.71v37.19l-.99.31-28.8-41.9v33.65l.06,5.9h6.64v1.49h-14.34v-1.49h5.71l.06-5.9v-29.24l-.06-5.71h-5.71v-1.49h14.03Z"/>
        <path class="cls-8" d="M319.35,2333.1v1.49h-6.15l-.06,5.28v23.72c.06,6.15.19,11.98,11.73,11.98s12.41-5.09,12.6-10.61v-25.08l-.06-5.28h-6.27v-1.49h13.71v1.49h-5.4l-.06,5.28v22.6c-.06,8.13-.13,15.08-16.2,15.08-2.29,0-7.76-.25-11.24-1.67-5.53-2.36-5.65-7.2-5.71-13.16v-22.85l-.06-5.28h-5.34v-1.49h18.5Z"/>
        <path class="cls-8" d="M371.98,2376.97c-.28,0-.5-.22-.5-.5v-42.86c0-.28.22-.5.5-.5s.5.22.5.5v42.86c0,.28-.22.5-.5.5"/>
      </g>
    </g>
    <g class="cls-3">
      <text class="cls-7" transform="translate(1016.26 2353.14)"><tspan x="0" y="0">L</tspan></text>
      <text class="cls-5" transform="translate(1026.95 2353.14)"><tspan x="0" y="0">a</tspan></text>
      <text class="cls-5" transform="translate(1034.25 2353.14)"><tspan x="0" y="0">s</tspan></text>
      <text class="cls-5" transform="translate(1041.03 2353.14)"><tspan x="0" y="0">t</tspan></text>
      <text class="cls-5" transform="translate(1048.87 2353.14)"><tspan x="0" y="0"> </tspan></text>
      <text class="cls-5" transform="translate(1056.29 2353.14)"><tspan x="0" y="0">n</tspan></text>
      <text class="cls-5" transform="translate(1063.89 2353.14)"><tspan x="0" y="0">e</tspan></text>
      <text class="cls-5" transform="translate(1073.22 2353.14)"><tspan x="0" y="0">d</tspan></text>
      <text class="cls-5" transform="translate(1083.49 2353.14)"><tspan x="0" y="0"> </tspan></text>
      <text class="cls-5" transform="translate(1090.92 2353.14)"><tspan x="0" y="0">p</tspan></text>
      <text class="cls-5" transform="translate(1097.81 2353.14)"><tspan x="0" y="0">l</tspan></text>
      <text class="cls-5" transform="translate(1101.67 2353.14)"><tspan x="0" y="0">a</tspan></text>
      <text class="cls-5" transform="translate(1108.98 2353.14)"><tspan x="0" y="0">k</tspan></text>
      <text class="cls-5" transform="translate(1120.62 2353.14)"><tspan x="0" y="0">a</tspan></text>
      <text class="cls-5" transform="translate(1127.93 2353.14)"><tspan x="0" y="0">t</tspan></text>
      <text class="cls-5" transform="translate(1135.77 2353.14)"><tspan x="0" y="0">:</tspan></text>
      <text class="cls-5" transform="translate(1140.34 2353.14)"><tspan x="0" y="0"> </tspan></text>
      <text class="cls-5" transform="translate(669.87 2376.9)"><tspan x="0" y="0">h</tspan></text>
      <text class="cls-5" transform="translate(679.26 2376.9)"><tspan x="0" y="0">t</tspan></text>
      <text class="cls-5" transform="translate(686.38 2376.9)"><tspan x="0" y="0">t</tspan></text>
      <text class="cls-5" transform="translate(700.24 2376.9)"><tspan x="0" y="0">s</tspan></text>
      <text class="cls-5" transform="translate(707.02 2376.9)"><tspan x="0" y="0">:</tspan></text>
      <text class="cls-5" transform="translate(711.59 2376.9)"><tspan x="0" y="0">/</tspan></text>
      <text class="cls-5" transform="translate(718.66 2376.9)"><tspan x="0" y="0">/</tspan></text>
      <text class="cls-5" transform="translate(725.73 2376.9)"><tspan x="0" y="0">w</tspan></text>
      <text class="cls-5" transform="translate(739.75 2376.9)"><tspan x="0" y="0">w</tspan></text>
      <text class="cls-5" transform="translate(753.76 2376.9)"><tspan x="0" y="0">w</tspan></text>
      <text class="cls-5" transform="translate(766.36 2376.9)"><tspan x="0" y="0">.</tspan></text>
      <text class="cls-5" transform="translate(770.34 2376.9)"><tspan x="0" y="0">n</tspan></text>
      <text class="cls-5" transform="translate(777.94 2376.9)"><tspan x="0" y="0">t</tspan></text>
      <text class="cls-5" transform="translate(793.34 2376.9)"><tspan x="0" y="0">u</tspan></text>
      <text class="cls-5" transform="translate(799.35 2376.9)"><tspan x="0" y="0">.</tspan></text>
      <text class="cls-5" transform="translate(803.33 2376.9)"><tspan x="0" y="0">n</tspan></text>
      <text class="cls-5" transform="translate(810.93 2376.9)"><tspan x="0" y="0">o</tspan></text>
      <text class="cls-5" transform="translate(818.18 2376.9)"><tspan x="0" y="0">/</tspan></text>
      <text class="cls-5" transform="translate(825.24 2376.9)"><tspan x="0" y="0">w</tspan></text>
      <text class="cls-5" transform="translate(838.97 2376.9)"><tspan x="0" y="0">e</tspan></text>
      <text class="cls-5" transform="translate(848.29 2376.9)"><tspan x="0" y="0">b</tspan></text>
      <text class="cls-5" transform="translate(855.84 2376.9)"><tspan x="0" y="0">/</tspan></text>
      <text class="cls-5" transform="translate(862.9 2376.9)"><tspan x="0" y="0">d</tspan></text>
      <text class="cls-5" transform="translate(873.18 2376.9)"><tspan x="0" y="0">e</tspan></text>
      <text class="cls-5" transform="translate(882.8 2376.9)"><tspan x="0" y="0">s</tspan></text>
      <text class="cls-5" transform="translate(889.58 2376.9)"><tspan x="0" y="0">i</tspan></text>
      <text class="cls-6" transform="translate(894.21 2376.9)"><tspan x="0" y="0">g</tspan></text>
      <text class="cls-5" transform="translate(903.59 2376.9)"><tspan x="0" y="0">n</tspan></text>
      <text class="cls-5" transform="translate(911.2 2376.9)"><tspan x="0" y="0">/</tspan></text>
      <text class="cls-5" transform="translate(918.27 2376.9)"><tspan x="0" y="0">d</tspan></text>
      <text class="cls-5" transform="translate(928.25 2376.9)"><tspan x="0" y="0">i</tspan></text>
      <text class="cls-6" transform="translate(932.88 2376.9)"><tspan x="0" y="0">g</tspan></text>
      <text class="cls-5" transform="translate(942.26 2376.9)"><tspan x="0" y="0">i</tspan></text>
      <text class="cls-5" transform="translate(946.9 2376.9)"><tspan x="0" y="0">t</tspan></text>
      <text class="cls-5" transform="translate(954.14 2376.9)"><tspan x="0" y="0">a</tspan></text>
      <text class="cls-5" transform="translate(961.27 2376.9)"><tspan x="0" y="0">l</tspan></text>
      <text class="cls-5" transform="translate(965.49 2376.9)"><tspan x="0" y="0">-</tspan></text>
      <text class="cls-5" transform="translate(974.82 2376.9)"><tspan x="0" y="0">b</tspan></text>
      <text class="cls-5" transform="translate(981.82 2376.9)"><tspan x="0" y="0">a</tspan></text>
      <text class="cls-5" transform="translate(989.13 2376.9)"><tspan x="0" y="0">r</tspan></text>
      <text class="cls-5" transform="translate(996.38 2376.9)"><tspan x="0" y="0">e</tspan></text>
      <text class="cls-5" transform="translate(1005.58 2376.9)"><tspan x="0" y="0">k</tspan></text>
      <text class="cls-5" transform="translate(1017.23 2376.9)"><tspan x="0" y="0">r</tspan></text>
      <text class="cls-5" transform="translate(1024.95 2376.9)"><tspan x="0" y="0">a</tspan></text>
      <text class="cls-5" transform="translate(1032.26 2376.9)"><tspan x="0" y="0">f</tspan></text>
      <text class="cls-5" transform="translate(1046.25 2376.9)"><tspan x="0" y="0">/</tspan></text>
      <text class="cls-5" transform="translate(1053.32 2376.9)"><tspan x="0" y="0">i</tspan></text>
      <text class="cls-5" transform="translate(1057.96 2376.9)"><tspan x="0" y="0">l</tspan></text>
      <text class="cls-5" transform="translate(1062.17 2376.9)"><tspan x="0" y="0">l</tspan></text>
      <text class="cls-5" transform="translate(1066.39 2376.9)"><tspan x="0" y="0">u</tspan></text>
      <text class="cls-5" transform="translate(1073.16 2376.9)"><tspan x="0" y="0">s</tspan></text>
      <text class="cls-5" transform="translate(1079.93 2376.9)"><tspan x="0" y="0">t</tspan></text>
      <text class="cls-5" transform="translate(1088.25 2376.9)"><tspan x="0" y="0">r</tspan></text>
      <text class="cls-5" transform="translate(1095.97 2376.9)"><tspan x="0" y="0">a</tspan></text>
      <text class="cls-5" transform="translate(1103.28 2376.9)"><tspan x="0" y="0">s</tspan></text>
      <text class="cls-5" transform="translate(1110.05 2376.9)"><tspan x="0" y="0">j</tspan></text>
      <text class="cls-5" transform="translate(1115.22 2376.9)"><tspan x="0" y="0">o</tspan></text>
      <text class="cls-5" transform="translate(1122.47 2376.9)"><tspan x="0" y="0">n</tspan></text>
      <text class="cls-5" transform="translate(1130.07 2376.9)"><tspan x="0" y="0">e</tspan></text>
      <text class="cls-5" transform="translate(1139.69 2376.9)"><tspan x="0" y="0">r</tspan></text>
    </g>
    <g class="cls-13">
      <g>
        <path class="cls-8" d="M628.74,2320.83v63.48c0,3.22,5,3.22,5,0v-63.48c0-3.22-5-3.22-5,0"/>
        <path class="cls-8" d="M1184.65,2320.83v63.48c0,3.22,5,3.22,5,0v-63.48c0-3.22-5-3.22-5,0"/>
      </g>
    </g>
  </g>
</svg>