<?xml version="1.0" encoding="UTF-8"?>
<svg id="Layer_1" data-name="Layer 1" xmlns="http://www.w3.org/2000/svg" xmlns:xlink="http://www.w3.org/1999/xlink" viewBox="0 0 1712.16 2412.24">
  <defs>
    <style>
      .cls-1 {
        fill: none;
      }

      .cls-2 {
        fill: #00b1dc;
      }

      .cls-3 {
        clip-path: url(#clippath-1);
      }

      .cls-4 {
        clip-path: url(#clippath-3);
      }

      .cls-5 {
        clip-path: url(#clippath-2);
      }

      .cls-6 {
        fill: #fff;
      }

      .cls-7 {
        fill: #c77161;
      }

      .cls-8 {
        fill: #095ba9;
      }

      .cls-9 {
        opacity: .38;
      }

      .cls-10 {
        opacity: .15;
      }

      .cls-11 {
        clip-path: url(#clippath);
      }
    </style>
    <clipPath id="clippath">
      <rect class="cls-1" x="-1732.14" y="-.04" width="1712.13" height="2412.28"/>
    </clipPath>
    <clipPath id="clippath-1">
      <rect class="cls-1" x=".02" y="-.02" width="1712.13" height="2412.28"/>
    </clipPath>
    <clipPath id="clippath-2">
      <rect class="cls-1" x="-5.24" y="-3.68" width="1755.3" height="1617.32"/>
    </clipPath>
    <clipPath id="clippath-3">
      <rect class="cls-1" x="-14.9" y="1345.27" width="1727.04" height="1011.17"/>
    </clipPath>
  </defs>
  <g class="cls-11">
    <path class="cls-8" d="M-1793.51,2427H41.35v-114.26h-1834.87v114.26Z"/>
  </g>
  <g class="cls-3">
    <g>
      <g class="cls-10">
        <g class="cls-5">
          <path class="cls-2" d="M1735.62,307.56L1691.73-3.68H-5.24v1397.71c23.5,61.64,103.32,156.92,372.86,162.62,395.77,8.37,505.9-161.06,842.11-161.06,228.68,0,422.71,103.88,481.99,158.46l58.35,59.6-2.31-277.68h-21.69l-13.93-576.86-7.18-2.96,18.07-453.29"/>
        </g>
      </g>
      <path class="cls-6" d="M1773.93-118.02H-25.06V187.58c15.4,11.74,10.12,19.73,25.08,29.96v233.11c379.91,215.67,935.9-146.5,1189.07-213.65,200.63-53.21,411.89,12.63,507.65,50.2l32.54,20.07c25.25,11.04,7.47-24.35,7.47-24.35l37.17-400.94Z"/>
      <path class="cls-6" d="M-41.54,684.48c61.41-7.09,84.37,189.63,267.24,259.68,85.17,32.63,130.19,9.11,252.11,7.56,265.32-3.36,474.71,102.65,571.37,151.6,263.54,133.44,259.41,250.71,404.3,256.83,235.01,9.92,353.85-294.01,456.32-252.11,125.39,51.27,106.66,571.52-70.59,635.32-140.15,50.44-239.78-234.71-552.13-274.8-203-26.06-251.3,82.78-577.34,148.75-235.88,47.73-565.62,114.44-753.82-55.46-273.79-247.19-103.85-865.06,2.52-877.35"/>
      <g class="cls-9">
        <g class="cls-4">
          <path class="cls-7" d="M1712.14,1562.03c-44.67-51.04-249.98-169.29-494.73-169.29-338.32,0-449.14,170.5-847.39,162.07C9.23,1547.18-13.76,1380.03-14.9,1345.27v1011.17h1727.04v-794.41Z"/>
        </g>
      </g>
      <path class="cls-8" d="M1698.8,770.35c-116.91,139.87-307.05,213.49-486.84,215.76-149.04.58-288.69-57.54-434.59-80.44-215.93-33.89-544.91,64.97-694.83-111.94h0C41.78,746,16.06,680.78.02,618.35c0,43.54,0,113.59,0,156.96,17.34,53.09,42.74,104.91,83.57,143.94h0c44.62,42.68,104.49,65.42,164.27,77.67,84.08,17.18,171.55,16.25,256.6,25.42,199.51,15.71,355.12,150.59,509.81,263.75h0c193.91,158.79,491.9,226.21,697.87,52.17-.01-189.97,0-395.82,0-585.82-4.26,6.09-8.72,12.05-13.35,17.9"/>
    </g>
  </g>
</svg>