<?xml version="1.0" encoding="UTF-8"?>
<svg id="yellow-man" xmlns="http://www.w3.org/2000/svg" viewBox="0 0 271.58 275.95">
  <defs>
    <style>
      .cls-1 {
        fill: #9bc86a;
      }

      .cls-2 {
        fill: #efe642;
      }

      .cls-3 {
        fill: #eaecec;
      }

      .cls-4 {
        fill: #cbdaec;
      }

      .cls-5 {
        fill: #aac6e1;
      }

      .cls-6 {
        fill: #373232;
      }

      .cls-7 {
        fill: #3c3533;
      }

      .cls-8 {
        fill: #747377;
      }

      .cls-9 {
        fill: #90a78e;
      }

      .cls-10 {
        fill: #ae9f99;
      }

      .cls-11 {
        fill: #cea6bb;
      }
    </style>
  </defs>
  <path class="cls-6" d="M129.42,109.06l30.74,10.52,1.68,9.64,11.72.04,1.79-14.46-9.7-.83c-3.9-2.64,3.14-51.34,6-55.48.82-1.18,1.56-2.28,3.05-2.68,36.01,1.57,38.17.44,30.33,34.14-1.48,6.35-5.26,26.92-11.86,28.4l-10.27-.85-5.58,19.45-19.21-1.14.02,7.69-9.61.97c.83,6.32,5.57,11.9,7.24,17.63,1.16,4,.23,8.76,1.74,13.56,1.82,5.77,7.78,13.82,8.28,18.54.6,5.66-7.83.42-5.74,5.69.53,1.33,4.54,4.38,6.1,7.3,3.8,7.07,7.53,14.43,9.21,22.37,3.29,2.39,20.12-21.03,28.67-17.2,1.33,15.96-19.1,23.39-32.39,24.78-6.79-18.52-12.07-49.53-36.45-28.62l-5.75-13.38-.03,11.46-7.62-1.9c-.53,14.03,1.62,28.37,7.37,41.19-9.93,6.49-22.07,10.92-33.87,7.27-16.2-5.01-3.63-14.13,8.29-14.16,6.44-.02,11.9,3.96,18.17,3.03l-6.62-35.48c-2.22-3.97-13.95,4.52-14.39,3.89l.11-31.48-5.83-1.08c1.06-9.99,2.01-29.82-2.39-38.74-4.14-8.4-18.09-11.86-23.7-18.52-3.27-3.88-.55-7.47-2.51-8.71-7.43-4.71-29.97-7.23-38.94-5.03l-5.3-6.54c-.23-7.31,9.25-13.85,14.96-8.03,1.9,1.93.77,5.84,3.76,7.19,1.37.62,27.31,7.26,28.8,7.32,8.93.34,5.48-6.79,21.45.33,2.3,1.03,4.31,2.45,7.65,3.83,4.58,1.88,5.32,3.37,11.48,3.83,6.61.49,15.71,1.01,19.13-5.74h.02ZM198.28,84.19c2.01-3.33-7.09-16.19-9.54-13.39.52,8.13.79,32.32-11.48,21.96-.27-1.27,10.64-13.71,2.89-10.48-11.88,4.95-6.75,24.52,7.27,17.34l6.07-15.63,4.79.19h0ZM33.74,95.68c-3.49-.63-6.33,2.11-5.72,5.72h5.72v-5.72ZM156.16,122.54c-6.81,0-18.99-6.89-24.21-7.32-3.06-.25-5.91,2.98-9.33,3.3-16.15,1.54-28.18-3.35-42.02-10.84-16.88,11.36,3.93,15.11,11.49,22.43,10.76,10.42,8.39,28.29,8.64,42.06,15.99-4.87,33.02-11.66,49.72-5.73l-13.36-32.51,15.38,3.04,3.7-14.44h-.01ZM106.46,174.1v26.78c6.21-.48,11.26-3.78,17.2.01l6.72-22.96,6.7,21.04,21.07-6.74c-6.29-32.95-26.93-23.48-51.7-18.13h.01Z"/>
  <path class="cls-7" d="M93.06,105.23c-10.37-7.5-16.97-25.92-14.48-38.36,6.11-30.44,45-28.9,60.4-6.6,8.66,12.55,3.32,38.32-9.57,46.87-4.11,2.73-14.22,6.35-19.13,5.74-.87-.11-7.69-3.06-9.57-3.83-2.15-.87-5.9-2.56-7.65-3.83h0ZM105.78,48.53c-36.17,1.68-24.88,65.59,13.02,58.51,11.35-2.12,20.65-22.09,19.78-32.82-1.15-14.13-19.15-26.33-32.8-25.7h0Z"/>
  <path class="cls-11" d="M129.42,107.15v1.91c-3.43,6.75-12.52,6.23-19.13,5.74v-1.91c4.92.61,15.02-3.01,19.13-5.74Z"/>
  <path class="cls-2" d="M156.16,122.54l-3.7,14.44-15.38-3.04,13.36,32.51c-16.69-5.93-33.73.86-49.72,5.73-.24-13.78,2.12-31.64-8.64-42.06-7.55-7.32-28.37-11.07-11.49-22.43,13.84,7.49,25.87,12.38,42.02,10.84,3.43-.33,6.27-3.56,9.33-3.3,5.22.43,17.39,7.32,24.21,7.32h.01Z"/>
  <path class="cls-1" d="M106.46,174.1c24.77-5.35,45.41-14.83,51.7,18.13l-21.07,6.74-6.7-21.04-6.72,22.96c-5.94-3.79-10.99-.5-17.2-.01v-26.78h-.01Z"/>
  <path class="cls-3" d="M198.28,84.19l-4.79-.19-6.07,15.63c-14.02,7.19-19.16-12.38-7.27-17.34,7.75-3.23-3.16,9.2-2.89,10.48,12.27,10.36,12-13.83,11.48-21.96,2.45-2.8,11.55,10.05,9.54,13.39h0Z"/>
  <path class="cls-8" d="M110.28,112.89v1.91c-6.16-.46-6.9-1.94-11.48-3.83l1.91-1.91c1.88.76,8.69,3.72,9.57,3.83Z"/>
  <path class="cls-9" d="M33.74,95.68v5.72h-5.72c-.61-3.61,2.23-6.34,5.72-5.72Z"/>
  <path class="cls-5" d="M100.71,109.06l-1.91,1.91c-3.34-1.37-5.35-2.8-7.65-3.83l1.91-1.91c1.75,1.26,5.5,2.95,7.65,3.83Z"/>
  <path class="cls-10" d="M105.78,48.53c13.64-.63,31.65,11.57,32.8,25.7.87,10.72-8.43,30.7-19.78,32.82-37.9,7.08-49.19-56.84-13.02-58.51h0ZM121.24,63.46c-13.31,2.03-12.86,30.77,3.27,28.44,13.77-1.99,11.34-30.67-3.27-28.44ZM94.4,65.37c-9.59,2.93-12.14,31.44,8.87,24.24,10.3-7.17,4.56-28.34-8.87-24.24Z"/>
  <path class="cls-7" d="M121.24,63.46c14.61-2.23,17.05,26.46,3.27,28.44-16.14,2.33-16.58-26.41-3.27-28.44ZM125.58,68.88l-5.74.02.02,5.74,5.74-.02-.02-5.74ZM127.49,86.09c.08-6.39-6.08-8.41-11.46-7.63l2.21,7.34,9.25.29Z"/>
  <path class="cls-6" d="M94.4,65.37c13.44-4.1,19.17,17.07,8.87,24.24-21.01,7.21-18.46-21.31-8.87-24.24ZM100.71,66.98c-3.53-.45-5.61-.12-7.62,2.89v2.83h7.63v-5.72h-.01ZM102.62,80.39l-10.5-1.96c-6.33.65,10.3,19.59,10.5,1.96Z"/>
  <path class="cls-3" d="M127.49,86.09l-9.25-.29-2.21-7.34c5.38-.78,11.54,1.24,11.46,7.63Z"/>
  <rect class="cls-4" x="119.82" y="68.99" width="5.74" height="5.74" transform="translate(-.25 .43) rotate(-.2)"/>
  <path class="cls-4" d="M102.62,80.39c-.2,17.64-16.82-1.3-10.5-1.96l10.5,1.96Z"/>
  <path class="cls-5" d="M100.71,66.98v5.72h-7.63v-2.83c2.02-3,4.11-3.34,7.63-2.89Z"/>
</svg>